<mxfile host="app.diagrams.net" modified="2024-03-07T23:30:29.513Z" agent="Mozilla/5.0 (Windows NT 10.0; Win64; x64) AppleWebKit/537.36 (KHTML, like Gecko) Chrome/122.0.0.0 Safari/537.36" etag="6-hWmXmhBSHH8y1DCXAj" version="24.0.2" type="device">
  <diagram name="PÃ¡gina-1" id="9YWhiJYsWAPWmCQ23Mdo">
    <mxGraphModel dx="1050" dy="522" grid="1" gridSize="10" guides="1" tooltips="1" connect="1" arrows="1" fold="1" page="1" pageScale="1" pageWidth="827" pageHeight="1169" math="0" shadow="0">
      <root>
        <mxCell id="0" />
        <mxCell id="1" parent="0" />
        <mxCell id="AOr8H0upZgindr5D6W4T-2" value="" style="shape=curlyBracket;whiteSpace=wrap;html=1;rounded=1;flipH=1;labelPosition=right;verticalLabelPosition=middle;align=left;verticalAlign=middle;fillColor=#ffe6cc;strokeColor=#FF8000;" parent="1" vertex="1">
          <mxGeometry x="440" y="240" width="40" height="250" as="geometry" />
        </mxCell>
        <mxCell id="AOr8H0upZgindr5D6W4T-3" value="&lt;font style=&quot;font-size: 15px;&quot; color=&quot;#ff8000&quot;&gt;&lt;b&gt;Statistics&lt;/b&gt;&lt;/font&gt;" style="text;html=1;align=center;verticalAlign=middle;whiteSpace=wrap;rounded=0;" parent="1" vertex="1">
          <mxGeometry x="490" y="350" width="60" height="30" as="geometry" />
        </mxCell>
        <mxCell id="J1AjbqbmoUilZYHO_Ug5-1" value="" style="shape=image;verticalLabelPosition=bottom;labelBackgroundColor=default;verticalAlign=top;aspect=fixed;imageAspect=0;image=data:image/png,iVBORw0KGgoAAAANSUhEUgAAAeEAAAPMCAYAAAB15wHPAACAAElEQVR4XuxdBXgV1xLeV6GKu1NqSGkLtKUCLdTd+9pXSqGGxd0TSALF3d0haHB3d3cJTltKDS3Qzpt/kk3DzSbZe3NDE5j5vv+7yb275+zZPTv/mTlz5hiGSpbi5+dXNjQ06JOY2Cj/Nt+3joqLi44JDw9u5e3bspWnZ7Mx3r4e2/wDfX4KCvY7FxIa8CfjanCI/99Bwf7E31FAoA/5+XuRj68HeXm3EHh4NqMWLb9TKBSKHAHrIVq4cA6tXLkkHYYMHZDueE+v5qKbvH1akq+fJ/kHeFNgkK/oMOiz0LDAv7jMK8EhARf5+99Ypx329Gqx2MOjaafAYN9WrBVbtWnTOoYRFhkd2SwoKOi5T2I+yeeoT1VU0omvr2+l6NaRHvHxMdFBQX5x3AlXMoH+wR3uL5BnS4+m6TqsQqFQ5GYwadLSpQto7doV6TB8xOB0x+cEQOpM4n8zcV/2C/A+5undYlB0dHhMHBN1SETIOzExMbc56mOVG1zYgm3AHSDC19erT0Cg74/oIFlZpfgd1iyP9KhDx7bUu093GjJkAI0aPYzGTxhL06ZNpjlzZ9KixfNpxYqltHbdKtq0eT1t276Zdu3eTnv27qT9B/bQoaR9dPjIQTpy9BAdZRw7fpiOnziiUCgUbseRI4dox44ttJ31kCP2sk5Ke+zRo0mil4Ckw/vpwMG9tG//btq9Zwft2LmVtmzdSBs2rqVVq5fT0mWLaP6COTRz1jSaPGUCjR03Uki9/4A+1K17J4qLbyUDAFjUjrrUEbC4maD/9PHxWBkeGRrTunW0B0tRR72tkoclOjrig8jo0Bg/f58dTKR/W1m1INmw8CDq3KUDDR02UDoWCBVECvI8cfIonfrhRCpOnjpGx44d5s56kDvrPtq7b5eQ7fYdW2nbts20efMG2rhxHa3fsJYJeTWtWbuKVq9ZSatWLaeVK5cJUS8Hli+hZcsXKxQKhduxctUy2rlrK+1m3eSIzazb/jl2SbI+YqxYsYzPW85ku4L11kq2mlfRuvVraAPrsk2b1tOWLRuZxLdwudvSGBf7mbyT6MQJ6Mnj/+jKU8eF1HEsyHvW7Ok0ZuxI6tuvpxA1vIyOuhgAebNxdD4gwHtIbHyrwOBgr3KOel0lF0tgYKN7WsdFe/n5e08ODPK94ki6eMDft4ujESOHiPWKER4s0uSOc1zIdf+BvdJxQKYgUJDlwkXz+PhZNH3GVJqSOImJeiJNnjyBJk0eTxMnMSYm0ATG+AnjkjF+LCUIxtC4hLQYnYxxCoVCkXOAftq0aR0bBhvTYcmSBemOF5j6KUVfQX8lY6zoNOi2CROBBNF50H2TuB7UBZ04depkIdv58+fQ4iULhdBhjMAruGfPTjFcYMSYJA0SX7FyKZeRQH369hBjyEpnBwT6Hg+LCImLiAh51lHnq+QSad068iu2dGf4B3j/lfYBIhiqa7dO3EnG0+YtG1JGayfo6LEkGcmBaFewdTp/wVyaPj1ROhI6FjoaOp10Ru6cY8eNojFjRtLoMSNo1OjhgpGjhtHIkcOY0IcKho8YkophwwenYugwYNA1GDJ0oEKhUOQYYHWuX79arF5HzJs/O93xjjoqWW/9o8eAf3Rcss4DRA+OStaJo0aPYB05UuqGzgShg8RB3iBtEHbi1Ek0e/YMIel161bT9h1b6OChfankjL/hicQ1YAowLSkjeCwo2Pen8Mjg+MjIyAcdeUDlOktoqN8DoaFBnZh8z6Z9UIgKxAOEO+b48SNi4R48tF+s3uUrlkgHgDU7cRIs12SiRYcxCXYEE6tJpOiEQ4b+Q5qDhwxIxaDB/QUDB/Wj3n16UrfunalDx3ZsacdTXFwrimkVRZGRYRQWFkwhIYEUGORP/gF+5OvnI/Dx9SIvb0+FQqFwOwJY13Tr1pl69eqeDnFxrVOP82b4+nmLTvLz92GrE6s6Aoh1K4VHhFJUdAS1bh1DbdrEUrv2bWXarmevbtSvf59UHTho8D96EUhL7CZ5m4QNok4m6WSChsEDcp46bYp4HBFTs3v3jlTdvWfvLom76dip3TWrSthC/jsgwGdlTEx4E0duUMlhiYoNqxcU4p/o6+eZavVifgFkCPfxyZPH5AHCpQwrd+bM6fKQJ/BoDCMzdIBRo0C2ydaraZmmJVd0sjZt4yiUCdTLy4O+/uYr+uyz/9K7775Dr7z6CtV7vh49+eST9Nhjj1G1atUEVatWpSpVqtDDDz9MDz74IN1///1UuXJluu+++6hSpUpUsWJFqlChApUvXz4V5cqVU+QipH02in/geJ8UNw4cnzV0FPQVAN0FHfbAAw/QQw89JLoNeg6AznvkkUeoVq1a9Mwzz1CDBvXpzTffoI8++pAaNWpIzZs3ZaPDl63ZSOrUuYMEbkG3/kPS/xA0yBlGEIwhuL7hjUxMnEwLFsyjjZvW0cGD+8RKRsDYNCbr+DatUskYBlhgkM/PUVFhwU2bNr3bkS9U3CgxMZEvBwX7LfP0av63+QBi46Jp9pzpEgCAAKodO7fR0mWLeVQ1WSxdjLTgRsZDTku4pgULyxWjPpDs+x+8Ty+88Dw9/vjj0snQ4dAB0TFLly5NJUqUoKJFi1LBggXp3nvvpbvvvpvuvPNOuv322+nWW2+l//znP8SXqciDuO222+iOO+5QZIB8+fLRLbfcku6+KW5OoC/gnUG/uOuuu+iee+6hAgUKUOHChalYsWJUqlQpKlu2rBA5DBLo0+rVq1OdOk/Ra6+/Rv/7/DO2altSq1ZR1Lt3j2vIGcQMAwleSVjLcGUjWBYxPOvXr5FAMFjI8GwOHtJfphxNMvYP8DkXHh4c7+XlVcBQcZ/ExkbVCwzyW2ySL252124dJXoPk/uYQ1izZqUETWEEBWsXoyo8SDxQk3R79upO4eEh1KTJl/TKKy8z2T4mRIvRHkgWBIuOBGJVhXPzAAMoDKygSEA4eP6Kf4B7kj9/foEONBWuAP0GxgresUKFColBA+MGFjYsaljSH374AXl6IXC2DQ0Y2FdIGUZTsqU8nMaMHSXTh1OmTKQFC+fRtu1bxPBKYlKGwRUc4p9qHfsHeJ8LDQ+M8fPzu8tQcV3CWoVVCQkNnOzl3SKVfHv27CoBVieZfHft3kGLFi+QYKqEhDFCvAgYwIMD6Q4Y2I/i4luLlfvSSy/KSAyWLQgXHQHKRZWKAiN5c/AF4H/FPzDvC6wcHZwq3A0MgkHOxYsXF2KGYfTEE0/Qhx99IO5sTA0OHARLOdlKhldzLBMyIrRheGEJFZZIIdh22vQpskb5H8vY+5fIyJBmhopz4uXldUdoaFAXP3+vP82RTZeuHVLJFy7nefPn0CS2euGuwENBABVGTnAxx7eJpS8aNaSnn64j8xhlypQRJQv3iWHRCRQ3NzC1ACVgEjCmGRT/wCRieAv0HVLkNGAYob/BrQ13Nuad33jjdfL19aZevbuLgQXvJixkGF6wjhHUtXr1Sjp85BCT8WGakjhRUm6aZBwQ6LMzJj6mrqGStURHh7/l5+/9gxntHBcXwzd3ubidd+7aTvPmzRGXMybw4W42rV6Mllq0bE7PP19PiBdzElAgaukqsgJIBoM0JeCMgXtTpEgRsVoc759CkZPAwA9eGAS2IhAWgV+tWkeLwQXDa9jwIRJxjYCuxKmTJTESLGOsSUZWQzNzl5d3y79Cw4NG+vl9U8RQSS9s/RYPCw9OMOd9kSZyxsyp4vPft3+PzAEkW77J5GvO87bv0JY+++xTeThwZUCZKvEqnAGIBdMTsIiViNPDHKTonLDi3wYCweC2hqFVv/4LsqSqb7/eKWQ8OJWMYRkjSQhScmKVTJeuHf+ZL/b3PhMRHfGeofKPtG4d3cDP3+sn8yYhcwpC0TGaQRq15PykoyUxBsLaQb5t2sbS+++/J5P6mOPF/K5h8dAUCjvQ6OiMAdegRkcrchMwGMTAGTE+Tz/9NLX0aMG80fMaMoabetas6TJ9iUQgSABiBm+xsfdXeHjQaA3cMpBwI7C3l3eLq7gxuEFLly2UG4bw82nTE2WJUfKcbzL5tmvXRsgXIe8lS5bUOSqF24AXW5ExHO+XQvFvA/0SHhrMHdepU0dyOvTrn2wZY84YOSEwfbl48QJKOnxAljf17dcrda7Yz987KTY2qrZxM4q3t3cFJuCF5twvdt+A9Qs/PkYsEycmSPozjGpwQ5GN6n//+0winJV8FQqFQmHCJGNYxnXr1qWQ0CCZM8a0JTIgIisiXNSbt2wUI2/BwrlYUyzc4+fvdSkoNOBb42aS+PiYJ3z9PH9McQtILlFkucK6L7F++YaZ877IsuLh2YJq1aop2V3gFjMsHoJCoVAobm6AjOGmxpwxsnchzSY8qMOGDRajDsYdclYjuRNSY5qZt+CeDg0LHGbcDBIWGfyuv7/XRTQcOZ6RJ/T4iaOSXhKpJZHdCtFuyfO+cfTiiw0k/SOWkBgWN12hUCgUirRAsCU8pjVq1KBvv/tGXNQw6jC1iSnOGTOn0e49O+nY8SOSdct0T0dEhMy9obNtBQb6+vv4elyWpUfxrWQf3qSkA7LmF0m8kRXFtH6//fZrWR+GSDgNCFEoFAqFs0BkPzIi1m9Qn9p+H59sFbORh0BfbOKzYeM6cU9Pn5EoXtmUNcWbfEN9Kxk3mgQH+3eGyS/zv906SeQzthLEiAQh5XA/Y+63U6f29MqrL4tvH1GZhsWNVSgUCoXCDuCihjH36KOPMsk2l7liBPrCPY394JevWCpb3C5bvph8/TzFKvb18zoWHBxc1bhRJDg4oL+HZzMhYIxE4H7eum2zbACNPM+IYsP32PKvdu3akmhDrV+FQqFQuAtY847NJLC6BvsIwOuKTSIwT4w8FEfZMIRlHBTsl0LEHj9GRUU9ZuR1YQLubRLwSLZ2T5w8Rhs2rJV8zwgfR/QzRibffPOVLDtCUgDD4gYqFAqFQpEdYK4YSZ3q1atL7Tt8L95XRE/DGztn7ixZnbN126bU/NM+vh4/hoeHP2LkVQkM9Ovg4Znsgh4zdoREQK9du0oyX40ePUJcAlizhd0zsJsGEgMYFjfueuA/jNsZdzMKMgopnEYBxq1G+nurUNxIuMtQHeEqcN+gY6FroXMd7+31gOmerl27FkVGhaesKR4qy5iQ3ANriXfs3JpKxL6+nseDgoIeNPKaBAf7Nff0ai5JOEaMHCIEjJyeWDiNbCZwBfTo2ZVee+1VWWh9vdf9giwqMOoxPmI0ZXgoso1vGNxb091vhSKvA+T7JqOlkb7fK5wHdC50L3QwdPH1HsBjKROip/39fWU6FNOimB6dOWsaHTq0n7Zt3ywreMBhAYHe2z08PIoaeUVatYp81YyCRqQzCHjdutViAcMHDwLu2q0z1a9fX9b+Xq/533yMqowPGf6McEWOIIBxv5H+/isUeRWw3D420vd1hfsAvQHdDB0NXe34DHICyBePaVAPjxYpkdODU4h4umTY2rx5A5J5SNQ0W8aLiWDA53JBCjA/f09ZB9ylSwc6fvwIbdy0TtYAwwUNAkYy7Xr16knO5+uRDq8M4w0j+SE7PnhFzuBbI9lycHwW7gb6DwZx//nP9RnIKW5O1GKEGen7uSJnAF0NnV3GSP8s3A0sY8Iexk2bJQcOwyJGwqjZc2bKKp6Vq5aRl3cLIeLw8OAJRm6WgICmxXz9vI6AgFu1jqTDhw/S9u1bJAgL4eDYfAEWMLYbRAR0ThLwLYyHGV8a+vL8G8A9r2akfy7uAEg3X747+OW5h+6+51665978PKItQPfmx3aEd1/3qQ3FjY3bGF8Z6fu4IucBPQIdXsVI1umOz8ZdwHJYEDG2w00m4qESrDV/wVwxJOfMnSluaQQZBwX5hRq5VcIjgmdhtBAY5Ee7dm+nfft3S75OREEjCAth4Q0a1KcyZcrkGAHjQcGd8Z2R/oEqri9eN9I/n+zhP3T77fmEaO+6+1oCzp+/IOUvUIgKFCxEBQsVlt9yqo8pbi4UZ/ga6fu34voCOh26PafIGBZxlSpVyMfXm4kYUdNDacKEcbR02WJZ1YNsW8lLlzwvx7aNrWfkNgkM9o/lC/ybRwq0YuVSsYKRiGPs2FGpUdBvvPG6zAHnlHKsaOiINTfhEyP9M3IV6DP57kixfk0Cvif/NSRcoEAyARcqXIQKFynK/xe8bvEGihsX5RlBRvr+rfh3AB1fyUj/nNwBpEdGpsawsBCxiIWIJyakplfu0LGtmczjdFBQy1JGbpHY2KhnfHw9JRALezgi+wjMeExwY6J7wMC+9Ml/P5b0YVinZVg0Pju4l/EuI9RI/8AU/x4+M9I/K1eRbAGDgO8VAi5YqAiVLHsfFS9dkYqVrCCfpcs/QEWLlxYCLlKkGBUpWpyt44IEC9qxPIXCLioygo30/Vvx7wG6/j0jWfc7Pq/somDBglSz5uMU3yZWli8hnTJimrAv8f79eyRiGh7fsIjg6UZukE8++SSfn7/XIRBw+w5tZLSwavUKIWPJhDWoPzVr9p3sanH77bena3B2gHVmjzB8jPQPSfHv4wsj/TNzBbfccmsaAs5PBQsXo2JlH6DCpe6jIqUrU4nyD1MR/rtQ8fJUvOz9VKJUOSbgYlS0WAkqxrhD058qsoH7GCFG+v6t+PcB3V/DcP+a42LFitGzzz4rW+gimHj0mBE0bfoUWUOMQC2QMOaHQ8ICmxn/toSEBA7CBfkHeMuuFDt3bZdRw8iRw8Scj4qOkD2A4W83LBrrKhB5+76hQVe5GQiocHxurgBuaNP9XKBgESpRsSqVrvoMVaz5KpWoXIuKlKtGxSo8QmWrPEslK9ekkhWqMhGXpWLFS1LxEqXEMnYsU6GwCyy3Uy9b7gU4AFzgztUYmP4qW7asbIeIZbaYUsWmD/Dwnjh5VHJfwPD0D/C6GBTk/e8l8oiPj6nr4+txBRcze84M2aNx+oypEgk9eAjWAneip556ShZFGxYNdRWlGDz8SPcwFLkLWKaU3REqXgYEYZnzvyXLPUBlqj9PD73UmB6u24juq/YG3VuqKuUvXZ2KP1SXKtZ6m4pXqkll76suJFyiZCkhYo2YVrgKrLJw7NuK3AdwArjB8fm5CkydYhvdr79uIqmV4dmFh3fd+tV09FgSRceECxGHhgXNNf4tCQj02Y6L6NS5vUSPLVu2WOaBhw5Lngd+++233B4JXd3Q9b55BciIgyQHjs/QGcAVDQKWJUiMkmwFV6rzHj3yTgB90LAfvfduFypTuT7dU6o6FXmwHlV48mMqW+1FKlX+YSrOJFyyVGlGGbrjDnVJK1zDo0b6vq3InQA3gCMcn6GrQCpleHJjWkWlzg9PmTKR9h/YK8FaCESGWzoiOuJT43pLWFigP6KhvX1aigsak9ZISYloMrihPTxbyo4V7grEgkX1rKFzM3kJLYzsu4huvfW21OhnrAMuff+j9PBLTagqk3C9d1tTvQZBVLhsLbqnJJPwA3Wp/JOfsjX8HpWu9AhbwCWpVOkyjLKyrMmxbIXCDp400vdtRe4Fpg6eNbLvhTNRuHBhmR82d17Cktt582aLWxpcl+yW9j7dpEmTO43rJcih6efvdR6VJ4wfTceOH5E0X5i8xmihY6d2VLNmTQn3Niwa5SywLuxVQ+d/8xq8GIWN9M/TGWAQl7oGuEBBKnVfdar83MdU5S0fKvXEh5S/fDIBP9igIb3k252qv+lJ5Wq8RqUxL1yyFJVmAi5dppzbYxIUNw8aGOn7tiJ3A1zxiuGeNcXw5FaoUIE+//wzcUtjxc/4CeNo0+b1dPDQfgoM8k12S4cGdjCul4SEBA6QFF4RwZLWa83aVZJdxFyO9NZbb7otIxZuIpKmKwHnPSA/d2kj/TN1Bljni2VGBQoWpoKM0hUfpjLV61GVV7+jck99SAUrPkH5S9egmh/60NuRQ+iJjwOp5AN1qPz9j4gVDAIG8uXLl65shcIO3jHS921F7gc4A9zhDiKG/qhWrZq4pWH9Yg8EJKI6fARxUImmNfxnYGDgfUZOS1hYQBVkDEGl8+bPpkNJB2hK4iTJJoKLCwwKkPRf7nBDw53wmqEEnFeBqYPKRvrn6gwwkMOcsCThKFSEipdiUn3gcSr3aAOq9OQ7VJwJt0iFx6kEfz5U90MqgwjpStWpfKUHxQouU7a8zAu7Y0CouDmBpXaOfVuRNwDuQOY+d7imixYtSvUbvEB9+/WWaGnEP61YuUzSWsa0ihAiDg4NGGHktHAlY1BZXFyM+MSR0mvcOARjDaLefXrQM888LYudDYtGOAu4gZSA8zZqG+mfq7PAKNTMgoUkHCXLVqRS9z1CRctXpRIVqvHfj1Lx8lWocMqa4fL3PSzzwCDgsuUqUP78BdKVqVDYwZ2M5kb6fq3IOwCHgEscn62zgFcO0dItU3ZcguGJ5bgHDu6lJUsXCgn7+HpeCQ8Pf8TIKQmJCqlhLklatnwx7T+w5581wYP607fffSNZsdxhdTxh6Nq8GwHuyB+N/oSgLEnAUbQ4FS1WnEqVqUjl769OJcpWYtxHJcpUogr3p1jAZf4h4JIlS2vqSoXLuJHyRkfwewQ4fp8lzPNcOTeXAFwCTnF8vs4CWx8+8cQT1KNnVwnSwtrhxUsWyuqgNm1bJ1vDIQEJRk5JcLD/KFSCylDp4sUL5CJwMd26dZZgLHcEwMCF6e5crehEUWxRRd1+u1MdMYIVeORtt8mn42/m786Ud7Pha8M9czK33HqruKMlC1bxkimJOEyUohJMtuYccNlyyQSMv2/XuWBFNoDde/K6Nw46KrZgQerIBlLHSpUohnV0ZjoLv8XcfTe1KV6c2leoQJ0qV6ZObAHiE//j+1b33JOhTnQE7h9IMLvI7nNA6lF3TI+VL1+eGjduJEFaWA0EQxSbFS1fsSTVGg4LC6hmuFuCgoLuN/NDL122iCuFFZy8JAkX0+jLL9yyOQOiaRFV63gDXQU6FDpM5wceoIH161P/556jDhUrUvSdd2baEYHoO+6gLg89RD1r1ZJzQMaRTAbohO24rejQ+B0d3G6HvNmAtHJFjfTP2RUgzgBuaZN0zTXAcD2ntX7Lla8g3yPftGMZCoUzQIStY5/Oa2idPz9N9fCgU1u30rG1a2ngCy+IQeJ4nJAvEzT02vhGjWj9oEF0assW+uXQIfolKUk+UcaGIUNoQuPG1JFJOTNCB3EG8G/erBu9+N3NDrwZKAtlOtbjDLyN7K/YwLaHjz3+mCSjSraGR7E1vEAM0/g2rYSIg0IChhrultDQoC4ovHVslMwFwwduWsFdunakxx57TC7OsLhou8C+nW4NguCH1poJEh3q8PLldHrPHvpp927aO2sWDXv99dQOJOTKSOtuwf89H3+c9s+bRz/u3EmL4+MprnBhii9WjFZ260YHFy2Sso6vX0/D3nxTSD1d/QoZvT5mpH/WrsLMoCUu6ZQ1wLB4TQLG/5gDzu5gUKHIZ+TNLVFhEMCShfEBoyG+aFFa2b07XfrjDzr7ww80+qOPRPc5noPjRr3/Pu1KTKTfjx+nP8+epcsXLsjnxd9+u+b/30+coD3Tp9Pojz8WnehohIAsvfi77+69l3xKl6ZAtqCzA5SBsjy5zOwSMTgGXOP4vO0CugUG5xdffH6NNYzpWZAxeNLP3+tyQEDTYoa7JCYmJl9goM9FFI70lAcP7aPJaeaCGzf+0i1W8PNG9l0OaQHXc/+6denExo3S+TaPHEnbJ06kP06dEnLtzFZsK36wPWvWFJgdE8TctlQpWtGlC1345RfpvKt795bOFlekCM2PiqKtY8bQ+dOn6Y+TJ6UjOnZqxT/4zHBPdKIjkIryTr7v2NoQyTjcvUGI4uYGNm5w97RYTiOCSRdeuoSGDWnCl19S5wcfFF0G/WWS8JhPPrlWX7G+g4ExzdOTftq1iy6fP0+Xfv9drN99c+bQ2n79aHGbNrSmb18xYPD9Rf4dx/3Ehs0MPz/Ri2ktYlitIM1OrH/HsBE04ZtvaMK337oGPncMt6UrW/BNCxSQsrPDEzgXXOP4vJ0BDM7H2UgzN3iAQbps2RLZwCgiMlQ2eIiMDI0x3CWtW0cGiIkd7EdHjx2mVauWp6SnHCQT1LVqZX8uuKzh/g7fKn9+mubhIaO2pKVLqfsjj1APttiPrVtHvx4+TKM+/JB61a4tVnLSsmXUhTusOYrEaPH03r0yAgRMEkYnR4dFOSc2b5YRo5Jw5nDHemGF4noD26M69uXcDui8xObN6ed9+8R9vLBVK5mKy4yE4fWDHjzJ+uzyxYty3uqePWnQiy9S1ypVqMvDD8u0m3wyMK0Hb+CZgwfleLio+z79tBg9KA+WKtzHfmXLUsLXX9ORVavo92PH6A/Ww64A5x5fu5YmNm1KQZUrkxdfb3atYcwPg3Mcn7ldmNYw8krDEEWkNNJZJh0+SIlTJya7pIP9/jDcJQEBPrtRKBYog4SnTp0sOTQRpt28eVOqWLFitqxguAawUbPjjcouYOVO4QcHooTli+ACBCfsmztXvpvasqWQ6aYRI2jT8OGp877oeLunTxcLes+MGWI5myRslt2ufHkhcyVhe3jLSP/cFYrcipIMPyN9P85tgL6CUQBLFDoolv+eHx1NF379VdzGsGK7sD7LjIRhwXaoVEm8hIdXrKDxbEWDbDEdN/m774RwNw4dKi5t6NNetWrJ7+M++0yMl51TpkjQlumSBkF6IJiV650RGCjewr/+/JP+unzZZZxlHTwnMpJasb72uOMOCncywNYK4JzsuKXvZmMNkdJYmguDNCFhDK1dt5qJ+AAhnTNz5t/R0RENjexKVFTok55eza/CvN61eztt3rxBdpJAdixs8fTcc89K2LZhcZF2UcdwrxvaBDpon6eeklHhr0eO0Ex/fxklYm747I8/0nRvb+m8bUqUEGAkB6JdEBMjo7vZwcG0ulcvIVol4exBrWFFXgGmTvJClizM98LKXRQXR8s7daLhb71F35cuLfrLJOF1AwZkScIAArW6Vq1KvZ98UlzYU1u0oKOrV4uexHl/njuXfD7/f3TNGpru5SXWMSzobtWrSxCrWZaQMOvSKP5+VmgoneM6HUnVWZz76Seaz1Z9LA8AfAoUoI58jVbBZc4AnAPucXz+dgHDE0tyfX292CAdIEYqdhFEzFS//r2Ts2j5e083sithEUFxKKxDh7Z08tQxmjN3Jo0ePUKs4NCwEHqAO0F2rOD8Rg6uw0uZ28Uo7rejR+nMoUN0mgkZcxnnTp+madyR4L4xj4/ijjT45Zfp5JYtdGDBAhrxzju0tm9fGYXBUsboDx0fxyoJO49PDPcsV1IochKVGIFG+v77bwOWH8gO02UwMBB4NaFRI3Efg6Q2DRsmcS6ukDB0JXRbbKFCNOnbb8VwuXLxosTE/HbsmEzf4fP8mTPy/ZkDB2hay5ZieYtOTGOV5jQJ+7MxNOiVVyTq2/EeOQtwDzjIsQ/YBRJTvfhiAzFIzZzSO3ZupTVrV5qpLC83icnmxg5BwX6/obAZMxLp4MF9slMS9lVEjuj333+Pihcvnu7CnEFOLwFAZ+3EAwUEHSxt354WxcbSz/v3i4t54ldfSUc2j4VVvKxDB3ng6HyY87jAne6vK1ek865JYw0rCTsPpLF0Z6S0QuFuIENWEyN9380NgK4a+vrrNP6LL6h7jRqirxLZYoVBAWKEWxiE6xIJpwCrPIa/+SYd37hRpuPmRURQ/2efpW7VqlHfZ56hOSEhsiIE88eIpLYq53qQ8BC+Rqx8cUcCEWwO5NgP7AKJgKpWrUpt2sbK5kWjx4ykJUsX0YkTRykkNECIODY2yt9wVSIiQup6eDa76unVXHaLgL87NTlH9y6yLCk7EalYr5XTewObC9UxZ4HALKxvQ6AWRo+DX3pJ5o3blS0rAMHO8PGhnYmJMm98cOFCiQS8cumSjPxA4Jh/QblKwq4B6/SQhcixLygU/zbghs5po8BVQI/B/Xt8wwaxSLHSAzEuiWyNppIw663skjCsbVi3IHvkVEAdPR59lAY1aCDxM/gfZAyidoyINpHTJOzH9fatW1c8Ao51uwJwUHbWDpcuXZq+/PILMUxHjBwmeykcO35YjFWQsK+/5zzDVYmMDo0QV3THZFf0rNkzxO+NtVHePp7ZDsjC5gyON8TdAMkiXB8Lz7GsSOaDuVPAvdyeiRQjPLieD8yfL64ckCxc2N+XKSNzJIgShNW8YehQ6YBm8IGSsOtowrjbSN8fFIp/EzWN3LtfOfQOyBCxLVeZlJKWL5cAUneTsNSV4vYGycKDCKsXxH9y61aa6ecn64kzS3ZkknAk69aZbDm7i4Tncbtia9YkT772GCRISpkadAfARY79wS6wZW+dOnVkHhgBWoiZ2rZ9Cxutq4SEAwJ9LhuuSkCAz1EUMnnyeDrElvCkNK7ot956i4rwQzIsLsoO4IdHsI7jzXA3JFsMd1QEE2BN26lt26RDIvIPHakbW8eICMQyJXOJknkuLOjZ3IkQoLCodetUKxhAAAQWteO3YW+8ock6nATWDsP159gvFIp/A0hPmRvngU1YkTBiVKY0a5ZKwjsmT5bvkMfgmuho/m4VGxOpJGzTaID+mxseLtHNf1+9KudiyRPmjR2PTQtJ1HHbbRRcuTIlenvL/DKm9bIDeCIRaY2Ia08m+NAMBgCuAlzk6twwDNGHH36IWrWOFpf0mLGjaNmyxbK7kn+At0RJx8SEf2s4K35+fnf5+nnKZg07d22TDYzHJYyhoUOxNrgbPcodIjuu6LpG+huRExB3NJOnRPLVqiXWLNzOkSkh7oiwa1+unCxwd4y2w7kgXljMcTz6SzvywlwziBi/SR5VN3eKmwH/M9QiVvz7qG7kbgIGTHc0Bv2IVcGySiypxLwsLFUQ3cquXeW7yd9+Sz+wsYHEG/MjI+U7zOX+yP9jnnfIK69cE82cEVAn9OW6/v0loBXpKhE5nZUFiqhjP9aHzZis+7/9Ni1gA2ZVr160uk8fl4BzF8bH08D33qMWrId9+bpyYjUNOMmxb9gFXNKNm3wpXmKsGcZew4iS7tO3p5nGso3hrMTERHmCwTG5fPLkMVq0aL5MOiMqOjgkkCrzKMdVVzTWZrU00t+EnAQ6lGMUn+LfBzZ4KGak7yMKRU4DkfrPGcmJGxz7ZW4EvG09atSgPk8+Ket6saSydYECMlfb+4knJK4F38FwgMHRu3ZtalOypHyHJZg4BpkB4R20azRAZyK3AlzYIGRJ72txnCNCuPwWXK93qVLU7plnqPtLL1H3l192DXxu+2efJZ8yZagZG0rBNq/dWXgYrq8bzs/39IUXXqD+A/rSsOFDaOLEBNq3bzfNmDk1mYSDfH82nJXgYP+2OLlfv17C6IlTJ8ukM5j+s/99SiX4oRoWF2MHDxrJLgvHm6C4OYGkCIiazonUlgqFFQoayUvmcsKiyjH8J3kZ0TW7uqX9ziQnfHebQz58q+9swswimJUF7AiQpSef04wHD03vuitbQBkoK6cIGAAnPWSk7yt2gM1lqlevTp27dEhNY7lh4zravWdHys5KHldbtmx5r+GMBAb5nZKlSczk2KZpwsQEYXgwfXYTdOTFdHCKnAWUIeaJSxjp+4tC4S7A0nnKyBvZsG4EgNgQ7AZvQ3aAMq6H4QZucuwzdgCvcKVKlcjP30e8xaPHjKCFi+aLFzllqdLf0a0jWxjOSECgr8wHb922KXU+2NwxCYwP5jcsLiYr3GHkYHIORZ4HXja8CEgb6Nh3FApXgR2REP3MWjBdn1MoTGBwBo5y7D92AO/w//736TXzwlhV1LNXV7GGo6LCIg27Eh4e8kZLj6Z/If/l8RNHaNnyxTRmzEgaPHgABQUHZGs+GOb+9RjRKPI2YBk3YtQyXI9aVNzcuJVRwUhOxqADf4UdZMcljXnh55+vJ9mzhqfMCyO/xoQJY02X9BrDrsS3jQlHruh27eOZyY/TzJnTZMMGMPyXXzaSSDDD4iLs4HqsDVbcWAAhN2O8bSS7Eu83koO5dImTAgDZYqCGXXFqMOobyZH3OZ0ISHFjwtU1w1gt9Ah26uvZVVYRJYwfQ9u2baZVq1cICYeEBvxp2BV/f+94nIQ1T8j8gQ2Lh48YKuuDX3/9NSpcuHC6C7ALdQcp3AnMFyELV3MjeVeUL43kTbuhhDHHrLhx0NBIfraNGd8ZydGscB/mqeAqRa4HOMqRt+wA3uEHH3yQomMiU9cLr16zUtI9g0+9vFtc9fLyusOwI37+3gdx0tRpk2nf/j2SlHrYsORdk2rXrk2u7h2M1GDu3jNYoVAoFAp3ARzlShpLkHD58uWppUdzCc5CdsmFi+ZJcFZgkK8EZ0VGhrGtYEPYbL4MEl63bjVt2bpJ9klEUFanzu0lKAtJqw2Li8gK1QydD1YoFApF7gU4ClzlyF92gOCs//73E5m6xZLeadMT6dSp49Sx0/eEKd42beIiDDvi7eNxFSR84MBe2ZJpLJvVMK8jIsOytXVhfSN9gxUKhUKhyE1oYKTnLzvA1oYvv/yyTN0ixTNSPR87dpj5s7+4pAODfaOMrCQkJOA1REb7+HrQCTajFy9ZKGueYF57eLSgChUquEzCnxrpG6tQKBQKRW4CuMqRv+wAU7WYsjX3F54wcRztZ2N24qQEIWFv75arjaykTZvWQTi4VetIiYyePXtGamR0w4afU6lSpdJVbBcIpHBsrEKhUCgUuQngKkf+soPbbrtNIqS7dessOyoljB9LO3ZsZWN2gZBwcIj/eSMriYuLjoLvGguMsdB4SuJEGjEyOTL6nXfepqJFi6ar2CZ+y+1J0hUKhUKhAFeBsyx4LFPAS1ylShWKjWslU7hjx42S9JXbtm9OziEd7HfVyEr8A72jcDBY/MiRQ5KucuiwwdSvfx96/vnnqUCBAukqtontWE7i2FiFQqFQKHITwFXMWTsseCxTgISRzCowyF+8x6NGj6CVK5dRUtKB1GVKRlbi6dViIQ6GLxuBWdigeMjQQbJhcc2aNV1ensRYmFs3zFYoFAqFwgS4CpxlwWOZwlym1Kx5UxowEOkrh9OixQskvgoZKLFMyS/I7wUjMwkI9D0DEp47bxbt3LVdlifBrO7eo4ssT8rGHsITdXmSQqFQKHI7wFXgLAseyxKIm2r4xecyhYup3DlzZkp8VURkiFjDrVtH+hiZSUhI8hphLE3avGWj+LSRM/r7dvFUtWpVlyOjGYM1s41CoVAocjvAVeAsCx7LEsWKFaMPPnw/OYf0iCGS9Aok3KFD2+S1wt+3znytMCaOQcLbd2yh9RvWSuotLE+Kio6ghx56KDsk3NOxoQqFQqFQ5EYwZ/W24LEsgbTOr732qsRRYftfpH1G1qzefbonW8Jx0ZmvFcbmwzgQ+S5XrVoua4QHDupPAQF+2do9idHZsZEKhUKhUORGMGd1s+CxLIHdlOrWrSskjKBmBDcfOZpEQ4YOSI6QDvKLNjISX1/f0nzQXzCZsYXh0mWLJP8lorw8PLOXqMNQElYoFApFHgE4y4LHssTdd99NTzz5hAQzY5UR9l7AloZjxo4UEvbwaNbfyEhCQ4M+QvSWf4C3mM8LFs6T6C5MMH/73ddUtmzZdBU6ASVhhUKhUOQJgLMseCxL5MuXj2rUqEF9+/WSPReQsGPvvl2UOHVSctYsH8/tRkYSGRnuARIOCw+SRB1z5s5iEh4mJPxFo4bZypZlKAkrFG5HRBo4/qZQKFwHOMuCx7KEmTULK4pAwuMSxshKo9lzZggJBwT4nDYykvj4mGAcFBsXLdFcM2ZOS82W9cknH8sOEYZFpTahJKy4LkhLTDciSaEtkf/5D0XdcgtFpwB/R/F37m6nWZcJd5evUORWgLMseCxLYJdBLOft0PH7lKxZoyVj1pKlC83UlReMjKTN93ERmA/GySDhxKmTafiIoRJq/d5770rotWFRqU0oCStyBEIUQAoxZQYhk5RzHMvJC8B1R3MbWvNou83tt1O7O+4Q4O/Wt96aTMQMx/OchUm+MXzPUG4s14dP/K9krLgZAM6y4LEsgbgpLOeNbxObTMJjR9GmzRto7bpVQsIhoQFXjIwkrk1y3ugePZPzRiO0GuucQMJvvPG6hF4bFpXahJKwwu0AGYB4QA4gCpBR23z5LBHPv+EYHOuq1WiSkyvn2kFm5QsB87WjjV3vvZcGlS9PIypXpmGMARUqUJciRSiWf3OmbRnVh+9aMel+zwTfvVAh6lOyJPXg8tvdead870wdCkVeBDjLgseyBEgYy3ljWkXRoMEDZJnv+g1raNu2TaYl/JeRkUTFhEXjIER1IToaeyFiOyaQ8MsvvyR7JRoWldrEdSHhCFZSrVhBxfGAAZ/43/EYxY0DWLVCFkwOvYoXp4GlS9OQsmVpKFCuXCrwHX7DMSaRgGgcy8sIacke52aHyK2QWfkmYAFjINEjf36a8PjjtKNzZ0oaM4YOMXb07UuJH31E7QoUEIs/q+vKqj6QPQYu/Zh8537wAa0PD6fFX31Fw1i5tLvrrmSL2KJcheJGATjLgseyBEj4gQceoPDwEMmxMXrMSFqzZhXt3rMjeU/hIN+MSTgkLEBIGBsQHz2aRBMnJggJJ2/eUE/WPxkWldpEjpNwJFs5HSpWpMSvv6ZlcXHy2Z4VcAQrGcdjFTcGQDiwDPuWKkXLW7SgzRERtD0qinZER18DfIfflnt50cD776c2bOGBaNKSnAnHOkA2IB0QYMe776Yu/B50vOceiuP/zTIcz3EGWZUvbnYGrPgu/Pu4KlVod5cudPHUKbpy7hxdOHmSDowfTyOeeILa8gDDJOGM2pRVfagLxIzvp7/6Kp3Zto3+/OUX+uPgQVoXGUk9mZjhDrcaxGRUpztxPepQKMBZFjyWJdJu4pBMwiNo5arlshcD+NXP3ytjEvbx8xISHj5iMB0+fFA2cTB3UHr22WfoHn5RDYtKbSJHSRgE3JVH6et69KBftm+nc0lJdHrLFloQFkZxhQqlO16R9wElDNLowMQztnp1+nnzZvrzzBm6zIRhBRDJL7t20ZSXX6aO996b7FYF6dySJrgpBebcMQALFETfk/vRhDp1aMabb9LE+vWpG/+fSpQp1wOY89OR+D5tmWnKTUskWZUPwgS+Z8t0MA8q1/r60vkjR+jvK1fo4o8/0v4RI2j8009TF7aCQdRmWyzbxDBd2lb1gZhj+L6AZOF+XsLW74UffiDIlbNnac+QIdSvfHmpJy3Zp52PT1uv6epOCzv3xvFZp53zt2qX1TkKRXYAzrLgsSwBEq5UqRL5+Hqn7qS0fMUSOnzkoLmTUsYk3KJF0zY4CAk6DiXtl0XGWGwM93SdOk/JImTDolKbyDESTiXgnj3pj/376fLp03Tl55/pElsK+xIT6fvSpdOdo8j7gOIFYXS56y6a/PjjdJYHXvT330IY+ARJ/X35cir+Ypw9epSmvv66WHkgHJBcGyY3M8AJLlgJcsLccYqbNo7/7sZ9f0KNGnR89mw6x2X8sGYNja1WTb7HOQhaMiOVcQ7OR/n4LW3Z8SkBTmmJxE75Mg/M1zyVBxA/rlhBf3IfP3vgAG1v04YSHn2UujMB4ziUhToc68X5ZnAVrqs7D6jHZ1YfozvXl1i3Lv3E9V1ka/tXtoiXtWhBPYoVSyVh06VtBoqZ9WLAYNYpru4U2L035gAIMC1ztM3xnNRnlXItSsYKdwGcZcFjWQIkjMRWXl4eKSQ8nJYuW0zHjx8REm7p0fQvPz+/uwwr8fBsPhEHJYwfQwcOXruNYe3atelOtjgMi0ptIkdIOCMCBi4cO0abBw+mNsWLpztPkfeBKGAoZxDH1Jo16ezhw6kk/NfFi3R2yxb6hcnlzOrV9DPjp1Wr6PDUqZTwzDPUg0mrGxNRH7b2MF88gkeuI++7j4bxyzOwVCnqUbCgWNggE5D8cP5uzZdfChmhjvNc18IXXqAxbBUOKFmSuvDxIC6QS3sEM7GlPaBECRrGv6PckQig4rL787EIqkK5ICgQSyeuJ8Py+ZwB/FtPvs6+RYvSjAYNaDcT78HOnWlTs2Y0mYm0D1uwHbkM1At3dUZt6snX2JXb3IMxigemaxs3Tl8f2oNjCxemXkzCI7mchS++SBuaNKElbDGPuf9+6sLnC7nemhw13YHrxf0cyG1De0dwncMrVpQ5eNxHECYGO4CdewNyxXOVAU3KoKETP4OM2oUBCMpNjQ636CsKhbMAZ1nwWJYwtzNs0bKZkDASXi2W7QyPwgqW7Qz9/b0eM6zEy6vFMpDwpMnjad/+3ZLpwyThxx57jO7gjm5YVGoTbifhzAgYVvCxpUtpOFs90aygHM9V5H2YJNyViWdarVqpJPz3X3/RBbYS177zDs1iCxlENb56dRpbtSoNf+AB6s9kNpAxgb9b+t//0vZWrehA7950aNAg2sPktjEwkGa/9hqN4L7Vl8loGJPJ/Pr16dSECXT1/Plk1+yZM3SYj90RFibu4WlvvCFE2Y1JZCgT0NRnn6W1LVvSrrZt6WD//pQ0ZIiUvZ6PxW+DypQRMgNpDmbyyaz8dX5+NOutt2hkuXI0iwcQu6Ki6OD339POiAiay8TYjy1T3ANcawJbs0ss2rSJ2zSP34UJ/Pt4vr4lTKw/TJyYcX1c7jAmvES+r1v4/90xMbQlKIhm8X3pwfWAKDGQQHtBinPYQl/v6Ul72renQwMH0r4ePWgLX98cfgaDmTA7o62MIVndG24fyLsjk665BKsXE/m4DNqFZ4VrGsrPtT0Cxm51LuBOocgI4CwLHssSIGFkl2za9FvJsQESXrhonuwp7Ovnae4p/KphJd4+LbeChJFea8/eXSkkPFDSbyEDSD5+6QyLSm3CrSScGQHj71927qSZrBS6ValC7fiGtGOl54jvWfnF8gseeasGbuVFZEbC53bvpsV16tC44sVpCJPGAH7Ofdmy68MYzKQ16/nn6ej48XT+6FG6/OuvdOWPP2TO88rvv8u88tlDh2jf8OE06dFHadmnn9LpxYvlN9PSRh1XfvuNLvOx548do119+gj5DuUR8Ob4ePp1+3a69NNPdJmPQblXz52T8y9x3zyzYQOtZWIbyeQ1lPvgok8+oZ+yKH9vv340la9lTaNGdHbfPvn+Al/7rq5dpZxBsJLr1aMjmbTpHLfpGP++1dubzvAANav6pvDgZdUXX0h9OB/l7ujSRZZGwTvQiy3QiXxNO+Li6Hd+39A2s72oG3Pwv/O7ub51axrA7yDmszfZuTdMxkPZyoXLHAOL6XXrZtouPKvdQ4dSXz4Hljnmlx37ikLhLMBZFjxmC2WYX7755qsUEh5G8xfMFRIOCPQREg4ODvjQsBIfP89DIOHpM6bQ7j07aVzCaFls3LtPDyHh23lkalhUaBNuI2EsO+rEo2sEYTkSsEnC51ghn1i+nJLmzKGk2bPT4dCsWbQrIYHmBgRQB355lYjzHjIj4QvcL9axNTebiWQKW8DjH36YxrC1NJqJEv8nsdJGsJaQEB9/FYqdFTw+MXeMqOMDTMLTnnqKdnXsSBdPnKC/r14VwhLBOWxFggwQHLVrwAAaymQIF+k2Pv5PLgtz0vhdiIMJA/PSqA/l/75rFy1l8p3E17KzQ4csy9/Plt90tuo3fvutEBgEvx1kq3PCgw/SJB6QHmKLMqs2/TB9Oh0bNowuZVHfvgzqO8DthCu4Hw9qEniAu79vX4nSlrJw77kelIPpADyHi3zuCi8vcTUPYfK2c29+43uz6MMPaViJEpTAbcuqXZe5XXtAwikBY0rCCncAnGXBY7ZQunRpatLky5Q9hYfS3HmzJfdGULCfkHBYWPBXhpX4+3sfBwnPnDWVdu3eQePGjZbFxj17dZM0XMiJaVhUaBNuI+HWPAKfyaN5WLuOBJxKxPzy//nDD5ni0smT9PPWrTSbR94o07EeRe5GRiQMgYL+hQdgP06aRCcnTqTjEybQ4dGjaWtYGC1/6SX6Y8eOVBK6yhbZaSamw2zRHWVS+ZkHb2e2bKFFbHWOvv9+Wt64MR3l3y9zv0pb/g9sncH1urN7d5rHx/Rhq7sPW24zXnuNTq9bR78wjjBpHWjVio7zgPH85s30959/JhMaE8/+Xr1o6mOP0aomTegYE35m5S/96iuaxAOJjd99dw0pJjFZTmUynF27Nv3OFmZmbfqF27TOw4M2tmxJJ0aMcKk+/D4egxke6a9q2JDOJyUJ2aIcWNK/rFpFx8eOpZNM9r/y+3lq5Uoa++ST4rbuVagQTed785PNezOZCXiWjXb9zO2ax9fSFbkBQMLqjla4AeAsCx6zBeyz0Lhxo1QSxj4MyEIZEhogwVmRkWHNDCvxD/T5CQfMnTeTduzclkLC/SURNUj4VlZ4hkWFNuE2Ekag1SZWBgi8ciRfZyHBW1yWBm/lPWRGwmJVsTX214ULdDUFsKZOTZlC6z/4gM4fPJh6LPrB8eho2vTKK7T0iSdoDmMmEzXmbeFyHV62LC1u0IDObtuWavFdOHKElvHxICS4Z7sXLSqBXLiWIfwCzuHj5z/9NC3i61rGRLKJ/z8RE0NXYdFRcuDYqVmzKJHfq4lsPS978UU6a5KNQ/lDUoKWECS1wcEyPTx4ME1ja3ou14Vo6YzaNJeJcDb/PZqt9YSKFWkZt8+V+kD6U9jqBvEf5YEDXMkQWL8nEhJkbnsC/z6WCXw81zsBS5+QaSslaAz3ZraNe/MD35uZNWrQPD7uXCbtwrOawW3px5YHsntpEhGFuwDOsuAxWyjJ70/DLz6XeCpknZw1e4ZYwhGRIULCUTERnoaVBAb5/Y4D5i+YQzt2bJXE0yDhbt075yoSRjasxTyC/oNfzisZWMJ2ACv69337aEnr1lKmYz2K3I3MSBjWGYjhKuYOU3AJCpyt4hWvvko/L11Kf6VYXiCiP48fp9NsNW9v3lwIaywTVc/8+akzonKZiGfUrEm/bdokblTUgfnV6Vxnbz4GkbmI4EWgUg+2+EYhgIp/Qz2bv/yS9vj702Hur2eYMK9iHhZEc/kynV6xgiY/8giNZAKfw8f/nkH5IHdEPyOAa50VKTLhTX/0UZlXzqhN87hN47hNA9gaxRy5q/UJ6cPy5vtxhq1QcSOzwCW98tNPaWiJEhKtjvNRTnv+GwFW5r2R4DIb9+ZnvjczH3tMkFm78KwQQY4sYqjHXN7k2FcUCmcBzrLgMVsQEm74v1QSnjlrmpBwVHSYkHBsbIy/YSUmCS9YOJe2b9+SSsKdOnfIVSSMoKxe/HLuYYWK4BQrIkZ09G+7d0u2n4zw4/r1YgX35LJQpmM9ityNDEkYrtFff6Uf2DI7zM/34IABtL9/f9rVsyet9PCgydyXN7HyR0IXISHR7n+L1Ywpih/nzaNVX39Nw5i0sIwJxAS38a9pSAvBQJMef1ysOywzAvA33NfrW7akH2bOlGU/l378Udy+V9jKgysVc5qpRLNyJU1kEh7KluIMListyTuWj2jkgUxw6775Jp17GHPCWFqE6OKs2jQGS3uY9Gc5DCrs1gcSnsGW94KnnqKze/cmtwfn84B4OlulPZloQYaSCpNhru91+t6sWkXTeGAxjgl2g59fpu1amfKsOpjR0RZ9RaFwFuAsCx6zBew4+Olnn6aSMHYkBAlHx4TbJ+FtQsKjriFhhF4bFhXahNtIGMCyo/7PPEN7eUTsSMSYD8Y80UxWuAPq1qU+PFp2RO/atakbK5O2PGKJYqXhWL4i9yMjEpbo6P37afkrr0jA0iisQ0UEMRNVX37efQoWpDFMXBuDg+mXjRslwtYMDBIFf+kS/b5nD61o2lTWvvZjS3iaIwkfPEiT+DtYyiAZWHqDSpcWIgQhmYFJ+ATRIBDq0rFjqUQilnAKCcMyRRDUNaSYpnxzYworUgQJj2VyQ6AUAs82ZNGmNc2a0QQmtrl8v1ypDyQ8s1o1WsTvFbJ2mfcb0dFT+HxYwWbWLgDPB65oZ+8NBijwEgzkezPW5rPCnDw8Elgr7NhXFApnAc6y4DFbKM590SUSDg7xP48DsKYpt5NwOF9LTCZEfPH4ccmW1a9OHYphxQJL1xG6uUPeRmYkfHb3bpkvHMpKHJYsLFoQDBJjSEILJtbRIKPnn6ddsbH067p1slbWDACC+/OHZcsogfv9IAQUMcE4Wo5IEALLD+5oyXjFpPHT8uVCIlIGW2tn2FLbHRREm999l/Z99RVdTkkBmSUJm+XzdWOuE3UMsnAPg4RH8yAD12GnTaf5+uBKXsD3Jq072m59piU8nweyZ3ftSg3KwmqEOc89R315MNCe7zFI3Fzni+Qgk2rUcOreiJeA731fbhPKzKpdeFaj+LpQH8hfE3YosgtwlgWP2cI1JDw8PQm3adM6xLCS4JCACzgAmw/nehIGMiNi/oRiWd25M8UXLZr+XEWeR2YkfG7vXlparx6NZ+t3OFthmN+EZde/WDHqX6SIZHTC3G0C/zaTreXVL75Ixzt2pCsgnBQr6yxbelOZWIbw8WIJb9iQSlpYs4pgrZH8sqE8rPedxyRhWoeQP0+dol3INMVEu/zRR+kQW3PomybRgIRB3IOZ5DMqfwQirpmEEFk8okyZdIFSpiXcH0lFmKgQTDUukzaZ5S566in6nS1LZ+s7nBKNPYuv9+clS1Lnav/kdm0LCKCJCFTDumwGsllhm8VRfF3zX3jBqXsDdzQs4UF8b+20C89qMusBbEihwVkKdwCcZcFjtuBIwtNnTBUSbh0bZY+Ely1bTFu3bcr9JAxkQsSYFz4wfbrmjr5BkREJA1Dyh6KjaVvz5rShWTNa17QprWZCWf7FFzSXyXknD842eHnRIiaHxWwVrnn6adrfqBFd2rMnNWIYij0R2a2YUDCPnDZACPOYh9q2lSjjBa++SgvfeINWvv669D8RPv8ycpdzneu5vh0NG9JvCxeK+9QkGiFhLncgkx7KR0IQq/LnvvIKzXj5ZZrIZLv5u+/oT4fArIlMTOOZGLd16EDrPD0zbROIcEH9+jSP79cZJtHUZUFO1AcX/2QG5tqROAMCFzFIfVvLlrSEy1/65pu0kUn50LhxtPLLL2kF3x9n7s0ZJmF4HyZVq0bbbbQLz34Sfw8SVktY4Q6Asyx4zBaEhD/9byoJT5s+JYWEo10j4Q4d2zEJV8udJAykIWIEa2F+CwSMyGe1hG9cpCXhRIfc0VDOcFliowOQCKw5AHOXOxDAdOiQZGjC8pff1qyhXxcsoAvbt8s8JcoAEcDFObpqVep9772SMzlpxIjUJTmSYerXX2XaQxLDTJ5Mq5l4fjOt2RRiusT1nF23TuY8/+Jz/wbRpJQPEkaaSWTyyqr8I9yv59SuTZt5MJGWFJG+cTIT8Iw6deh3tv6zatOPy5dTIlueU/icIyNHOl0fkoPA8kYijUXvv09/cJ0mEaK9uN8Xua3ISY352wsnTtAGEOjzz/9j6du4NyBhBI/NZmK1065T/KxGIDtevnxKwgq3AJxlwWO2ABL++JOP3EfC7Tt8n7tJGOBrQ7BWH1Ycqzp2pH1TpshnT1Y4Gnh1Y8LcRQlzvRPYarpmF6UM5NIPP9Du4GC6wEQj5MHkIzssMQEIQWBpEyt3DOCwP3EfJhvMI/fjl2pZ48ayLM6cixTh+rAU6tScOTT/uedoV1ycEI/MlUJSyscxWJv8++rVMh8qhLhiBY1i4sB8cv9Myr+CNbizZ9NMtgLXO7iH9yN5Blul0+Fe5mvOqk0r2VIdUro0DcX+yy7Ut7d/f8kMhuVbyJy1LT5epn2uphBoWpFpAbZ+V3EZWA+9IzaWLjDJ27k3GKAgIn0mDy7+sNEuPKte2N2J33VN1qFwB8BZFjxmC8W4L958JJwCEG58kSLigoYFrAR840L24r0leZ/d4Q8/TCfZyoM1DDdyRjjN1hjyIR9gCxIZpEASF9hqu3DqFJ1n8sTG9UenTqUlX39NA8uXlyAjRNxi+QvIZ11oKP28cSOdYzLBOajvR7baNrVpQ2MqV5Zc09vbt6dfd+yQ8s5z2b9zmcdnzqTVjRrR6oYN5fzfmPz2T5hAA5jIEASFXYIyK38zlz+O27jwk0/o9KZN9Ae3BXsjb2zbVvIsj3rwQdrZp49k+sqsTYgQR12dmfiHIfWrk/VtYNLtze+W7Nh0zz00nNu8rEkTOj5rluSJRn1SL5f3Kx+/q18/msADBGyYkfDII7StXTtb9+YgW+KjeXCBKHbk5c6qXXhWmqxD4U6Asyx4zBZcJuHOXTpc6tatE61bt4q2MQnPnjOdpiROoGHDBufeOWHFTQ0sR4lla7gTduhBpibsmMREOJGtqLSApTyOvx9ZtSoNYitwOBMQ9uGd/sILNO+dd2jBxx/LbjwT2frDTks9mTSg1M0t9bBNHoi4PxMQ6pjxyis09733aPKzz0qZ/cqWFVJCekYQ3fhatWjWG2/I7kcTnnySRjKZDGRrF8DxI6pVo/5Mutj5B/vhYplTZuX35/Kxvy+W4Qxn63k0E9pw/r4Pf9+JCbUL6mUyxrnTMmkToofNLRRdqq9MGWrLAxNcs2xjCO8TKxy0byLa/PrrNO/992nmyy9TAv8/kK8Jezdju0Pcn0Hlytm6NwP5+aBN2NrQTruEgLFG+D+6laHCPQBnWfCYLYCEv/qqMU2alEDTZyTSkiULKClpPw0dNpA6dW5HXbp1CjWsZMaMKZc3bFhDu3Zto507t9LWrRtp0+Z1tHLlEtnAQUlYkdsAhQsiBkkiwQQsNGRrwlZ41yAlg5O54Tw+8b0QZ8GC1L1QIerKZIHvzL1+xarisgFzY3ksu0E5IIhuBQoIAZr75eIcWWPL54PgUJ5ZprkJvWwBmHINIEIQBza7N9fUZlQ+rHEcb2bmMtsRz9+ZhIiy5dws2oT6AFfqk2t2KAPH4HdY2KivO9eN8jDAiOdzcH04zrxGXE9W9wbtMu+n3XYpASvcCXCWBY/ZAkg4ODhQ+BM8Cj4Fr27atI5WrVpKw0YM4a5qIUrCirwIKF4hSlbEUMYgNkukkJ0J/A9yAIHjU7I8mQTjoNClDiOZ8M3N5tOdk4K0ZZu/4zvzNxP43yQOV8o3y3D8PrM2oY5s1WdRBtpgVXfaNpoDGWfujWP9mbVLyVfhboCzLHjMFpSEFTclTGJA1LQl0h6TApMgTJjfO5btWIfVOdeUm+YYx98yq8Nu+ZnBmTZZneNYXlo4np+2nLRtzqhex+Mcy88MzrRLocguwFkWPGYL7iXhTUrCCoVCobi5AM6y4DFbUBJWKBQKhSIbAGdZ8JgtKAkrFAqFQpENgLMseMwWXCbh+PhWF1u1iqRVq5fLEqXEqZNo7LiR1KdvT12ipFAoFIqbBuAsCx6zBZBwwy8+p1Gjh9PEieNo3vzZdPRoEvXo2UU2cejQoa31EiXrZB39qH2HtnkmWYdCoVAoFNkFOMuCx2zh2mQdg+0n61ASVigUCoUimbMseMwWlIQVCoVCocgGwFkWPGYL7iHhrZtozNhRNHAQk3B7JWGFQqFQ3DwAZ1nwmC0ICX/8EfXt15uGMQlPnaYkrFAoFAqFbYCzLHjMFpSEFQqFQqHIBsBZFjxmC0rCCoVCoVBkA+AsCx6zBSVhhUKhUCiyAXCWBY/ZQq4lYS/+VCgUCoUitwOcZcFjtpBrSbhOyZKkUCgUCkVuxpPFil0FZ1nwmC3kWhKenZBACoVCoVDkZkwdPvwncJYFj9lCriXhSxcukEKhUCgUuRkXz58/DM6y4DFbyLUkTCoqKioqKrlfksBZFjxmC0rCKioqKioqrksSOMuCx2xBSVhFRUVFRcV1SQJnWfCYLSgJq6ioqKiouC5J4CwLHrMFJWEVFRUVFRXXJQmcZcFjtqAkrKKioqKi4rokgbMseMwWskHC/g4kPJJJuC+TcBslYRUVFRWVm0WSwFkWPGYL/5BwLybhQUzCk5WEVVRUVFRUbEoSOMuCx2xBSVhFRUVFRcV1SQJnWfCYLSgJq6ioqKiouC5J4CwLHrMFt5DwFibh0WNG0oCBfamdkrCKioqKys0jSeAsCx6zBZOE+/TtRUOHMQlPVRJWUVFRUVGxK0ngLAseswUlYRUVFRUVFdclCZxlwWO2oCSsoqKioqLiuiSBsyx4zBaUhFVUVFRUVFyXJHCWBY/ZgpKwioqKioqK65IEzrLgMVtQElZRUVFRUXFdksBZFjxmC0rCKioqKioqrksSOMuCx2xBSVhFRUVFRcV1SQJnWfCYLSgJq6ioqKiouC5J4CwLHrMFJWEVFRUVFRXXJQmcZcFjtqAkrKKioqKi4rokgbMseMwWlIRVVFRUVFRclyRwlgWP2YKSsIqKioqKiuuSBM6y4DFbUBJWUVFRUVFxXZLAWRY8ZgtuIuGNTMIjmIT7MAnHKwmrqKioqNwskgTOsuAxW0gm4Q+ZhHsyCQ9UEla58eTvv/+mq1ev0pUrVwT4W0VFRcVNkgTOsuAxW1ASzmEBAVy8eJGOHTtGhw8fpqNHj9LZs2fle5Wcl7/++ot+/vln2rRpE61bt442bNhABw4coMuXLzse6rLgWf7555/0448/yvM9ffq0Er2bJLv3Nrvnq6jYkCRwlgWP2cINR8J46S5dukTHjx8X0jNx5MgRIcJTp06JUgYRQkHntEDZr1y5kp577jl68MEHqU6dOjRp0iS6cOGC46Eqbhb0BSjfNm3aUNWqValChQpUu3ZtiouLo19//dXxcJcFz3jjxo30xRdf0JNPPkne3t504sQJHWi5QbJ7b7N7voqKDUkCZ1nwmC24jYRHjR5B/Qf0oe/bxVO1f5GE4W6EtfPCCy9QlSpVUgEl/NRTT9EHH3xAPj4+NHDgQLGIQIY5+UJiQDB37lwqW7as3JMSJUrQkCFD6Ny5c46H3nCCZ/HDDz/QyZMn6Y8//nDroCersvFM8f3YsWNl8JMvXz4qX748BQYGynN3xhrKqi5817NnTypdujTddttt9MADD9DSpUvdam3frJLVvdVno5ILJAmcZcFjtgAS/ohJuHefnjRk6EBKzOskjJdr+fLlVK5cObrllluuAV7CO++8k/Lnzy8v5VtvvSVW6S+//JJjRGyScJkyZaRtxYsXvylIGCS3d+9e+vzzz+m9996j0aNHu63NdspGP1i7di01aNCAihQpQtWrV6euXbuKN8QZArZT1/nz5+V7DPTwQsHbsX37dqfqUbGWzO6tPhuVXCJJ4CwLHrOFG5KEly1bJpYnygL5Fi5cWKwgEDMs0bvuuku+ByHj5Rw5cqS4px0FLyosZYymf/vtN/nE/46j7bSS9hwoAMAOCWMQgFG9eS5+x/+ZDQ7M+S5c+++//55aZ1bnpRWzXpyHMlAWBg4ZnW+3Tnzfr18/GezgnsfGxorFgvlxnO9YvjP32k7ZuKbExET69ttv6ZtvvqHJkyfLfKBZnjvbgTIxzYF+1KFDB3nejs8XkvYZo07Aqk7HY+30B7vtsRKzLrQJwDuE7/BMUIb5LDIjLmevF2LnmjO7t9l5Nvgex+F607Y5rWR2TE61VyVPShI4y4LHbOGGJ+GCBQtSaGiouKjXrFkjL+PHH38sDQcRw01Zr1492rJli7wMEHz+9NNPMmKeOHEi9erVi+Lj48WSSkhIoN27d8sLlJYg8BLhRdy5cydNmDBBjh01apTUOX369ExJ2KwPgUPjxo2Tc3HM6tWrJZgEL6rjS4p2wqqbN28eDRgwgNq3b0/dunWjMWPG0Pr160XxmO3JSPA75kxRD661U6dO1L9/f5o9ezYdOnQonaveTp04Bte7efNmeuedd2Sgc88999Bnn31GI0aMoClTpsjzMefEnbnXuBa7ZUPZbd26lYYOHSptAgmbHg93twNt2L9/P40fP56GDRsm5O/oXTHvNaxztKtLly7UuXNnGj58uHyXdoDgbH+w057M+gJ+O3jwoPTTqVOnyhwqrgfBbOgXqB99eteuXenqNs935nohdq/Z6t6eOXNG3h9Xnw3OBwmCkOEJw3e4dgw+TcGzwD2YOXOmHDNt2jTasWOH9KucbK9KnpQkcJYFj9nCDU/CcEV27NhRrCt0crwge/bsoRYtWlCBAgXkOnFMTEyMBOvg5cFoGnOHjzzyCJUqVYqKFi0q1jQ+Mep+9tlnZU7ZVLQARrdQ9CB0HINjS5YsSTVq1CAPDw85H9fjSMK4JhCQv78/Pfzww3IOzsVxFStWpJdfflledPPazDZiUPHf//5XjsGxaINZJ+a9YAFmFoCCMkBSXl5eMmcKSwJloEPAa/Dmm2+KcjIjue3WCWUOxfXqq6+K2x/3F4Ode++9V+qAN+L999+XOTxn7zWU6qxZs2yVjevGefB0oNyaNWsKucCicXc7MqrLVKrmvfb19aWHHnoo9RmjXpSF877//vvUPupMf7D7XDLrC2mvH8FrH374IbVr107aYdaPQSTiLEBGeIdMcfZ6Ic5cMwZgjvcWgY64DlefDepOSkqS6SjoCfR3xIqAJM1rRBsRT4BpDJyH8wcNGiTtyMn2ZvSMVHK1JIGzLHjMFm4KEoaFh5Fv2mNWrFghCtF0S7/77rsyGoWAGBo1aiRWNF5yvDR4ufE3jr/99tuFNDCSxugZ5cHifeKJJ8SyRttxDEge5xQqVEjOw/WkJWGMtqHsYZnjhbz11lvlfJwHhYL/77jjDnrsscfEEsE5JnHBxWqWC/c6ygVQH/Dpp5+mtsdRzHqhbHF/UA8sCZyPMnHtuCeIJF6yZImM/u3WCcs1MjJSlA3KRZtxP3A8yBX38e233xYFCXHmXqM9dsuG8u7evbvcVxwHxQxLBVHz7m6HVV3oDyAo3GsEgkHJ416bbcIzRptxn1FW3759pY862x/sPpeM+gIk7fWjDPQFKAZ84nyzT6Pup59+Wixks23OXq+z/dfq3sJTExYWlq1nA69EcHCwPAOci7IWLVokfR0CS7dp06bSDlwjdAXOwxx0TrZXJU9KEjjLgsds4aYkYbwYGPW+/vrr8tLg5cGLg6VMEIyC4RrFSNvT01NG0nDLwXrGi4Ry8RkRESEWGoC/8Z2pDGDB+fn5ydIIjKStSBgKApGb+N08D5Z0UFCQKIBKlSqlvujPPPOMjMBNNyusV1MxPv/88zI3BjcXrC1cN1xvVvPcENQLt69ZLxTRl19+KSP9qKgoUTgIYoNigfKAcrBbJ5QXCBNTAOa9Qrvwe6tWreRZwMIwr82Zew1LwW7ZVsoXFhQIxN3tsKrLJGH81qNHD7F4UCdIF1H6AQEBFBISIhYbrKdt27aJ9eRMf8AzgUvWTnsy6gsQx+tHX4VieO2112QlASxgXAvqwPvUtm3b1Hl7Z67Xlf7reG24t4sXLxYvRXaeDfodXMMgX1wHymndurU8Awwu4HqHTsD133333fJ+7Nu3L8fbq5InJQmclcJdTsMpEm7cuNE3tR5/pNXjjKBgvyt5lYQhGAnDAsMLhuPwAuGlMeceQZKwYDDSxxpjuK8WLlwobikoKZz3+eefSzmwrvAywsLBSwjLDYoCc0o4H8oCRId60pIwRupw+5oDgUcffVQsdKxjxtwS5g1N5YEXH3OJOA9zU5UrV5Z7jDphgcMFhlE6zgPQ3rRz1mkF9cIVZ9ZbrVo1sQIwCAFJNWvWLNUSxTWhDbg3duo0g3kwXwY3H64dCg5WpXmM6QWAOHOvYVHYLdtK+a5atUrm/t3dDqu6TBJ2fMZo04IFC4TkMTeJ3zH/DmXteGxW/QFEg/lEO+3JqC9AHK8flh3W08IbgD6M9wl9BM8C14a+g2t19npd6b+O12Z6NPB7dp4N9ASONd8DECcGQ+h/OBexI+bACdeO/9FHc7q9KnlSkozrRcJNm37NHWc3d8a9FBYeJAfkZRJu2LBhKgljRAyrAsoXZeBlxLwTIiqhkBo3bizLIPBiQhnBosH/UER4Oc2RLlx4sB5BGBAoVxCyeT0mCWPUC+VrKjfzPFwXBC8kiO/+++9PHaljlI+ROkgfVjyuwRxdYxCBwBQEeuDa0YaMBCSHuS7UC2UCRYYBSfPmzeUaYMWjbFwv5gih6FGm3Tpx7QhQwz1FGXARZpQgw5l7DYvcbtkZKV8MNNzdjozqQjl4xua9xjNG29COtHN/+BtwpT9AwdttT0bieP247/BOmMFzuN7//e9/8q6gvzz++ONyH125Xmf7r+O1mfcW71V2no3ppUBwFJQgrgN9ff78+eIlwxwtPEHwCGFZEwgT73lOt1clT0oSOCuFu5yGUyTs6+tJ27ZtEeRlEobCw+gTI1+MgKFYELABcsL5CKLAHB7ICefjBQd5QjmZLxI+EZmJFwzWY9oReXR0dKoyQF0IBDOVhUnCuB6Qvvk9LGXMc8G1bQpeTlwXrg8vfZMmTcSCQnARSAtuTVgtUAq4JihJKBkoTLTB6sWGsoB7zKwX5+EeoI1oKwAr2LQOoCwwL4zrtVunXfJy9l5jwGO37IyULwY/7m5HRnUhXgCWd9pnHB4efs0zNgWDP1f6gzmAsdOejMTx+vHu4Jmb58DSw+AI/QJlw6pDn3blep3tv47X5k4Sxj3Hu2sSq2lNY9oCAZW4bnN1BTwC16O9KnlSkozrRcJffdWIO8yngqAgvzxLwniB4RI0XUSY2/nkk09kxA+YQRTmi4IAJbxQmMeDxWsm/TBJOC2p4eU054ohUOSYXzJ/N0kYygGKzLSg8XIiUAQuSlMwKIAyMEfe5kttunDhXoVyhIsT9ZovN64d7lurQA9zxA5yxfXgHFwT5qkwKHEEAkagfHBf7dZph7zQBmfvtTtI2N3tyKwucz7QPN/qGZuCulzpD7DE7LYnI3G8fkSlz5kzJ3XJDggIXhIzSAl1YOrAlet1tv86Xps7SRiC+/fdd99J28y5XHhkTFc0yoeuAJFej/aq5ElJAmehf7kCp0i4SZMv6N333hYEBvnmKRJGIAl+gyUEEoL7FS8erhMkhGATjPjhesWSAXyP+RvkfMbcE9zLWHaCka5JDIioBjHg5Us7fwk3N8gZLx9eXiyrgWLD9aSdE8YxpjWOgQCWMJjLJKAkMCKHiwznpbWioLBRLpQkXnLMkSHIBwoDo3BcO9xipnvdUeBKrFWrlhyLNsL9bEYOI/gJMHNv43pQF8qxWyeuPe3AA0rGXAJmCo5x5V47DmqsyoZkpHyhvN3ZjszqwvnoG6Y7Gs8YkbXwwpjuaNxX9ElcE+61s/0BfdZue6z6AsTx+qEUEK2N71E3+oE5F4prQyCR2UecvV5n+y/utdW9xXPM7rOBwOWONcRYgoV6QeaIrIbVbw7+zDZdj/Zm9IxUcrUkgbPw3F2BUyTcovm3FBvXShAc4p8nSBgvJ9xGUOpIZ4noW0R9mtYXFMtLL70kxIwXJe25GM0iKhIjYLiaBg8enBoZmdY6A1AmyoKyxQuFOTXMmeGF//rrr4XwUWZaEoYCRXSk6aKCdYpgGyg9jPLN31AflIQZQWkmEYASAmEBcHtizS+ORz1QNmldimkFo3+MvDFgQNloL8oGYeCaoCjQXigLWHK4L87UCQWJBAmmpwH1YP4LEcBQ3rhfUH6u3GsovKzKNuf7HJUvLBFYG+5sR0Z1mYoex5jBPygDShr3Gn0DSh1loa3omyjTmf6ARCS4V3bbY9UXII7Xj/uNa0YbYPEiKAnTBagX/RiR6+gP16P/wtK0urdoS3afDQT9CXO9devWlYEg2mEGJUI5IrIdZUCuR3szekYquVqSwFl4jq7AKRL29fGkxERkmJlEIaGBeYKE8bLAGoYSwXcgQZMsMZpFJDMIE5GwppWFRfj4HaNUjFZBDh999JG8dFbzlHB1I/sR1ifiN7zMIOL69etLWRhdoyxcT1oSBrkhSxFcWLD4ANSB0TbcYua6UlwnLBFzCz4MKGDJIjoT80lIdoGEICgHdaMczD9BMaBNjoJ6kYgDrjWznVAaqBfuMrjn8DfKR2YfKEJn64SFAAsb3+Oe4B4ggvzFF18UBY/fXbnXkKzKNpM8OCpfRLIiO5U725FRXaaihxLu06ePeEJwPsrB78hpjTLgQcE9wPIwKHln+gOCheBNcKY9VuJ4/SbZokxMU2DggHJQN54RslJdr/4LD1ZG9za7z8YUWM+wojEwN9uP64YHA2RpWqfXo70ZPSOVXC1J4CwLHrMFp0g4ONif9u7bJQgLD861JAyrwiRhEyY54gXB6BMvI+aBZ8yYISRqugdhBWL+CzfGJAdYaRgdwzJDpCRG3WmJAS8pCOWNN95IHSUDIHv8D6I3y0tLwqgT7ir8D2WMenCNcHfhE3WjXtQJ0jTT8JluXByDa0EdOM48F4oBigcKzEpQL6xhRG9isIB7grpwvSgHChjtA3E4uunt1mmunTYjnHH/TTcelA8sOFfutd2yrZQvSBjWvbvbYVWXqeihVGH1QvlikGaSGcoA0GYcb0bMO9MfUK+zz8VKHK8f14hrRXkoA9eL7/BMsG7YnGq5Hv3X8drS3tvsPhtToDOws5JpVeM4vANY+2tGP0OuR3tV8qQkgbMseMwWnCPhEH/af2CPID0JD2cS7s0kHPevkrDZ6ZHZB53bBKw+jJoxJ4eUc0gIgZcUo1uTgCF4ITH6xQuIpBUgc4z+cS7SX2I9LSxcvISwGEEkELguMZ/ZuHFj2ToRljfOh/LF6BmJKHAOAo+QTcdc/oG6QXJwayGQAyNmWB4AkgWgDsw1QUHjWFOp43uM1FEPrFhc53333SeWC+bAzfnTjAS/QcHACwDLE9dmegvwiTZg3hzrdeElcLZOPAcMTOC6hKWHY9EmLG/B8g/U7eq9tlM2BjlwB2JeGc8flgoiYeHC/D975wEfVZX+7+xv/7vurmvd2GNdG4LYURERFbtiW3thZcWCiHTEBoIgvYdeVZp0BKWI9N57qJcSeiCQNpn6/s/3TC5MJmdmzpxMYJJ5v36ejzC5c++dkPc895x77kmsP4fqWIE9KOwDCz1g4hC+hm2wHwgBn/u9996TP7P4fkTz84D9R/vvokqwqHChiPW7cYsF+8G/Cc4b9zFxuyBQYNGcr8nPb7jvbSz+bezPgOPh/PHvge1Qp1iD2q7TwG1L8vNySmUsOEvhMS1OSbiHkHB/IeFxpVvC+MGHWDH5xbKsk9iTjHA/BsOrqkXW7aAxRAHjGUz0qjFhwn6gHpMr7ElL2CawmPE+7B+LHKAQ0UDgHqR9TxXvwX7sArWDP+N8IBkULK7U7fVt8ZrdONtB44Njo2HHcTB7E1fyuB+Gz6j74D/2iUYG54ihM/QScV8KQoCs8FnsixSTY+I9OH98H3CLAPu1P5P9fTP9XkfaN84F+8CFFl7HPu0lRmP9OUIdK/DfDNth2BNfw7FwTNyjxs8Kvs+B20fz82Dy7xKcYAlDENgHvu+YE4AhfPwZdaOaOBTN+SLRnHOk720s/m0QbItzwue0twvVRpTk5+WUylhwlsJjWkQn4aZCwtvSJPEq4VgGhYGCUjU84WK/z6SwbOHhmKoGIDD2tuiFmx7Pjr0v+/OGOrbJMQO/j6H2W9zvdbh9q1JSn0Mn9n5w/EjH1f15MPk8doIlHDhki+Pi/+GOHRjd80WKc87BidW/TbQ5U5+XE1ex4CyFx7SIWsJbhYBBIkiYw0mEhJMwh8OJGAvOUnhMi5hIePUaIeGfhlHffqnU9vvWcgUaljCHUzrCEuZwihULzlJ4TAsp4ZeFhFN70KDB/WnCxIgS3ixhCXM4ZSOYo4Dn5zEZDzONg38fMofDCRsLzlJ4TAuWMIeT4IFsMREPs4Hxm38wmx+P4kS6x8nhcGQsOEvhMS1YwhxOgseeMISZ8Jgtj//zpCEORzsWnKXwmBbRS3jrZglLmMPhcDgcljCHw+FwOGcqFpyl8JgWUUt4ixAwYAlzOBwOh8MS5nA4HA7nTMWCsxQe04IlzOFwOByOeSw4S+ExLaKX8JbNEpYwh8PhcDgsYQ6Hw+FwzlQsOEvhMS1YwhwOh8PhmMeCsxQe08JAwpskLGEOh8PhcFjCHA6Hw+GcqVhwlsJjWkQt4TQhYMAS5nA4HA7ndEs4bZOkqISHCgn3EhJuxRLmcDgcTqLEgrMUHtPCL+EXhYS7Cwn3ExIeyxLmcDgcDkczFpyl8JgWUUt406YNEpYwh8PhcDinUcL16tWh4cN/lDT7vBFLmMPhcDiJHgvOUnhMi6gkXLv2e1SnzkeSJk0bFJLwj0LCffr2ojZtWcIcDofDSZhYcJbCY1rYEu4lJDxwUD8aP6GwhFsHSvidt1+nu+66Q9Ko8WcsYQ6Hw+Ekeiw4S+ExLaKS8Acf1KJWrVpKmjZryBLmcDgcTqLHgrMUHtMiKgl//FFt2ro1TRI8MYslzOFwOJwEjAVnKTymRVQSfuut1758+cXnp7/6ykszGzdp4GUJczgcDifBY8FZCo9pEZWEA9O0WcM8ljCHw+FwEjwWnKXwmBYsYQ6Hw+FwzGPBWQqPacES5nA4HA7HPBacpfCYFixhDofD4XDMY8FZCo9pwRLmcDgcDsc8Fpyl8JgWLGEOh8M5TfF6veTz+YJfLhS5TfCLQdHZD6K7HadYseAshce0YAknXLxEPrfAG/yFgPg0tkF09sXhJHY8Hg9lZmZR+r6DtGXbTtq1Zx9lZGSSy+U+uY3X66Ps7Fzat/8Qbdm+k/akH6Bjx07I9xbZT7rYz1aLdu1Np4yjxwrtp9B2YY7HiWksOEvhMS1YwgkRIVWvg3zOg+TLTSPviWXky9lIvvx0UbG5/q/LzcRVs/sY+Rw7/dvkbhbvOSBed57aRndfJ7d1yn34HLvENvv80o5FfKJx8uaJY2aLP2ZFhdcAT7R4s8gdJS4DnFGSb4AjEJ8eeQbkRkGOAdnhIJtsyifx8x2xL6oXt8dNW3bsoLapvejZ92vSg+8+T9Vrvk7Nvm9LqzduEGJ0yZ7q4YyjNHDUKHr54w+pas0X6Klab1PLrl3ke91Cqm63h7Zu3UVtO/WlZ99+n6q88hJVr/0KNenSkpZvW0k5rmx5zjrH48Q8Fpyl8JgWLOEyH9GYuI+TN2MKuTe+Ra4lN5Jz4ZXkWvRvcq95iryHfpZfh9QgSs/Or8m17E5yLrpKbuve8Dp5jy8UwsvX35dswAQQ2LE/yL3uBXItvolcYhsp4mIF+80V4l9H3sMjybu/D3n2p5Jb4BI4C8g/4MchyBPkFpADDqZStiCrgBOC44f8ZBZwTHBUkFHAkcOpdFhwqICDggNH/OwX7CsgvYC9Gam0p4Ddgl0Cq4Cd4Ggq7RBsF2w7lkpbQWYqbRGkFbBZsKmAjQVsEKwvYJ1gLTieSmsEqwWrTvhZWcCKrFRaLlgmWFrAEsHiAhZl+1koWFDA/JxUmieYW8CcAmYL/hDMyvXzewEzBTME0wuYlpdKvxXwawFTHak0RfBLAZMLmJSfShMFEwoYLxjnTKWxgjEBjA5gJHCl0ogChgt+KuBHdyr9ADypNEwwtIAhgsEFDBIMFAwooL+gn9fPQF9fmur7hSzaSS4qnrAg1/Sj6VR/YCO6t295umX0v+imcedSuTEX0F2Dr6cP+n0sfk72UlZONg2bMpoe7vIglf/pErp57HlUbvSFVKlfeWrS9ys6mHGYDh3KoKYt21Gl/z1Kt3W/QX693Pjz6I7Jl9KLvz9Iv+wbTSdcmXJ/kY7Hw9MxjwVnKTymhbGEmzRt6GIJl4IIeXqPzSLXinvJOe88wYXkXHCJ/89z/k6upRXJe3S66K3uFwL+hlwLrxCv/6Ngm/PJOfc8cq9+XPR6t8iep86+sJ3PeZi8B38S21by72/2n8m5rKIQ/e7gM4wu6IVnTCbPyjvIvVgce3Ey5QvyBDlLkilbkCU4vjSZjgmOCo4sS6bDgoPLk+mAYN+KZEoX7BHsFuxamUyWYMeqZNom2Lo6mbYINgs2rkmmDYJ1grVrk2m1YJVghWD5umRaKlgiWLQ+mRYI5gvmbUimOYLZglkbk+l3wYxNyTRN8Jvg183JNEUwOS2ZJgkmCMZvSaaxgjFbk2m0YJRgxLZkGi74SfDj9mQaJhiyI5kGCwYJBgj6CfruTKbeglRBTyuZegi67UqmroLOgk67k6mDoL3g+z3J1Fbw3d5kaiX4VtAyPZlaCL4WfLkvmb4QNN+fTM0ETQSNDyRTQ0GDg8lUX1BP8OmhZKorqCP4WPDh4WSqLXhfUOtIMr0nqCl4NyOZ3hG8JXjjaDK9Lnj1WDK9InhZ8FJmMr0geF7w3PFkekbw9IlkekrwRFYyPSaoLngkO5keFjwkqJqTTFUED+Qm0/2C+wSVCrg7L5nuFNzhSKbbBRUFtwrK5ydTOcHNzmS6UXCD4N+uZLpOcI07ma4WXAk84jXPFfSc9ynaQmnkxS0Xw+S58mjylrFUbWo5qjD9XKo09xJ6YMGVdPfci+iWGWfTg9NuoEnbxtCOI9vpP8Oeo/KTLqCKf5wnt7ln7sV0y7Rz6OHxt9Hv62fR4pWr6PHPXqYKP1xGt844jyrNu5Qqz0+hijPPpwqzzqHnl95FMw9OorGbR0Q8Xp47L/hUOcWLBWcpPKZFRAm3/ubLJFW4J1xa4iVf3k7Rc31TCPF+8litRY91NHm21pOCdc67QMrXd2IxuZbf5ZfpygeEQEeQZ1tjv4iFaL37+8uebeR9tfT3qPd08veU554j9nmWkPD/i42E89PJt/Yh8sz/C7nmJVG+wDE/iXIF2QuSKEtwXHBsYRIdFRwRHFqURAcF+xcnUbpg75Ik2i3YJbAEO5Ym0XbB1mVJlCbYvDyJNgrWC9atSKI1glWClSuTaLlg6aokWiJYJFiwOonmC+auSaLZgj8Ev69NopmC6YLf1iXRr4Ip65NosmCSYMKGJBonGLsxiX4WjBKM3JREwwU/bk6iHwRDBUPSkmiwYKBgwJYk6ifoszWJegt6CXpsS6Lugq6CztuTqJOgw44kaif4fmcStRG0FrSykqhlAd/sSqKvBF/uTqLmgmaCpnuSqLGgkaDB3iT6TFAvPYnqCuoIPt6XRB8Kau9PovcF/xO8dyCJ/it492ASvS14S/DGoSR6TfDq4ST6j+AlwYtHkuh5QQ3BsxlJ9LTgqaNJ9ITgMUH1Y0n0iKCa4KHMJHpQ8MDxJKosuO9EElUS3CO4KyuJ7hDcLqiYnUQVBOVzkqic4GbBjblJdIPgesF1eUl0jeBqRxJdKbhCcHl+El0quNiZRBcJ/iW4wJVE5wvOdSfRPwVnC/7uSaK/ef5EV3gvplRfT8oS/5nG6XLS/M0L6M2ZT9FLi+6n3lZb+vXQGPpuSwMpxrtmX0StVzeheXtnUbXp5ejWWefSmysfpikHR1GHbZ/TPfMuobtmXkLfzvqSZi9eRE07tqbXpz9Bry6rIvc1zvqRXhj+GJWHcMW2nbd8Q7+unxL2eG3Xfk6ZzmPBp8opXiw4S+ExLU5JuFuBhMfo9YQLS3hFgYR7soTjMT6nkOc28uasJ5/rqP8+qujROhdeLiXpTvuQPPsGCtleJnu3nl1txXaHyJe9mlyLbxDb/JPcm/4re7cR97WlnnjfGnJveIOci64h15on/cPbQu7Fl7BPdC/EsZdeSx4hX5YwS7hkJCy+5v0nfeh7n47Q4eAfQu1g2DfXmUvbs7bQlqz1dNx1jLJdJ2jW3l/pwflX011zk+mL9R9Sv/Vd6P45KXSv6N3229WejroO06as1fTYwnJU8ffzqOas52lP5m46cixD7mtr9gY6mn+E1m7ZSM82fp1umXS+3FebLQ1pX87esMdrndaAMl0ZwafKKV4sOEvhMS0KS7gvS7jMBjOYMZmp4L6uJ70POecnCy6W0vXs7uT/O3q94upZDinn7yXXqoekhF1rHj91Pzfcvvb2EHI+TN7jC8TrvcibuYBca58VEj47RhLeSt4lV7OEWcIlKuHzvP+gmt636ZD4r7jxinrxinrB//dmpFPjSfXojpnJcji5947vqeOqFlRpzqVUZcFVNO3QOMoXtbffsZdeWVSVKs46j16eU5UO5KWf3Jfb66YDB49Qm66pdGeD++jmyefIff24N5VyMA8jzPHsbTgxjQVnKTymBUs40eJ1CDHOIfeK+4Rczyb3qqrkO75QiPj7gnu8l5E34zd5L9mXv18I9BkpUNfye8Tf90Tel+gh+2cuO/2zkfPTybWuhv++cCwk7NhB3mU3CAn/iSXMEi4xCV/oPYc+835KGRSbXiN6xRknjlL/2f2pyqSbpFzfWfUorTi6gNqv/orunn0xPbjgGpqfMZ2covYOOvbR24uekNs9O+8u2pfnrz3s51jmCRo2cgJV+d8zVH7oZSf3tTVnA3nkxXHo4wVuw4lZLDhL4TEtWMKJFIj1xGJyr3lCSPNcci0tT96DI8nn3Cd6wu2jk3CIfZEn59Q2hNHr/TGUsAgejdr0GnkWnCMk/CeWMEs45hL+u+f/6Hrv1TTCN5xyCY/dFS8QYmbOcRq5dCRVn3gH3TpTiHXJ7TT14GjZw+2y/lu6Z05RCb+18HEpz+fm3037hYSxn6ysHJowZQZV/+gVKt/3Sqow41x6dql/X3kFtRfuePY2nJjGgrMUHtOCJZwokdJcSm4MDc+7QEjzFvLuH0zkOip7rJ59/ck5/6LQw9Grq58ajg6zL9lbDUjMJexzkS9rOXnXP0PuZdeSc0kK5S9NIYcgd1kKZQuyBMeXp1Cm4JggY0UKHRYcWplCBwT7V6XQPsFewR7B7tUptEuwU7BjTQptE2wVpAk2r02hTYINgnXrUmitYPX6FFolWClYviGFlgqWbEyhRYKFggWbUmieYK5g9uYU+kMwSzBTMD0thaYJfhVM3ZJCUwSTBRO3ptAEwbhtKTRWMEYwensKjRKMFIzYkUI/CX7cmULDBEMFg60UGiQYKOi/K4X6CvoIUnenUC9BT0F3Qdc9KdRF0FnQcW8KdRC0S0+h7wVtBN/tS6HWgm8FLfenUAvB1wdS6EvBF4LmB1OomaCpoImg0aEUaihoIPjscArVE9QV1DmSQh8LPspIoQ8EtQX/O5pCtQTvCWoeS6F3BW9nptCbgjcErx9PoVcFrwheFrx4IoVeEDwveC4rhZ4VPC14KjuFnhA8Lqiek0KPCh7OTaFqgocED+b5eUBwvyOF7hPcm59C9wjuFtzpTKHbBbcJKgoquFKovKCc4GZ3Ct0ouEFwvUd83XMTNfY2oH2UTsV9XliKMy+LJq2bSE9OqkQVZ5xPTy+5jcbuH+q/Z+vOoh+tPnTfvMtPDkc7MBwtpPvi3MpSwq8trCZlnZubRzNmL6BnP32LKvS+mipMP4+eEXK194VzjXS84n4ejjIWnKXwmBYs4UQIhoZPLBPSrCFnO2PWMqQLyfrElbHPnUneI5PIiceT7IlZzsCJWWeTe+Pb8rVI+8IQdaCIYy5hBCLG8cT5+U4sIu+JhSfxFOAGWX5cINuPs4D8IByCvCByBTlBZIOcU2QJTgRwvIDMAI4FcDT3FBkFHAF5fg4XcCiIgwUcKGA/cBRmnyAd5J9ir2BPELsFuwKwAnEupJ0F7AhgewDbXAtpaxBbAkgrYHMg7oW0SbAxiA2C9QGss/H4WStYE8TqAlbZeBfSygBWBLC8gGXA52dpAUsCWCxYJP+8mDb5NtIR8Z+HijdsC+FhYtaMrb/Ss1Pul9J8eO6NNGxHKlmZO8XPwzHKyDtCvx+eLHvBeKSoe1prOQlr5eEl9Mi8m+i22efTpyvfoPQTe2jB0uX0cuP36Nbe19Atv50jvz5sR2/adXwnnXAcJ4cnj3KcOWGPl53vv2fMiWksOEvhMS0g4ZeEhHv26kYDBkYh4cLPCa+gH34cSr379KTv2rCE4ypYhCNnvVwwQz4uhJnOG98gT3pf8uAxpIMjpYAhNPeK+6Us/Y8oDSfPtkb+R5RED9mb3pNIyDryviYXGpIuEQnL+ORn8y+b6VLiiyO8cYYnjnCroNMP/nOL/4rzbHBg3F4XrT64jF6a9hCVn36OnOn88pRHqOkvDajl1G+o9bRvafCKvrTu2Ep6eXFl+YjSw1MqUPMJn9Nro5+jijMvkJOphu3uRRt3bqZ3m39Kt/a6hm7+9exC+2r1W0tKXdqVft03jhbumxP2eENW9KcT+VhQhxPDWHCWwmNaFJHw+CAJh3pOmCVcOiKHmtN7k3PBpeT840+C/xNiPVfOZHbOv0SC54N92WvlfWHXoqtlz/fUYh3nkHvVQ0K+G4TvMBNaY18Boi05CXM48R08HtQ/rSvdO/tyunnWWVTuj7/Rbb+fT3fOvIjumnmxpMaieygtax31tzrSwwtvkCK+c8ZFdOsMsd2cf9HbK6vT5hPraM3WDfR0+2fplknnKfdV6Y/L6ImF5anV2oYRj7cvj2swxrHgLIXHtIgk4e++a/FFkirBw9Es4fiMz5Mth4tdy26Xz+2qcK2sUrC2c7qcJS1XxMLrctnKV8ibOVsOM9v3jiPuK2ACFx5Xcm9+X+yrXIyWreRwSkdyRO2NSh9ALyy7hx5ddKMSLM6xT1yYHhJ10X9XB3ptxYPy9SeWVKD6G96kpcfmUr7HQZmOTBq0pSfVWHJ3kX3Y4DjdtreMeLz9+XuDT5VTvFhwlsJjWkSScMjhaJZwKYn8pQzHZQ/U57DUoCgLfhuSf9td5M1eQ768LSR/gYO34Bc4RLOvk8f3+O8vS8nH8Bc4cDhxHtx7zXafoP2OPZQufv5VHBAXvm5RE9g2S9QWhJyWvY525m2lI86D5MIcDPGfzr7wtUzX0bDb2MfjxDQWnKXwmBYsYY4iBfdbeSYlh3OaA+F6pHg5pSYWnKXwmBYsYQ6Hw+FwzGPBWQqPacES5nA4HA7HPBacpfCYFixhDofD4XDMY8FZCo9pwRLmcDgcDsc8Fpyl8JgWLGEOh8PhcMxjwVkKj2nBEuZwOBwOxzwWnKXwmBYsYQ6Hw+FwzGPBWQqPacES5nA4HA7HPBacpfCYFixhDofD4XDMY8FZCo9pEUMJDymQ8LcsYQ6Hw+EkSiw4S+ExLU5JuCtLmMPhcDicKGPBWQqPaVFUwj+zhDkcDofD0YwFZyk8pgVLmMPhcDgc81hwlsJjWrCEORwOh8MxjwVnKTymhZTwSy9Sj55CwgMiSPjDD99/7X+1ano//fRjatK0gdzAlvCwH4ZQau+e1Po7ljCHw+FwEiYWnKXwmBaBEu4vJDwunISrVK7UYvHiBZSVdZy++LIpS5jD4XA4iR4LzlJ4TIuoJFxZSPiHH4bSpEkTqNnnjVnCHA6Hw0n0WHCWwmNaRC3h2rX/R0899QQ1blKfJczhcDicRI8FZyk8poWBhGvRk08+To0as4Q5HA6Hk/Cx4CyFx7SISsK4J9ykSUN6//1aPDGLw+FwOJzTKuEq97Xo2LEdtW/flpo2a8gS5nA4HE6ix4KzFB7TIioJV61aucWwHwbT+AljqNnnjVjCHA6Hw0n0WHCWwmNaRCXhakLCkydPoGXLF1Pz5k1YwhwOh8NJ9FhwlsJjWkQn4WpVWsz8fRpt255Gzb9gCXM4HA4n4WPBWQqPacES5nA4HA7HPBacpfCYFlFL+HeWMIfD4XA4diw4S+ExLaKS8COPVGUJczgcDodzKhacpfCYFixhDofD4XDMY8FZCo9pEZWEq1eHhKeHkXAPIeGWLGEOh8PhJEosOEvhMS38En5BSLiLkHCf4kh4MEuYw+FwOIkWC85SeEwLMwlvYwlzOBwOh0Ms4cjx+XwMU6Y43Qk+PsOUdmIYC85SeEwLIwlvLSUS9nq9ErfbTfn5+eRwOBimVIOfY5fLRR6PpyQakyLhGmLKGiVQQxacpfCYFpDwi0LC3XsUQ8KrVq+gocMGU6/UHtSqdXxIGN9gp9Mpv+l5eXkMU6awGxTIMQaNiDJcQ0xZJoY1ZMFZCo9pESjhfv370NhxZUDCaDy44WASAfycQ5TorcYyXENMohCDGrLgLIXHtChzEubGg0lE0IgU82r+ZLiGmESkGDVkwVkKj2lhKOHNcSlhbjyYRAU/97jPZdiInAzXEJOoFKOGLDhL4TEtyoyEMZSAK5ngbyzDJApoRCBR03ANMYmOYQ1ZcJbCY1qUKQnzFTyT6BRjSI1riGHyjGrIgrMUHtOiTEgY3zDMcAv+ZjJMogGJRtmAyHANMYwfgxqy4CyFx7SIJOGmTRs56nxcO7NWrXdHxLWE8exX8DeTYRINNCAmszy5hhjGj0ENWXCWwmNaRJLw3Ll/iHPKpU8++YjiWsI8jMYwxve0uIYYpgCDGrLgLIXHtIgk4alTJ9Pu3RZ9UudDljDDxDt2AxLlcBrXEMMUYFBDFpyl8JgWkSTcpGlDqlPnI/rvf98OkPBWljDDxCMGDYgM1xDD+DGoIQvOUnhMi0gS/uDD9+n555+jd995kyXMMPGOQQMiwzXEMH4MasiCsxQe0yKShL/4oik1bPgZ1XrvHZYww8Q7Bg2IDNcQw/gxqCELzlJ4TItIEu7YqR317NWdatd+jyXMMPGOQQMiwzXEMH4MasiCsxQe0yKShH/4cSjNnjOL6nxcmyXMMPGOQQMiwzXEMH4MasiCsxQe0yKShCdNHk/btqdR3bqBjygVkfByIeFBQsLdhYRbsIQZ5gxh0IDIcA0xjB+DGrLgLIXHtDgl4c5Cwr2FhEcrJfxp3Y9ZwgwT7xg0IDJcQwzjx6CGLDhL4TEttCX8aYCEt7CEGSYuMWhAZLiGGMaPQQ1ZcJbCY1roSrieLeGZLGGGiVsMGhAZriGG8WNQQxacpfCYFlLCL75A3bpHkHC9SBIeOkhOo27ViiVcFsjJzaHDx4/QwcxDlJ2TXeTrIDc3lzJOZNDeo+m07+g+yszKlK8F7+eI2M+h44fkn4P3wcQWgwZEhmsoOvCzfEjUxv5jB4pwMPMgZWYfp9y8U7XAtVJ6MKghC85SeEyLQAn37debxowNJeE6LOFE4UTOCdq0P416LexDHed0oZ2HLdEoFG4w0IDszdhLQ5YNo08nN6AmUz+niet/kQ2I3fhgGzQ4A5YOpr5LBkihBx+LiS0GDYgM11B0QLad5nWlL6e1KMJ3s9rR/B0L6bgQMbblWildGNSQBWcpPKaFroQ/q/cJS7i45ORl09G8fXTQsUOwnQ45LDrs2C1fO553mLLzTojtCsvudGJfrc/dPp/eHFWTUtr/m8p3v5OWWMuK9IZxxd538QC6vWclqjqgOt3f9yG6TzBl46+yF4BtcLU/ft1EurfPg/TFtG9Ew7W/yDGZ2GLQgMicqRqK95pQAXFu2LeRKva8h65ofx3d1LUilet2+0lQC0NX/ChrCdtzrZQuDGrIgrMUHtNCW8KfsYSLRU5eFu12rKHx7kbUw/sIdfM+QP08z9IQzxvytTnOHrQxfwbtc6RRRl46ZeVlFhrOKmlwrMPHD9PoNWPp4YGP01Udb6BzW11EV3e8kRbuXFxEwugdv/jTq/RQ/+o0a+sceWV/R697qd4vDSldXNFD6FsObqXXR74jG5Y52+aJHnZWkeMyscWgAZE5EzUU7zURCtQCauLGLhXoiSHP0Q8rhtOE9ZNPMnXTNPmzn1VQM1wrpQuDGrLgLIXHtGAJlxQYvs3JkTgEGbl7aKzrM/rKdyk1pL8K/kKN6G/UxPcPauY7l77wJVML35XU2Xsf/eyuS6vyx9J+0figN5CbV/L3h9BgLLWW0yMDnxQNxH30pbgaf2Lws6KhuVUp4U37N9NdqZXpw/Gf0J6MPbTt0HZ6QTQ0Tw97gXYc3klHRC9gwNIhsrfwzYxv5VBb8DGZ2GPQgMiclhoqZTURCgwz/ypEe3O326ju5AZSsujJ2uDr2au1wb4AAIAASURBVLmn6oVrpXRhUEMWnKXwmBZmEt7CEg6J3dBkZ5Ej68RJDuakUTdPZdnQfEZJIfgTNaD/R01959A3viuol6c6zRa9gb2O9aLhOVKivQDse29GOnWZ111cqU+m1XvW0Csj3qSbuhaVMCaNrNi9kir2uJua/vqFHDrbLRqX/46pTQ/2f5TSDmyhdenr6amhNajagMdpudg2WOJMyWDQgMiUaA2V0poIxbGsYzRq9c9Swt/MbEUHMg8U2caGa6X0YVBDFpyl8JgWuhKu/1ndAgnPZAkryfVf3TuCGhqbw9lbqLf7CXGlf5aioVHxJ7HtX0Uv4RLq6XmEFjgH0AHHtoJ7ZIrjxwB7xieu5q3Du6SEb1RIGMNnq/eukVfuTaY2p30FDcs7P9eS97xW7l4lJ3TdKhqe72d3lI3M1oPbaNeRXf5ZoWeg4UwUDBoQmRKpoTJQEyrQc+23ZKCsja9Fz3XN3rXy53vHoZ1y9nPgzGiuldKHQQ1ZcJbCY1poS7g+S1iJo+AqP1RDY3M8ez/NdfSgNt6b6HPfBXK4rYnvbNkANaA/Kxqcwg3PN74U+sn9X9qSP+e09AB2HdlNrwx/M+Rw9JYDW+Xkknd//p8cUsOQ25NDnpNDbJPW/0JVxVV+9UFPU/cFveg/I96gKv0eptdGvi0no6AnEXw8JjYYNCAysayhsloTNpg70X1+L7qyw/Vy4qI92erxwc/SRxM/pV82TpWzp+1HkLhWShcGNWTBWQqPaaEl4W0sYTW40s/OLtK4nASNEL4uyM3JoozcvbQmfwL95mpNY931abi7FvX1PE3tvbfJoTY0RGiA6otGJrjhwWtopLp6K9NS509yokqk+2IQ59ETR+UsTZvM7KLPJ6qIJOE9GXvp/XEf0z29q9CIVaMpdVE/qtD9LvpwQl2qM/EzeWXfYmZrqtL/EarUpwrVHl+H7utTlR4f8iyt37eBn4MsIQwaEJmY1VCc10QooqkViBGTqzCEDN4Y9S69+NNrUsTXdrpZ/OzfRb1FPWBUCdtzrZQuDGrIgrMUHtOCJWyALExc6WeFuNJHQ4N7YCgebFtQyLhSxwzPY3kHRYOxj47k7aFDjp2U7thEG/J/o2mu76iP50k5GQU9gvr0f0V6AJjA8p3vRvrd1Uk+zhGq0UGjsvlAGv24cjj1XzpIMnjZUJqeNlPr6jqShNFA4Yr/wf7V5f0uNDwPD3yC2s3pJGd+vjz8DXl/GY1NhzmdaW36Ouo2v6dscH5cOYKOZh0tckym+Bg0IDLFraHSUBOhiLZW/I/yHZW92p0C1Ip12JLDzq1nfS97yBAu7gVj31wrpQuDGrLgLIXHtNCVcIMGn7KEJaIAHTm40i/a2OThCl82NEWvnsOTK+9roSHa79gqegYT5TDbt75r5GzR4F4Ahupa+q6WvQc0WKpG51hWpnxcokq/R+iWbrdLbhcFX3dSAzkBK3j7YCJJGI3nkRNH5DPFvRb1oX6LB9LkDVPovbEfyOP8tGoktZvdSTYkv22eLnsZc7bPo4o976a2f3TgxQhKCIMGRKZYNVRKaiIUxa0VG/RYN+7fTM//+B+6rlM5+bgfJM61UrowqCELzlJ4TAuWcDSgIVENtYmrfDn7M+qGpih2zwANyUrnGOrneUY+qhHcA8DfW/quoumudnJxg+D7YVk5WXJBAazA031BqiR1UV9xRf6rLPLg4wYTScL2uWJ1LSxGgOcdx6wZd7LxwgSTb2e1kVf+87YvoBPZJ2jVntVygop/MYLQM0oZcwwaEBnjGipFNRGK4tZKIOlH0+UQ83Wdy1Gfxf1lbeB1rpXSg0ENWXCWwmNa6Eh4a1EJb0pICcuZnsGNDeRUAvds/A3PMdrjWEeTXV+KHsC18lGNwo3On6mV7980z9VP9hgCVxaS7xeNC2ZyYiIJQAMgr8w1GkYdCZ88Vq692MC7crGB2Vvnyoam09yusmGZmTZLHnfhjsXy79/+3oYOZOJ8i+6LKR4GDYiMaQ2VppoIRbS1gtcgyuCv2XXw8vDX6frO5eUKWJjhrNqGayV+MaghC85SeEwLAwlPS0gJOzDhJHi4TYqpaJHGEgyrHXbsogWu/vS971Z5/6vwMNxfqL33DlqX/6vsLQS/35RoJIzGa9CyoaLRuEc+soFGBT2In1aOlENs6FXgsQtsg/teeLwD7wneD1N8DBoQGZMaSrSasIEk526bL3rPG+TjRnj2F48eYRY0Jl1d26kc3d+3mujhFp1UxbUS/xjUkAVnKTymBUtYBznjs2hj4yjhxsYGV+pH8/bTUudwOWs0eHGDxvQP6u+pIXsI0dwLC4eUcIjnhANBI4OhvKeHvkAPDXiMlu1eIbfF62v2rhOvPS4fv2jzRzt6bPAzcgbpsl3LQ+6PKR4GDYhM1DWUgDVhs1vUxrs/v09V+1en98bWps9/+0o+A/zyT6/TDV0qSHn2XzLo5FC0DddK6cCghiw4S+ExLWIo4YFCwt3KnoQx6UTR2JT01X4waHSO5R2gRc4hciZo4HOUmKType9i+s3VSi58H4tzw299qTOxnpzFiQUFskMML2Lm5qjVY2SjgeccAyeRoBEasvwHuTIQFq+v3K8a9VnU/+SjG0zsMWhAZKKqoQStCRv8jHed14OeHFKDKvS4i27pfod8Xhj3eF8d8RaNWTu+0HPCNlwrpQODGrLgLIXHtDgl4U5CwqlCwqNYwoEUueeFCSchhFTSyFmWeXtppqsDfe27vNAMUdwbayd6BGn5syknBisIYe1brHO7/dCOk7+STQWu4nEPDdsdEv8PHH5DI4RZoRv3b6S52+fJXgC2DW6cmNhh0IDIRFNDiVoTNvgZh0CxBvRiaynNSPud5m6bR+vFzzdWugp1L5lrpXRgUEMWnKXwmBZRS3iGkHBagkgYK/8UuuclZ3ye/iv+QDC0tt+xhX5yvyfX0w0cgmvmO4/GuOvREceeIu87k6AhwcQXblBKHoMGREa3hrgmCoOLVUzSkj/fMfgecK2ceQxqyIKzFB7TImYSHlIg4W/LioRRBEGPXuDvsXjkorjg+Ulc3bf33l5odihmhrb13kJb8ufJXxMX/D6m7GPQgMho1RDXBJMAGNSQBWcpPKaFLeGu3aKRcNom+ry5QsI9y5CEFUNumA1aZLszBCal/OZsRc19/yp05Y9l/qa4vpb3yoLfw5R9DBoQGa0a4ppgEgCDGrLgLIXHtCgk4b6p9PMYlYQ3B0h4RmJIOPi+V7xc8dvk5GWT5VhBHb13FbryxyzRbp4HaZ9jc0yGx5jShUEDIqNTQ1wTTCJgUEMWnKXwmBaRJTzulIQfeSRBJIz7XsGzP+Poit8Gsz4nu7+Q971OXfn/SS58vzp/fIk8I8nENwYNiEzEGuKaYBIEgxqy4CyFx7RgCasoMuwWX1f8NrgPtiF/ulwzN3BW6Oe+8+kXHn5LSAwaEJmINcQ1wSQIBjVkwVkKj2kRnYSrJaiEc+Lvit9PLh1wbKVenury96vaDU5j+hv19zwvf6NM0fcwZRmDBkQmYg1xTTAJgkENWXCWwmNaRCXhatWqJICE7d8IUxoanDz569/GuRvI36tqNzhYyL6N7xb56+DO5KMjzOnHoAGRCV9DXBNM4mBQQxacpfCYFizhYDDEFtjYCM7UQgQ6HM/LoPnO/vSF76KAe2BJ9I0vhdLy5/JjGQmGQQMiE7aGuCaYBMKghiw4S+ExLaKScNWqlVtMnDiOFi9eWHYlHDzsJlcDit8r5+y847Q+/ze5WlBgg/OV7xJa7hxJJ/KK/lJypuxi0IDIhK0hrgkmgTCoIQvOUnhMi6glPGjQABo1agQ1a9aoTErYvyJQYIMTnxNQbLBa0C7HCmrhu6pQg4PftzrP2Vf0CgovIs+UbQwaEJlwNcQ1wSQSBjVkwVkKj2kRlYSrVLmvRZs2rahFi6+pSdOGZVLCpe2qH+D5R/xuVTyKYTc4WLBglqsrZeYdLrI9U3YxaEBkwtYQ1wSTQBjUkAVnKTymRZQSrtSibt2P6ZVXXqbGTeoniITj+6of7HOkUWvvjYUeyWjuu5BmuNqLBod/C0siYdCAyIStIa4JJoEwqCELzlJ4TIvoJFy5Uos333yNKlW6mxo1/iwhJJxXaq76r1Nc9Xfhq/4Ew6ABkQlbQ1wTTAJhUEMWnKXwmBZRSbiykHD9+p/S22+/KXrCDcqkhEvn/a+VfP+LkRg0IDLhaohrgkkkDGrIgrMUHtMiooQnCQlvDZDw+PFjaeHC+fR588ZlUsJoXAo3OPF91e9fIWiaciboMucI7Zmg8leoZWVRTpw+/4nzOnToEO3fv1+eZ/DXcf5Hjx6lvXv3ym1MPkcs9hFMSewzHAYNiEzYGkrQmmASE4MasuAshce0iErCNWo89XX/fr1pzpw/yraEA9fIjfMGB89ELgj5TCR+mXlRYdlAEMeOHSPLsmjdunU0f/58WrNmDe3YsYMyMjLO2O80hagyMzOlbO1zOHDgAHXr1o2+/vpr2rhxI2WjNxbwHnyOqVOn0ieffELffvutFF7wfiMRi30EUxL7DIdBAyITtoYSqCYYxqCGLDhL4TEtopJwjx49zn3rrde+fPrJ6i2aNGngKirhrvKNpV/CpWd1ICxYP97dKMTqQBsp1OpAkBvENmbMGHrhhReoXLly9O9//5tuvPFGevzxx2nQoEG0Z8+eEu+5BYPj4biTJ0+mVatW0YkTJ+S5btmyhapVq0Z33XUXTZgwQUo68H2HDx8m8fNJ11xzDT3yyCPyQiJ435GIxT6CKYl9hsOgAZEJW0MJUhMMAwxqyIKzFB7Twi/h54WEOwoJ9xISHhlawoFp2qxhXpmUsCjQ3Jws0Qs7SIezt9KBnE2Ukbs7Tq+esU7uNkr1PFZondxG9Dfq53k27Dq5GCL98ccfqXz58vKH4LbbbqOnnnqK7r77brrooovo+uuvp65du9LBgwdljxS95Z07d8qenT10bb8GIUKe6D1j2BWi2bZtm5Sp3aNGzxXb79q1Sw4r433YBtvb+wT4e69eveR5fPnll7R27VrZe0xPT6cOHTrInvD69evl/nBc7G/r1q3yte+//54uueQSqly5stw39hfunECkfeB7hc+6b98+2r59u9wOnyPUSEFJ7DMaDBoQmfA1lBg1wTDAoIYsOEvhMS1YwkHg940eyz1ASxxDqK/7SWrvvY1Guj6kXY5Vcdfo4N7XpvyZyt8YM9n1pfwl58HvsUHj/9hjj9F5551Hzz77rPh3nCdFtXTpUnr77bfl6xDhypUrZS/0xRdflNvNmTOHjh8/Tps2baLnn39evrZgwQIp1vHjx1OdOnVkj+++++6jmjVryh41JArpvvrqq/Sf//xHSgnCv+eee+iDDz6gKVOmSBFDQrgwQG/373//O1111VVyX+3ataPVq1fT008/LXvDv/32m7w4mDZtmtznHXfcIT8L9n3BBReclB0uNMKdE44ZaR+Q5fLly0UBNKAHH3xQnhs+99ChQ+VIQrA0IeBY7zMaDBoQmXA1lCg1wTDAoIYsOEvhMS1iJ+EhA6mHkHDLb0u3hLHkHX4VWjtvRXn13ID+TF/6LqIx7np0xLGb4mkoCw3KL6JhQQNz6t6X/3enrswfG/J3p6IXuXjxYjlEih+A3r17y2FTfA0SwXDvpZdeSpdffjmNGzeOVqxYQddddx2lpKTQxIkTpdwg52uvvZauvPJK+vXXX2VPtWfPnlSpUiUJBIseNX4WMLSMHi2Guv/xj3/I/aCnjWP861//oho1asiLAvQMmzRpQpdddhn99a9/lfuuWrUqtW3bVl4c3HDDDfK9I0eOlEPV9kUEjoNzufjii+mss846KTt8plDnNGnSJCn2SPvAeb3xxhvyXG+66Sa699575Z8rVKggvxeBw+IYDcDFSSz3GS0GDYhMuBpKhJpgGBuDGrLgLIXHtEAb/IKQcJeuHalPcSQ8uIxIGA/y/+7qLJ8pDLyf9J33RjnjEg1S8HvOBLl52fIxjE6eSqJR/H8nz7Uh/YW6eh+Qvy0GPZjg9wH0ZCFGyA788ssv8jV8DSKB4CBASKRfv360ZMkS2SuFKNCzhIQhZmyD96Mni14sBIT9/vHHH/Tzzz/L+8zYB4aRly1bJoWEHi56tDhm586d5Q8gLgbQE8c54NiPPvqofF/9+vWlKNFrxWQsvB/nMGTIEPrhhx/oiiuukO+HpLG/5557js4555xCPc5Q59SqVSvZIw63DxwT77366qvlezAxDBcl6P1DrJ999pm8+LC/r+hZ4xix3Ge0GDQgMuFqKBFqgmFsDGrIgrMUHtMikoQnJpqET+Rl0CLnYPrKd6m8grYLuanvHBrl/ogOOXbFRSHjin+aq6189jHwPOUvL3d/FXbYDZOdMKQLgUJqgb0vSBjChGBxH/Onn36SvdBACUO4eC1QwrjXOnr0aKpbty49+eSTsueJ3iCGYVu0aCG3h0Tx99atW0vRQO7o2QaeA4atn3nmGfnaN998I4dncV6bN28+KeEBAwZIsUNi6B2jV45eNIa5ITJbwhiyDnVOjRo1kucRbh+YKZ6amiqLBD1ZDBvjdZwH3vfmm2/S7t3oCfq/r/YkrFjuM1oMGhCZcDWUCDXBMDYGNWTBWQqPacESDgIP+u9xrKNuniryCjrwyr+V73pa5Rx/xp8zxH24LfnzqIP3zkJX/PXpz9TGW47S8ueI3knoe3UQLQSBIWYMB+OeK3qb9kQm9DIhYPTWcL8XvVH0VvEahoIhRnvIGhLGnyFRTO7Ca5Doxx9/LGdbY/+QKYRrD80OGzZMHgeTlmy5ozcYKGEc66uvvgopYYgN0kLPFvvBPWkIEF+3e5wYJg91Tg0bNqSWLVuG3QeE2b17d7n9P//5T9mjxf3yt956i9599115IWCfH4CEMZktlvuMFoMGRCZcDSVCTTCMjUENWXCWwmNasIQV+IffOsn7XoFX1I3pb9TX8xTtdqwWRV/4OdXTBRrEA46tNMJdu9AjGAB//9ldl4449lCk+3SQHSZboWd4//33S5FCXL///rscLsbrmASFmbtpaWlSZhAHxAgxN23aVG4DCY8aNYrat29/cmgZQkWPGfd9L7zwwkIStkWOIe0NGzZI0QdKGLOKMZEJsv7oo4/kBQB6zYHD0YMHD5ZDyXZPHhOaFi1aRLVq1aLzzz9fyg7v69KlS8hzwr1n3AsPtw+c39ixY08OzWPoGNtgpADfA5xT4MIh+EzDhw+P6T6jxaABkYlUQ4lQE5GwnwoozmN7eC9GR/Bzjp/r4OfddYi0cA1TPAxqyIKzFB7TgiWsAEW927FWXPk/KK78Tz3mgNmWX/j+RRNdTeigY4fcLvi9JQmG/DLy0uX9OUw0QU/EPjdMlvneW4E258+SM0SD3xsM7l9CBhUrVpSCQI/09ttvl8LC/UtMEoJE0GPFUHPt2rWlNCAXzPqFRDDJCpO3IDfcC0XPGmKGxKtUqSJFGtwTxvvDSRi9QAxf4zXs+4knnpDix0Qy+/0QHfYHqeEccC4Y1sVnwD1nuyeM3nmoc8I+586dG3YfGNLGBQieo0ahQOC4cHn55Zfl5Cs8Y43PYX9P0TiipxvLfUaLQQMiE6mGEqEmVEC8sVrQBj8fuKj9/PPP5W2H7777Tgo5eLtIRFq4hikeBjVkwVkKj2nBEg4B1pfFOrMtfFcWKmz8uaXvKtkrwNX16boXJh8TyTtIS50/UltfOdnAFG4IL6KprpaiQUJRRz4nNB64moaoXnnlFTl8iglFmJWMniIaCNybtJ97xWM3aDhuvvlmKW4MoWIo9YEHHqBZs2bJxgWTivA1PHuMr+ERHIgHE7Aw4QoShJQwMQkNG2SEr+NRKAwdY2IW7ldDjugNQ1C4MPjiiy/kIz32+zGzGb0IPM6E1yBn7Ae92zvvvJNeeukl2dNHwxnunLBNuH3g/TgnnA96s9gH7vXie4WLgxkzZpyc0GZz5MiRmO8zGgwaEBmdGirrNREMfvZjuaAN6g2jM/iZxkUXfgbw8x68XThwTpEWrmGKh0ENWXCWwmNa6Eh4SyJKGAV+0LFdTjz53HceBQ7Bodhb+66nua7edNixu8Sv/u3GZoVzNHXw3lHovhxoTH+nPp6nZU8lJ4pzCVxYAvcv0UOFLNATRs8Rk6nspSOxHQSCXgCuviFo/B09OwgVV+NYFAP7wVAwegq4ysfX0ZBBLPgzZG33ILBv+zX0/vAawLYQJGZgo7cM4Qa/314cBA0SBA2h43j2whc4H2wT7pywTaR94HzQUKKxxedGjxz30+3PHdwTsu+rx3Kf0WDQgMjo1FAi1EQgsVzQxu5NN27cWF4Y4t8cF2x4DfWHfWA7/Jzg7zg2hpvxOBt+bgOHnvHn4IVrVIu/YJ+oAXw98GvYP45t/5xhG8xnsBeYwfHsmivOz2JpxaCGLDhL4TEtWMJhwGSP7Y7F1N1blRrRWYWKHJM/0OhMd7WTK/SU1P0wNGZo1DA7FYskBA4F2ueB19fl/1KsZyBRbChaTJrCUDQaGDQWKMzAQkTBhitMfE23ZxCJSMcC9vHCbRfpnHT2YW9nyz34a8GUxD51MGhAZHRrKJFqItYL2mByYfXq1eUCLXg6ARdoWNQFvWLM1MdICHrJGJmC/DHvAs/Jo9eL0SBcSEK2OIfAhWsgVFzwYcY/tsftIhwXK89Bvjg/yN/+Gvbfv39/eYGKnztcDGJ4G6/jmXX08jFxEZ8z2p56WcCghiw4S+ExLVjCEcDjGSucP1M7X8UiV9u4+sd9qJ/dn5DlWCEXjo/dUFyubED2OjbQFFcLOQs1cNYnwDAgfmfqXFeq6BVgRm3xjg0h4Cob93jxGA1mSaMh4ntOpQeDBkQmmhpKhJooiQVtcE/ZXnAGj85hVClwARsMdeNW0Nlnny1vDWG+BPaJORv4OpZxRX1C3vZ+MCkSo0Wvv/66nO+Ac8ItI8gct5RwDriNhAmR+Jr9fDoWicEaABAx5nPgPHBsTNLEynIQPCYMJuLEL4MasuAshce0YAlHwD/sdUBcdQ+hNr6blUWP5xB7eKrRQucgOUsTj2uYNzy5cvGDww6LVjsn0gDPC/Sl72L5qEXwcXFvbprrO7Ft7J7ThIgxdIara2APRwdvx8QnBg2ITDQ1lAg1URIL2mDVuMDJiejZ4u+YtIf5CpB3vXr16Nxzz5W9bPRG8T70evFsO+YUYGQq8HE9TJ6ERHFsTDiEeHFcXEDgeDgXiBcNPZ5gsOd2QLjYLy4McIEBgUPUbdq0kfMSZs6cKS86ErH2DWrIgrMUHtOCJawBihmTO3C/6zvfjUWu/nFvDIvF41elDXW/Qcvyh9M+x2bZUGWJxiNyY4BG5oR8DOSAYzuty59CI921xZX+v+W9rcA1cP2NzZ9lYzPF9c0ZmZHKxC8GDYhMtDVU1muiJBa0CSVhCBHywz1hjD5BiHgPfgWmZVlyWBqyx4Iz2CZQwgMHDqROnTrJr6PXjGFp9OIBbi9hSNq+f41eMV6DdANfw2pyWMgGPW70wDF8Hot1zEsrBjVkwVkKj2nBEtZENjqOdHFlP1hOBEFDEDgxxd8Q/Ima+P4hGp7LRS/gYfrV1ZLW5k+Ww2eHHDvpSN4e+TgFVu4BGXl75dX9Pkcabc7/Xc4u7e+pIRefb+r7p7yyL9yw+Zfga+27Qd53i0Vjw5QtDBoQGZMaKss1AdHGckGbcBK2F7DB/vHYIL4OoWO4Gq9hURnsF/eMgyVsL1yDhhxDyjiGPRcB52ALF19DrxejW3gPXsP5okcPMUP4WCwG+0VP/NZbb5W9/0SceW1QQxacpfCYFizhKLBnZK4VV+Wpnsfpc98FykYBDREmi2BI7mvR+LT1lqe+nqdpuLsWjXV/RpNcXwia0yj3hzTA8yJ19N4tr+Kb+y6UC+QHX+XbjRkaoc7eSnIY0P8oSPEbG6ZsYdCAyJjWUFmuCQgvVgvahJNwoLhxf9mWMO714rVwEh4yZIgEx8A2ffv2leeIWdO4p2uvU273mvEaFsHB8DZ6v5g8hn1iewyp9+nTR154QNIdO3aUj1UFf1/KOgY1ZMFZCo9pwRKOGkwOOUY7HEvlSjyYBIJVg1SNxKnG4v/kTNImvrNFo3EuNfOdJ0ED0tj394J7aqHe72+80JMY6n5TLjyQmXdYYziPSUQMGhCZ4tVQ2ayJWC5og54meqIqCdt/D5QwxKkjYSxcg6FxXAzgnDCcjGf3MbnKfr7+tddekw09JnKhh4s/47N8++23cuIlxItf9YmZ2rjvjK9DxNh3cRaOKa0Y1JAFZyk8pgVL2BA8qoFfEL7SOUYOl33tu0x5r8ocf0ODZQKxStE8Z2/a79hSsPJPbBsb5hQYysMQXGmdkGbQgMjEoobKWk3g3z9WC9rgvit6nYEL1kCygX/HsTCLGo89YZEX9K7xGp5FxjbvvPOOPB6eJw9cuAZD1jhH3MvFDGsIFPvAr/HEI0q4N/3+++/Lc8LXsBYAnjHG/jH5Cve0cTzMmAbo0Tdr1kwKvzTWQHExqCELzlJ4TIsYSniAkHAXIeGvE0LCAFfe6AFgwsl8Zz85jIZ7V1iv1j9RJfrGBz0A9AYwZNfD85Bcjg8LDhwvgSt9pjD2M5NoEHGvrDQ+I2nQgMjEqobKWk3Ygo3Fgjb4eQpccCb47/j5Q88Tf7d/FSdeQ2/YXmTDXpgj+H3YP6SJ3jWGlSF4e7EObI+fa1wE2AvIQNz2wjEQMb62cOFCOasaf4a8Y/XsemnDoIYsOEvhMS1OSbiDkHBPlrAJaAiwpJ89i3OcuyF18z4oGx/8WjU0QBh2w70tNERoVACu6jH0hl8Jh3tfeL4SvwVmpPsDWpY/QjZkmB0ay/tcgahW2UFR2yvsYFEANCTYzl4RC6/h/+FW6UHjggYD78X+8GdsY/cwg98TuAYv9ovXollFCO+NZr/oXWC/aMjwWdCAocHBnzGbFL0IPJOJe3g4Br4Wq1WHIp0HtrUn/9jfb3wdjWjg5wmFQQMiE+saKq01EQ5872OxoE1JYv+sqo6P10KJFV+zZ1Wr3ptIGNSQBWcpPKZFVBKuV+eDh/9Xq+bxup98lN+kSQO5AUs4EP/zjEfz9slnI7fmzxO9gb6iAWpAP3jepX6e52RD1Nl7rwSzRQd5XqYx7no009VRNFZT5S8eP+LYW8znKiMDaeGqGGspYwUfDG1hlR3c48LqP5gNipVzMASGe1m4D4UJHVhBCIKCYEOt0oPtcX8Jv54Pk0GwDjTuOeEqGz0H1THtxyEgqGhXEYK8Qn2W4P3iXDCbFMsP3nPPPfTBBx/ISTP2WtR4L57bxD0znDO+D5BhrFYdinQe+Cy42MBjLnXq1JHngPt7NWvWlGsV2zN0g/89bQwaEJmSq6HSUxM64HvPC9qUbQxqyIKzFB7TIioJV6lyX4vly5eIE3TRF182ZQmHJVfeI0NvAA0QZm7ifhnW3sWSfgCPU2BRATyigat7NFano5FBQ4KG44033pCTO3AfCOLAn3GFj4f/MSSLe0OYdYlfQNCqVSs50QT3u7CgfahVevC8I8SDRyLw+3LRW8CEEPQucc8M71Ed034OE0Nl0awiBBFjcYJQnyXUfnFe2AazWWvUqCEljs+Jz4t7fvisEC4+TyxXHYp0Hvh3QQ8Z9/MwexVA0jge6gr/LuEeGzFoQGROTw3Fb01EA+qHF7QpuxjUkAVnKTymRUQJTxQS3lIg4cqV727xww9DadKkCdTs80Ys4VIKGnH70QX7d9piViYmdkCqGGLD/S/0RO3FCiAMfA2iwnArJoSoVulBjxnvxezNv/zlL1KE2A+Oh6X68J5Qx0Rv1J75qbuKEN6P3na4zxK8X7wXz0DiNymhADDbFev9QsSPPvqo3E/9+vVlLxs9V5wD9h+LVYcinQfWJ8a/D+7L4XuGCT0QPCYF4bywcH+4x0YMGhAZriGG8WNQQxacpfCYFlFKuFKLTz+tQ6+++h9q3KQ+S7iUgqt3DKXhH/+ss86SQ7CYHQk5oKGHYHCvEhNM0BvENugdojeLXm7gSjzBq/QAWzTorWKWJXp3uJ+K94Q7Joa47ffqriKE4WfM9NTdL8SNiwKIGRNYcHGBiwyIFr3UZ555Rv4dvwMZQ9n29wr7isWqQ5HOA8+i4nxxwVK3bl25ShL2iwsQvAe/axn7DP43tTFoQGS4hhjGj0ENWXCWwmNaRC3hmjXfoYceepAaNf6MJVxKQe+se/fusheLIWP0OPE4Be7hYtUc9LYgTUgYkrMlDMFBGJAAHpvAD0/wKj0YmrNFg14hBIp7nDrHxH7t9+quIoTHP5o3bx71fjHJCT12e6lB9J6xDSSM/WLBBVvCeI4Swo3FqkORzgOzbyFi3ArA33E+H3/8sRyWx2e0Lw6C/01tDBoQGa4hhvFjUEMWnKXwmBZRSbiKkHCTJg3p/fdrkWpiVvceQsItWcLxjr0Igb0APYZwce8SD/1jpR88XoHeJnpdEAF6oBiOhTgwHIwe44gRI5Sr9KBXHLwyEI6nc8xggQcvYKBaRQj3XdHDjna/uDDAvvC5bAljQhomTOFzYhKaPRyNZzft7Yq76lCk84CY7WUIIXicFyYBoceN0QGWMHMmwAU2flYx/8F+YiB4m7KCQQ1ZcJbCY1pICb/wPHXu0oF694kk4Sr3tWjXvg1916YVNWna8KSEV65aToMG+yXcgiUc96CgINIXXnhB/gCggcfyfJiRjNnPeHgfw6G4DwkxYPJT27ZtT06UshesV63Sg5nTuDccLOFIx8RkLxS5LSn7vZFWEcIsZNzPjXa/wfLDMfCoiX3hgVWOMDMbnyeWqw5FOg9c3OB7j/diCBr3jbEwAy4MuCfMhKKkF5lBDWOk55NPPpE/8xBx8DZlBYMasuAshce0KCLhn8NIuGrVyi0GDuwnGpYfqGkzlnBpBs+vzp07l2rVqkXly5eXv58U0oV4IAc8MoNJVRCK/YgShlrx2n//+1/5dwybqlbpQQ8ycCUgezg23DExkQlfD1wNSHcVIbwn2v2iUcG+sE/sG8fAkDn2g94wZI7Z3rgAwT3aWK06FOk80NChR44JZTgWPg+G2PH4FbbBJC6emMUEcjoWmcHPeI8ePeToDC428fx68DZlBYMasuAshce0iErC1YSEJ0+eQMuWL6bPmzdhCZdiIAYUK4oXQ7bovWKCESSBe54YhoUM8H97sQ7ICK9BLHhvqFV6bOnZK/rYEgp3TLu3rFoNKNIqQngt2v0Gv4ZjYL84d3wmzPbG58HEKXthklisOqRzHvbCKBjexvcWDR72hW3wuYP3GYhBAyLDNaQG/zahFoHRWXgl1D7s1awiLQIT6RjYR6hFZkItmoP3RVoMBv+3VwrDeeFnEbdJMPqEi0G8xz6/UOevu4CNzufE9iDSeccCgxqy4CyFx7SITsLVqrSY+fs02rY9jZqzhMsMdoMSrnEPR7hVekJR3GOGIlb7tSeaBb9uNy7Br9tfs2eIq94bLeGOFQqDBkSGa6gokGe4RWAgikgLr9j7UC1qA3mFWwQG//4QU7hjhFtkBpMYVYvm4DE43KYJtxiMvRY23o/zwq0dvB/zIGwJ47OFOn/IEfLXWcAGRPqc+F4WZxGbaDCoIQvOUnhMC5Yww5QhDBoQGa6hwqBBD7egDR5pQ48z3MIrEBVQLWqDZ+sjLQKDHmWkxV1CLTKDORyqRXMgNkwsxNByqMVgIDyM5EC8mJeAr9kz+vGkhC1hfH9CnT/2P2TIEK0FbECkz1ncRWyiwaCGLDhL4TEtopbw7yxhholbDBoQGa6hwugsaAOZQE6hFl7B7x1Gz021qA0Ejq9h/9hetQgMhlztiXyhjhFqkRn0DHFrBu8NXDQHx4DMwi0Ggx4sXsOESxwHQsdxMTcBEzEhYezb/v6ozv+hhx6Skwh1FrABkT5ncRexiQaDGrLgLIXHtIhKwo88UpUlzDBxjEEDIsM1VBidBW0gBvw91MIrmKzXpUsXuX3wojaBC96EWgQGEyIhnXDHCLXIDD6DLbbARXMgMnw93GIw2A49WZwHJjni3DB0jmFiSBXfBwx1h1vEBuLEEDh6q5EWsAk811Cfs7iL2ESDQQ1ZcJbCY1qwhBmmDGHQgMhwDRVGZ3EZDPfaw7SqhVfwGu7NopENXtQGwrCFFWoRGPRobQmHOkaoRWbwGQKfSbcXzcGkKDwJEG4xGAw14+kDnAd6mjgeepkQM94DCeOzhFvEBj3k+fPny/u5kRawCTzXUJ+zuIvYRINBDVlwlsJjWuhJeJNfwtWrQ8LTWcIME6cYNCAyXEOF0Vlcxl4jPdTCK3hGHD0/1aI22Jc9nIttVYvAYEZxpMVdQi0yg56kPRxtSwyfCRcX6J3bw7yqxWAw4Qznbq8bj8+Ac8MjgOjVQsK4OMDwc6jzx8gBRgp0FrABkT5ncRexiQaDGrLgLIXHtGAJM/LqHPeQ8HiA/UhO8DZM6cCgAZHhGioMequRFpeB7AIlFywObIMhaNWiNnj+PNIiMJBKpMVdQi0ygx6xatEc9EAxhB1uMRh7yVrIFhOlcCECqeK8cM/WnpgFQp0/1nbHKIDOAjYg0ucs7iI20WBQQxacpfCYFmYS3sYSLitAwCgmNAqYCYpfWYgiDN6OKR0YNCAyXENFibS4DHqa4RZewbAvxADpqRa1QZ2FWwTGrs1Ixwi1yAwkH7xojv3YU6TFYDC0jEef8H7IEV/DLGycH4SKfeAxo1DnjwsUDIHjfZEWsAGRPmdxF7GJBoMasuAshce0iJGElwkJ9xcS7iwk/BVLuBSBH1zc+8Izfrjqx6xDND7B2zGlA4MGRIZrqCgQRbhFYPA1/DncwisQKbaFeIIXtcHXwi0Cg3PQWdwF+1EtMhNq0Rx7gY9wi8FgW7wH4rPPC9vYi40Enp/q/PG67gI2up8Tx4x03sH7NcGghiw4S+ExLfwSriEk3F5IuIeehLcKCRdeMYslXNqwiwwTKvAAPdaEnT59+skiwdfxg48Cww85ihH/x8xJvIarahQjCj9wVSr7NXwd+zkdK9wwpzBoQGS4hsKDn9fiLgKD94ZayAWvFWffNnbtBr+uQueY9jaR9hlqX/b3LdTnNiHUsWKFQQ1ZcJbCY1qwhBMUe/WZDz/8UA4B4d8Msz+x+gxEjCt13LupXbu2fPgfw0y4l/Xwww/L1X8wDIV7ZBhmw7OKuOrGlS5WA8JrmLyCXvbpWOGGOYVBAyLDNcQwfgxqyIKzFB7TgiWcoGCoKNTqMxDnrFmzpJwxMQLPRGK1IEwusVfDwfAS7gFhQgbueUHqGKrD/SNM5MC9KgyJhTpGLFe4YU5h0IDIcA0xjB+DGrLgLIXHtGAJJygYOg61+gxmWmKFGzyigOXmZs+eTZ06dZIzESFmzJwE9jN8kDYkjPtREDDeh+cDMewc6hixXOGGOYVBAyLDNcQwfgxqyIKzFB7TIpKEJwgJpwkJ12cJlx0wDIzh5lCrz+DxAjzXh+fxsNYtho/xYDye4cNwM+754l5yoIQhXAxRB0oY939DHSOWK9wwpzBoQGS4hhjGj0ENWXCWwmNaGEp4M0u4FBNp1Rw8Y4gZjXgWDw/nY0UcDEPjUYBRo0adXM0GkrYfrodQsaIN9gcJ488Ypg51jFg+18ecwqABkeEaYhg/BjVkwVkKj2kRUwl3684SLg1EWjUHz/mhV4sJWVhgAJOzsE4sJmBh/VYMZeNRBAjWljYmYqEHjZ4uJAxZY1H3UMdgCZcMBg2IDNdQeDAblxe0SQwMasiCsxQe08KWcKfO7Sm1dw8abSrhgYMKJNyCJRzvRFo1B78YHL8BBj3gs88+W86MxgIF77zzjpxohceN0BhBzri/i54unjPGUDRW2MGqPRAu7gGHOgZLuGQwaEBkuIZCAwHzgjaJg0ENWXCWwmNaaEk4TUi4Pku4zIB7wpYVetUcTMoaMmSI/PVnkCZ6sva6rujJYuF59AbsX12G+8bYDx5xwn6wNB9mV+Mh+1DHiOUKN8wpDBoQGa6h0PCCNomFQQ1ZcJbCY1roS7guS7gsEW7VHPz9qaeekkPRzZs3l5OscN8XzwWj54tl6gIX7MBMaawohKFq/N1eUeh0rXDDnMKgAZHhGioKLlZ5QZvEw6CGLDhL4TEttCX8GUu4TBK8+gz+jsYEz/Ri2Bg9WfwGE/xibzyehF4xfpsJZlfb74m0ok7wMZiSw6ABkeEaKgovaJOYGNSQBWcpPKaFroQ/KyThrSzhsgx6qRiSxsQrzIrGUDL+TfFbUurVq3dycfng9zFnHoMGRIZrqCi8oE1iYlBDFpyl8JgW+hL+hCWcKNgzQbH4Bq70+/fvLydZoVHBUBnPDI1fDBoQGa6hovCCNomJQQ1ZcJbCY1poS7geSzjhgIzRcKChsO/xBm/DxBcGDYgM11BheEGbxMWghiw4S+ExLXQlXI8lzDDxj0EDIsM1VBhe0CZxMaghC85SeEwLljDDlCEMGhAZrqHC8II2iYtBDVlwlsJjWuhLuA5LmGHiHYMGRIZrqDC8oE3iYlBDFpyl8JgW2hL+lCXMMHGPQQMiwzVUGF7QJnExqCELzlJ4TAtdCX/66ceRJNxPSLiTkPCXLGGGOUMYNCAyXENF4QVtEhODGrLgLIXHtDgl4XZCwt2FhEeEl/BMIeEtLGGGiUsMGhAZrqHQBC82wwvalG0MasiCsxQe0yKShMeO+5nWrVtDdet+xBJmmHjHoAGR4RqKDl7QpuxiUEMWnKXwmBaRJIzfUPjrr1Po449rs4QZJt4xaEBkuIaigxe0KbsY1JAFZyk8pkUkCXfu0oH69u1NH9SuxRJmmHjHoAGR4Roygxe0KXsY1JAFZyk8pkUkCTdt2pjq1q1D7733LkuYYeIdgwZEhmuIYfwY1JAFZyk8pkUkCX/44fv0/PPP0bvvvskSZph4x6ABkeEaYhg/BjVkwVkKj2kRScKvvfYfuvPO2+mtN18LkPAWtYS7dutE37CEGeaMYdCAyHANMYwfgxqy4CyFx7SAhJ8XEu7YSUg4tTuNGl1Ywo0bN6CPPvqA/lvz7QIJz1RIeKWQ8ECWMMOcaQwaEBmuIYbxY1BDFpyl8JgWgRLupZDw1KmTac+eXfRJnQ9ZwgwT7xg0IDJcQwzjx6CGLDhL4TEtIkm4Z8+uNGzYYKr57lsOljDDxDkGDYgM1xDD+DGoIQvOUnhMi0gS/urr5r80bdywXvv27cuxhBkmzjFoQGS4hhjGj0ENWXCWwmNaRJJw69bfNEuywxJmmPjGoAGR4RpiGD8GNWTBWQqPacESZpgyhEEDIsM1xDB+DGrIgrMUHtPCUMKbWMIME4cYNCAyXEMM48eghiw4S+ExLQwkPI0lzDBxikEDIsM1xDB+DGrIgrMUHtOCJcwwZQiDBkSGa4hh/BjUkAVnKTymBUuYYcoQBg2IDNcQw/gxqCELzlJ4TAuWMMOUIQwaEBmuIYbxY1BDFpyl8JgWUUt4hpBwmlLCfYWEOwoJf8ESZpgzhEEDIsM1xDB+DGrIgrMUHtPilIS/FxLuJiQ8nCXMMKUVuwGJNlxDDOPHoIYsOEvhMS3MJJwWfxLOz88v8s1kmEQDDYjX6w0ukYjhGmIYPwY1ZMFZCo9pEb2EZ8SnhN1ud5FvJsMkGmhAohhGOxmuIYbxY1BDFpyl8JgW0Un4kfiUMIIrFx5OYxIdp9MZbQNyMlxDDGNUQxacpfCYFlFJ+JE4lzC+ecHfUIZJFAzuZRUK1xCT6BjWkAVnKTymRZmRMIJvHl/JM4kIfu5dLle0V/BFwjXEJCrFqCELzlJ4TIuoJFytWpWQEh4gJNyla0f6+pszJ2GEGxEmETEYQgsZriEmESlGDVlwlsJjWkgJP1+DOnT0S3jkKAMJr4gjCSPciDCJAn7O0XhEOZszYriGmEQhBjVkwVkKj2kRKOGevSJKuHKLqVN/oTVrVsW1hBE0IvjGckPClEXwcw0wo9nw6j1iuIaYskwMa8iCsxQe0yIqCVetWrnFoEEDaNSoEdS0WaO4ljCCKxuAbzKegbS/6QxTWsHPMe5b2Sv6FLPxiBiuIaasUQI1ZMFZCo9pEZWEq1S5r0W7dm3Ei99Sk6YN417CduxvNMOUFU53go/PMKWdGMaCsxQe0yJqCTdsWJ9q1nyHGjdpUGokzOFwOBxOCcWCsxQe0yI6CVeu1OLNN1+jSpXupoaNPmMJczgcDifRY8FZCo9pEZWEKwsJf/zRB+INz1GjxvVZwhwOh8NJ9FhwlsJjWkQt4SFDBtKYMaNLxcQsDofD4XBKOBacpfCYFlFJuHr1ai0mThxHu3btjPtHlDgcDofDOQ2x4CyFx7SISsK9u3S57qGHqrR/+OEHezduUt/NEuZwOBxOgseCsxQe0yIqCQemSdOGeSxhDofD4SR4LDhL4TEtYiThpQUS7iAk3JwlzOFwOJxEiQVnKTymhV/CzwkJtxUS7iok/BNLmMPhcDgczVhwlsJjWrCEORwOh8MxjwVnKTymBUuYw+FwOBzzWHCWwmNasIQ5HA6HwzGPBWcpPKYFS5jD4XA4HPNYcJbCY1qwhDkcDofDMY8FZyk8pkXMJNx/QF/q3KUDffU1S5jD4XA4CRMLzlJ4TAtIuIaQcPsOLGEOh8PhcKKNBWcpPKZFoIR79GQJczgcDocTTSw4S+ExLVjCHA6Hw+GYx4KzFB7TgiXM4XA4HI55LDhL4TEtWMIcDofD4ZjHgrMUHtOCJczhcDgcjnksOEvhMS1YwhwOh8PhmMeCsxQe04IlzOFwOByOeSw4S+ExLVjCHA6Hw+GYx4KzFB7TgiXM4XA4HI55LDhL4TEtWMIcDofD4ZjHgrMUHtOiGBJuECThPkLC7YWEP2cJczgcDidRYsFZCo9pcUrCbYSEu7CEORwOh8OJIhacpfCYFixhDofD4XDMY8FZCo9pwRLmcDgcDsc8Fpyl8JgWLGEOh8PhcMxjwVkKj2nBEubEPD6fj2GYKOGU2lhwlsJjWrCEOTGL1+uVuN1uys/PJ4fDwTBMBFArqBm7fjilLhacpfCYFjGTcL/+fahT5/b05Vcs4UQLruI9Hg85nU7ZqOTl5TEMEyWoHdQQaol7xqUqFpyl8JgWUsI1nqN27dUS/pYlzAkXNBa4imf5MkxsQC2hpljEpSYWnKXwmBaBEu7eQ0h4JEuYE0Vw1c4CZpjYgppCbXFKRSw4S+ExLVjCHOPg/hULmGFKBtQW3yMuFbHgLIXHtGAJc4yCxgH3r4IbDoZhYgdqjEUc97HgLIXHtGAJc4zCvWCGKXm4N1wqYsFZCo9pwRLmRB2ejBVf5OblUmZeJh3OO0T78tJpt2MX7XBsp+2ObYKtkm2SLQH4X/ezTW5vOXZSumMvHco7KPZ3jHLycoocizm98CStUhELzlJ4TAuW8OkKisimlAcNAp5tDG4wmJIFUjyalyFFCWlCpFsdabTOsZp+yZ9AXV3tqLG7Lr3leYme8Fahh7330EPeu6iK9w56wHsb3e+9le4T3O+tKF67XVLVeydVE9s95q1ML3mepLru/1EnVxsa5xxNK/KX0RbHZnmcHULUexy76UjeYcrOyy5ybkzJgVpjCcd1LDhL4TEtWMKxTqBso6EUBQ0C94JLFvRuT+SdoAN5+2mnY4eU7UrHchrmHEj13LWlZCsLmd7pu5HK+66mG3yX0tW+C+ly3zl0Mf2d/kV/oQvp/9EFkj9Lzg/Afg1guwvF9hfRWXSZ72y6yncBXe+7hG7xXUm3+26Q8q7uvZ/+536DUl1daVn+YiHnNHkhgJ738bzj8nyDPwMTG1BrLOG4jgVnKTymBUs4VgmWqg3u56gI3q4UyZglXDKgp4shZQwLpzk20e/506iFuxk9460merAVqIKQ7XW+i4Qo/yklC4GeR3+icympxMD+IW2I+hLfP+ga37+EnK+ie7y3yN4zet6/5f9Cmx0b5cUChrJ5GDu2sITjPhacpfCYFizh4iZYosGyxbN+wQRvo5JyHIclHDsgrINCXBjuXeVYQT1dneWw8L3e8nSz7wpK8Z0nhPtXIcL/KyLIMwnOB71n9Lxv8l1O9/jK0TOeh6mDqzWtcCyTnwe9eB66Lj4s4biPBWcpPKYFS7g4CSVfW7Zu9ylcLj/231VSLiUiZgkXDwzd4t7qTsd2Kax2rlb0hKcK3ea7TvY0MSwcb9KNBM4XFwtX+y6giuJzVBe95Jbu5rTEsVAOW+Pz5nIP2QiWcNzHgrMUHtMihhLunVgSVgk4ULwQrtN5ivz8U39WCVkl4jgNSzh67Hu8ex17aINjHfV19pA9x9t8/5b3YDG8XNJDy6cLfA70kq/0nU+3CiE/63mE+ji703rHWvn58X0I/v4woWEJx30sOEvhMS1OSfg7lrB2ggUc2PO15QvpiuI5iSimk38OFnIpEzFLWB/I91jeMTk8Oyt/On3krilnKF/ru0j2HEtSvNi3f+LVXyhZ9K4v8v1NcBYlF+Af5v5zkffFEpwDjnOtL5kqecvTh+Lzz8mfJUcBjuUd5QldGrCE4z4WnKXwmBYs4WijErBKvqJ4KDfXT06OH/vv+FqgjMOJOA7DEo6MPeSMR3x+dg6nFz1PyIlVmH0cK/Fh5jMmaWEI+0bfZfIecjlfipzVjMlTGN7G40mY2fy853F61fMs/cfztDyXF8Tfn/Y8JB9XquC7Vm6P9+H92A/2h/1e6vuHFHnwsU3AkDU+/62+a+hlz1Py+4LvDx67YhmHhiUc97HgLIXHtGAJR5NIAg6Ub3Y2UVaWGnwNUsa2toyDRRzHvWGWcGggk4y8I7TJsYH6OXvSY54HpNDQEy1OrxcivMJ3Ll3vu1RIMkWI8xp6yHs3fequTb2d3ek35xRamD+PlucvpTWOVXLIGzOssRgHeuGWYwftcliCnXL2NUBvFM8AYztsj/cty19CC/Ln0jSxv1RnV/rA/Q494L1dPgYFOf/bd4mcjFUcMeP7gPvemNCFIfkfnYPlObCM1bCE4z4WnKXwmBYs4WgSSsB27zdQvsePE2VmEh07dgr8HeBr2MbuHeO9qh4xS7jUAHkczTsqH9UZ6Owj5FuZrvNdbHyvF71lyO4GIfDyopf6oPdOauauTxOdY2lx/kJa51gjBYqFO9DjxrO62XlZcrY1iFZm2B4Tp3LysilL7Af7w373OnafXBBkUf58GuMcQQ3cdWQPG71nPE+M3rjJRDJ8X5Lpr/Izolf+o3OQPNbxvMyoz78swxKO+1hwlsJjWrCEdRNOwKJQpFBt+UK4GRlER474OXzYD/6M120hnzjhlzbebw9Ns4RLFf4JV8flUpDDncPoSU9V2VuEfIOlEwk8i4tJWujp3uutIJ/BneqcRKvyl0s57c/bJ5enxGM/p1tSOB6Oi/vb6Xnpchh5ueg1j3eOlqts3e29WfZsU0RvPdrhdvu+8Y3i/Rimnpo/WfbUcTEQfB6JCEs47mPBWQqPacES1omOgCFUiBWShXAPHiQ6cIBo/34/+DM4dMgv46NH/dvbPWLsJ3BYmiUc90BKWMoRi2q85qkhJHRF1JOtMKyLWcS4F1vNcw91dH1H/5+984COqtre+FrPZ+/6KBZEUASfgr1hfc9nwYaKvT3/PguKKB2kFynSkaaIdEQFBRRFEBCkdxBIQsslJIQUQnpmksnM/t/vDDcMd84kZ8JkcmZmf2t9C53ce+dOcuf+7t77nH3+dC4XEfWhomQRFerZ/KJQRM3oMe0d8b3D/D0soh6ujqLDFoCKCPn8ICJkb5r6DGrsqUdvl75qRt6rKK3osKafP3xmCGsvA8yScEzJoYPwl+NoyFATwt2iDMK+ALYg7AtgRLIAMKJbwBXwBXRTUoiSk4kOHvQa/43X8DNsA1ADxIicfaNhWUpaM8U6hL113yOijWRbV0u6yd1AtIpUhS+2q2nCBvVdjJTuV9KdVjiXiegSjTsQAYY70j1ZW1OwEK3vcuykhc4FZoT8tvjdYGR0MJkBMYCLzhaDxoaU9Bf19VhujckQ1l4GmCXhmJItCA8cdJIQ/uIYhLtGM4StKBhp46JjAAZEAVNAFZEuQLt/P9GOHUR79xIlJnptGERJSV4YHzrkBTGiZisa9q0NM4S1NQCJVYcwmOhf7jvEYCnVeii2Q50Xo6RfLm0uUrk7HNtEZ6lIBG8g43MAmoiQt5gPKpOKv6CHS+8W6epgHlaQJUCbTnQQW+z8lQ45UmIyKmYIay8DzJJwTMm+EB45ajh9wxD2USAAA5ZWChoRsAVgAHb3bqJvviFq355o3jyiXbu8MN63zwvnAwe822F77If9cRx7SpohrJWtUc9rHavprdJX6FpPHTH/1g4OmQFfpJxvNKPCdq5Wx+bJ7hep3GjvIgVo4vcW74ijn4p/FCs8YaBZLUUYWylq1Jz7urqZUfaOmGv2wRDWXgaYJeGYkhnCgSQDMOBYHoABW4D31luJatQgevJJolWriOLjvXC2ImOkp5GWtlLSDGGtjdonBgrNMKNfTAu6hFDrrBgggC96P9/qvlaknNc5V4voMC/GIALjIQaDyjAtapHzF/pv6Qti2pMqjDHYC2ltzHX+0/kHpRelR03moCIzhLWXAWZJOKZkhrBMvgC214GRNkb6GGlk1IAtACPKXbaM6LHHiM46i+jUU4nuvNP72s6dRHFxXhBjO6SlkZLGIC2GsLa20qqYP9vO9YEJjSuVol8MRsKgpFvcDamXq4uAL2qlvJjB8d8pMgGA8eulz4lBaSoD2vBzQBtrI39RMloAPRbS0wxh7WWAWRKOKZkhLJM9CrYPxLJGQaOuixowotv164k+/JDooouI/vY3otq1ifr0IVq3juivv7wgTkjwpqWRksZ+DGFtDVhgWcHfnQvpcfe/qI4Z0VZU+7WaUDR216OPXO+KpheoY2L+rv34sW4LxmgmMqf4W2pWej9d5amp1AQEU7kwR7mjq7VoMhLtU5kYwtrLALMkHFMyQ9guO4ADDcQCQAFSABWQHTGC6MoriU45heicc4iee45o4UKiLVuItm/3h7AsErYPzLLORTNFO4QRXaG71JSSr0TUBbBWFKUBHg08tem50mZifd0kx4Goh0MoDBijhzRgOq5klFjCsbbn7Ap/33ggquu5iF4qbS5WavLW16MzPc0Q1l4GmCXhmJIZwr6SAdheB7ZGQgOiSCsDrLNnE910kzcFDd92m3dwFqLjzZuJtm07EcJWOtoamCUbHW1FwRp++aIZwkgZY44uluFr4qknoi47AHwNWKAfclN3E/qqZKzYlzs+BW88+KDOu9K5XLTKxMA39Ma2/77tv/vadJZYNvFX508icxGNv3eGsPYywCwJx5TMELbkC2B7GtqqA1sDsTCoCoOrMNDq99+JmjUjOvNMbxRcrx7R6NHeAVkbN/pDGDVh7ItaMmrKvlOUZKloDb980QphjLrd4thE/yt9RUyNqSj9DEigu9V7rjdE32ZAIBZqlFVpZA/Q63pm8RTRGlMlKkbrSzwEYeAc2nhG29+AIay9DDBLwjElM4Qt2aNgWR3YPhBr7Vqi998/XgeuVYuoc2eipUu9UTAgjHQ00tWYqrRnj3e+MNLY1jxh32YdsjnCGn75og3C1sjdNY6Vom3iZeatvbwbv3eA0FliYYNpxV+LecOceg6drelgeLD5n+sVsQBGRa0wkbG42XMNjSz5jLBYRTSBmCGsvQwwS8IxJTOEITuAZXVg34FYACnqvEOHEl1xhTcCPvdcbx34p5+8g7E2bCDatIlo61Zv4w5MU4qCVDQUTRDGDR+r92AA1iPuewRcywMwomNEya+UPi3aS2aasIjGFKgOxlQudBEbWzKCbnY3rLDrFurymPb0aUlP8WAULSBmCGsvA8yScEzJDOFAALbXgTGICvDEoCqklb/7jujGG7014NNO89aBZ8wgWr3aGwUDwkhFA9ZWFIxR1Iiifbtl2VtWah4FQ9ECYcATEF3gnEcPuG8VA7DsN3ZfI9q6wXMVDSzpHZNNI6rDACk6iv3knEv/dt8h2llW9JCEKU+o6WNRjWgAMUNYexlgloRjSg4hhMeaEB5kQrhz5EDYF8D2NHR5deDFi4keffR4Hbh+faLPPyfzl+GNggFh3yjYqgUjCraadFidsmRRMEO4yu2dgpRB84t/EMsEYp6q/YZuGTd99HpGjfK74hmi4UY03Nwjxd4R1EdpjWMV/bf0edG0o7x6PX6GFpndXB1oTxSAmCGsvQwwS8IxJXsh/IQJ4X4mhIeZEJ4eoxBWrQOvWUPUsiXRhReeWAdessRbI7bXgtGkA+C2zw2214IjJAqGIh3C1hxg9G6+23NDuWlOABj9oZ92P0x/OJeIWiWnn6vHSE9jKhPgimi3IhBjJacerk4Rn5pmCGsvA8yScEzJsQthO4BV68BDhpxYB37hBW8dGHC2asG+aWh0ybLS0OWNiLbXgjX+0kUyhL0p6AyaW/w9Na0AwLiRI+p62/UqbXSsF80l7Mdjh9eYQgaoDi8ZSE089ctt7oG/H0avDyjpJdqORiqIGcLaywCzJBxTcmxCOBCAy6sDY2DVt9+eWAe+447jdWDfNLRsSpI9DS1rzhEBUTAUqRC2BmFh0XhvCrp8ACOS8nZl2s6jnzUyYIqSwKSSL8WI6PJAjJ9h1aoRJZ+JtZ8jMYvBENZeBpgl4ZiSYw/CvgC2p6ErqgM/8siJdeBRo06sAyMNbR8NHag7VlHkTEmyK1IhjGlIWHgeSxBibqn9hu0LYLRFHFDSW9QUueezfgZMU4tSaWbxVLrF07BCEN/ouZomloyntKLDEQdihrD2MsAsCceUHNsQVq0DI9J9770T68BdupxYB0Ya2rcOXNGcYPtoaIZwlRqRLOYBP+q+TyyNZ79R+wIYkdOwkgERncKMBQOmgOq3xTPoNs+15YIYI9vvdDcWI+ExyMt+LJ3NENZeBpgl4ZiSYwvCdgCr1IGRWv7sM6I6dbwR8HnnEb34YujqwBEWBUORBmFEsn85ttLLpc2pNp1t3pTlU1zQEKKxpx6NKhlKSQ6DARwBBojTi9JodvGsCkGM7MfD7rtprWNVRJUXGMLaywCzJBxTckghPHiIxhCWAVjWF9peB0YP6BtuOF4HvusutTqwbDpSBNeBfRVJEAZI9zgS6GPXu3SF58KAc0y9EfCVNKZkuKgdMoAjx96IOE2kpiuqEaPX9EulT9EOx/aI+RszhLWXAWZJOKZkQPhJE8IDBp4MhDeZEP7CC+FPukYIhMurAwOgVh344YeP14Gvvto7H3jFisB1YGs6UpTVgX0VKRDGzTnZBCqaazTwXEJY59d+U7YAjAUDhpT0F6sfFUbIzZl93FaNGIO10FAlUJtLPITVNR/GOrha0X7Hvoj4WzOEtZcBZkk4pmRfCI8YOYxmfhONELYD2J6G9l0f2LcO/O67x+vAWB/4k0+8CzagDmyloWOkDuyryICwdyrSjOLJ5d6UvaOgL6E+rm5ioflIiY7Y/gaIsYDD6JLhYmBdoHnE1kPXuJKRETFQiyGsvQwwS8IxJccOhC3o2acj2dcHBkQR2Q4aRHT55V4Aow788stEP/8cs3VgX0UChHOLcmiZ83e6131TwOUIERVhHnBn18ciZc0Ajnzjb4iHKbStvMpTK2D5AStg3eVuQkucv2k//5shrL0MMEvCMSVHP4TtUXBFaWiklGfOJGrShOjvfyc6/XSipk29dWAsT+jbFcu3LaW1OEOU1oF9pTuEcSNGZ6XnSx+nmnSm3w3YAjA6YaERB7blaUjR44Jja0J/4HqLLvecHxDEuDZwjewy//46P4AxhLWXAWZJOKbk2IKwLA1tTUfCfGCAdNEiooceOrEOjPnAy5d7o2BA2IqC7W0po7gO7CudIYzUIgZWIRK60nNxuTfgZ9yPik5YkTRSlq1m/E03OTbQk+4HAy7MgWsD10hPV2fR/EPXtDRDWHsZYJaEY0qODQjLomD7aGikkgHZd97xnw+MAVqoEVupaN/R0L5p6CiuA/tKZwijI9a3xdOpiagDy2uCF9GpdL/7VlruXKp9KpJdeaM5y2/On+l29z8DjpjGNXKTp4FYyAPb24+hgxnC2ssAsyQcU3J0Q1gWBfvWggFMRMFII6O2O3DgiXXgl14imj/fm4YGhO1RsO8awb5p6CisA/tKVwgjpbzJjGz/U9o0YEtK3HQxF3hm8RQxcMt+DHb02Jq69FXJ2HIHaiFSbl76kChL6JiWZghrLwPMknBMybEHYfOiPqEWjCgYo5pRB27c+Hgd+O67iaZP97al9IWwVQtGFBxoNHQU1oF9pSOEccM94EikDq4PRR3QfqOFkX6s76khUtUHxVQkPdOP7NAZf2MM1MLguzqeC6TlCSst3cfVlQ45UvyOUd1mCGsvA8yScEzJsQHhQKlogBNRLNpP+s4HbtDAWwdetoxo5UqvreYcSEUjakYtOFAUXCRJQ0cJgCEdIYw09DfF00TDjUARDxaEf7P0RYpz7NQy4mFXjZEh2ezYQI+U3htw3Wikq5G2RokityjX7xjVaYaw9jLALAnHlBz9EPatB9tT0YAnoOrbF9qaD4wBWoiCYQvCGBWNVLQ1IlpWC7ZHwVFSB/aVbhAGULc7ttKjpfcFvMlimhJWTlrlXCHWpbUfgx3dzirKojnFs8Tyh4Ee0mp7zqb/uV6lfY49WmVJGMLaywCzJBxTcmxA2LcebPWIRuSKQVVDhx6vA59/PtGrr3r7QgO8ADC6Y+FfDMqymnNYA7KQikY6O1AtOAqjYEgnCONmeagohfqVdKe6nosCphsbeS6jL4tHU0ZRut8x2NFv31HzaF9qv0as6+Raz+U0tXgiHSk64neM6jJDWHsZYJaEY0oOIYTHmBAeaEK4k74QLvKZmgR4zplzfD7wGWcQ3X8/0axZx1PQALAdwvZ6MI5jNeYINCKaIVxlRlOOpc5FdKu7UcCuWJd6zqVWrrfEYvA6RTjs8Bpp6S2OjfSf0rsCDtzDIK2nSx8S84x1KVkwhLWXAWZJOKbk4xDua0J4qAnhaTEAYaSOMcjqsce8dWBAuFEjovHjvcBF6tmKglUhXN60pCj7AukCYWvQzfuuN+kSzzl+N1QYaej73LfQOseamJkPXFBQYF6K+VRYqPbAge2wj/31aPSRokyaVjxJtK0MlDW5ylOTRpcM0yZrwhDWXgaYJeGYkmMTwhhM1bUrmZ/+eB24d28vcAFnQDjYSLgiCEfRl0gXCB8tyqLvimfSdZ66AW+oDTy1aXTxMLHcnX3/aDAAmpuba16GhygxMZESEhLM7+Mm8zJea16mO2nfvn2UmpoqtvGFMv77iPkwun//ftq2bRtt3LiRdu/eLbYNBGQcwzCv+b1794r9Ms3rXhX0uhgPbvsde6ml+eCGGrD9moERJT9U2lSblZYYwtrLALMkHFNybEHYqgkDoE8+6U1BYzrSAw8Q/fKLd5AWBl9ZEA6mJszp6LAaN1P0e0bbwRp0ht+NFK5FZ9Jrpc9SgiNOi5tpqJ2Xl2c+TybR4sWLqV27dvTII49Q48aNqW7dulSnTh26+uqr6d5776XOnTvT8uXLy6AJA9qTJ0+mhx9+mK666iqxz5133kndu3en+Ph4EUnb32u1+b1o3rw53XXXXfT444/TvHnz6OjRo37npbvRoGWxcyHd6L5aOkjLmrI0uORTLR7eGMLaywCzJBxTcuxBGKOXAc9WrbwDsRAJmzcssUQhpiBhHjCAi7nBFoh9R0cDwr6jozFH2N6q0j46miEccmPgzLTiiWIFJFkUjJtrE3d9Wuj8OSq7YgGkiHzbt29P11xzjXkpn28+T55uXs5/K/se4Tt46qmn0gUXXEA333wzzZo1S0S/8KRJk6hhw4ZiH2wH//3vf6fatWvTBx98QAcOHCiLcvEv/v/DDz+kCy+8kM466yy6//77RQQdKGrW2dZqSz1cnahOgDnliIbR9EWHBh4MYe1lgFkSjik5+iEM2+cJA5hLl5L5SE902mle33GHd1AWQAsY+4LYPkUJ84StblnoOe27apIVDUdpow6ouiGMm2iCI56alz5M/wjQFxiLM7R1fRC1TTksCL/00kt09tlnl0H0nHPOEdA999xzBYCt7+Fp5jWOCHaL+RC5Z88eEcmeccYZAtrY5+KLL6ZTTjlF/D8i419//ZVycrwPL9nmdT1//nzxOrYBqEeNGmU+e+pRM62M84vyaJ1zNd3hvk7a0tJq7DKqZEi114YZwtrLALMkHFNybEIYU4kQwX79NVH9+t4GHeaNiFq08KalAVurNgwQWx2zfPtGY/lC37pwedFwlIG4uiGMKHhy8QRqECAKxk31Dvf1tMa5MqoHY1lwRAq6Zs2aItp97733qHfv3vT+++/TbbfdJiJd63t1ySWX0MyZM+n333+nK6+8UnxHAeBXXnmFBg8eTLVq1RLbAeI9e/Y0ny0PC9ijBoxtAHsc77HHHjMv/10RGQX7+nBRKg0s6R1wyhLmnD9Wej/FO+Kq9UGOIay9DDBLwjElxwaEZYOzELUipYwFGmrU8Kal8W+7dt5OWQCuL4h9e0f7pqT37/ePhu3zhaOsaUd1QtiqBT9b+mjA1XFwU0ULwlTHIb/9o8lWbferr76ikSNHisFVB81rEfBErRiAvuKKK8q+i/iyDxs2jKZPny6iWbwGeE+ZMkXsC5gj0gVs//e//4ljZZkPltOmTRM1ZvwM/+L/8br9fCLNmLK0wbHOfGBrHDAaxsC+6p43zBDWXgaYJeGYkkMC4Y0mhMebEP5s8EDq8olGEIYsCNujYUSsgCZqwM8/742EERHXq0c0YoQXvL4RsbWKEl6TRcP2/tFRPEirOiEsRkQ7Z1JDz2UBomB0xrpJzAeNhTWCEY1iwFVGRsYJg6kA6B3mgyKiYaSp8b0CeAHscePGmc+bNcpeA6zj4uLogQceEGnrM888k5577jnzsjZExNusWTMRAQPOiIgRGUfaqOhA9kbDfQJGw1jy8tXSZ8RUuOqKhhnC2ssAsyQcU7KA8JNPUP8BfWn4iKE0Y2Y0QhgGBO2LOCBqRQT7229Ed955vD5s3rhoxgxvNGyBGAC2ljK0omH7Skq+3bOiOC1dXRC25gW/6XqRannO8rthwriZ9nV1EzdX+/7RbIxexoArwBiRMKYQzTCvYUSuVr0YQF65ciVNnTpVRMD4riFF/dNPPwkI33PPPaKODAg/bz6YYooTImykqREFoyaMEdHJycnmM2eK+DfNfPBE7ThSoYwHtbXOVXSzu2HAkdKNPVfSEueiauspzRDWXgaYJeGYkmMHwvZoGIC0FnI4cIDMEIHMu8zx+vAzzxAtWHB8oJYFYvzrGw1julJFaekoA3F1QRijnBc6F4hFGuRR8Cl0t/sG0aw/FqJgy4iAAVFMOQI0+/TpQ6+99pqYogSoIopt0KCBGEwFcC5cuJAuvfTSshvAmDFjaMWKFWK0tDVQ65133qFFixZR06ZNxTHOO++8steGDx8uRlDj//v27SumSAHGkQpijJTGKkuXec71u6ZgdFxr52ol2qPa9w2HGcLaywCzJBxTcvRDGLIgLKsNI3UMaGJVpED1YV8Qw1Y0bI2U9k1L2xd0sKelo6A+XF0Qxk2wi6utGPlsv1HCWMIQ005Si6K7Fmw36rOYftSoUSMxytmaRgSgIr1866230ujRo0WdGMDGCOnrrrtORLcANEZNI82MaU743l500UXmV6ELtW3bVhwPUfS1114r6smYV4zIGKOvAWtse9NNN9HXX38tonD7uUWCvfOGfzUf7uRNX1DiQNe1XY4d1ZKSZghrLwPMknBMybEDYVk0bI2URtSK0c0Aa6D6MH5mBzHqyVZaGhDfu9cbVfuOlpaBOMKj4eqAMOZqbnVsojvd10sH0SCVeJO7QUSNiLa6ViUmJoo6q6/R6QopX3vTDJkBYQyuAhzt3ztAFk04EB3/ZV6n6HqFaLh169YC1tgeoEa9F9AGmAFcRNT4HgPAAC0iX4Da2gevW1OcsD/eY7P5UKpyvrrZKnO8XtpCNHixX1vw1Z5a1TZAiyGsvQwwS8IxJccWhC0QIxoFDJEmttLSqONiacOFC0+cP2xGETR9+vHo1wKxVS9GWhqtLK3R0rI1hqOsPlwdEM4syhSrINXz/MPvBgmjBSF6SGNesH1fXQ14zp49mx599FERjfoazTDQ6Qqjn+372Y2uVT/++KMAYT3zwRF1YAy4QrQKqAKWqAE/9dRTYhQ0tkf6Ge+LGwBqwNgG2yNtjQYgr7/+ukhBIxWN46K+jEgbxwN0r7/+ejFgC9EwvusY6IV0d6RGw4ArIIu+0fZrC8YYhLdcL1NSNVxfDGHtZYBZEo4pOTYgDNmjYXsXLWuNYcPw1oevvvp4ffjpp4/Xh31T0xaYfevDaGdpRjbRXB8ON4S9kco+eqn0KaopaVFpLUE33/kDZRdl++2vqzGqGWliRLCAna8Bt2eeeca8HA2//ey2ImpE0KgNbzCvScC9ZcuWAo74LsJILXfo0EGAHXOMAWTMKcYgrCeeeEJ0xML0I9SWrcYcODfMIf7+++/L6sg4DurCS5YsEXVnRMMAOPZH9G4/v0iwd03qbXSXu0nATAtW6trq2Bz2DloMYe1lgFkSjik5diAMBQJxkc/cYas+/MknZIYPx+vDbdt668OArgzEVn0Y+0Z5fTjcEMao1D+cS8QoVVnNDl2z0D1rr2N3tdTsKmtAePz48WIuL6Dra3wxX3jhBdEu0r5fRca0JUS7mKL04osvivowvleA+3333SdS3dgOqWOMpMZ7APZIU2Mf38YciJaxIATgbI2oRpSNUdKYvmQN3MJ74L0qc766GGMJurnaBxxzUM9Tg74sHiOyMvZ9q9IMYe1lgFkSjik5tiAM2UFcXn3YvAmW1YevvJLMx//j9WELxFZa2rc+jGlLVn3Yt7e0L4gB/witD4cbwmiij2b6geZy1vVcRENLBmjRbD8YIxpdunSpWHzh3XffPcGtWrWisWPHltsaErAtb3oQolLUfhGl4nuFiBUpZayWZN8WRnocjTyQzsa2l19+uZjOBDij17Q1t9ia1oSFHv7973+XzS1u0aJFREMYWZSfnD9SQ8+lftcYbKWkDzqS/PatSjOEtZcBZkk4pmSGcHn14UWLyHzU99aGzad9uvlm//qwL4hjpD4cTggjst3r2ENPlv7bjHhP87sxIk14s/sa0fko0qYlAZ6IWK05t77GawBwoNaQeB0drTDdCBEpUsyox+J4MPbFcob/+te/BCTxvcJgqttvv12krWXHw3HQkhL1YUS2L7/8stjWqjn7dtlCjRijrG+88cayLltvvvmmOCf7sSPFuNbiHbvoX+7bxDrU9msNaWqkq8M9SpohrL0MMEvCMSXHHoQhGYhl9WFEsmYEQA0aeKNh80ZDzZsT/fzzifVhy1Za2rc+XNH8YSstHUEgDieEkYpe6lxE//RcIU1FIzr5P9dL1TJgpjqNUc7Lli2jW265RaSEMZ3o888/p++++07Ub4cOHSpSyYiCre8iBlphlLOsbgtoY2AVQGs15kAnLUTrSFuvWrVKDPrCsXAc9KaeMGGCqBPjNUxvwrQmrEdsP3YkGU1eero6i+lu9msNvtpTm751Thed2+z7VpUZwtrLALMkHFNyiCC87hiEB5gQ7qg/hKFAIC6y1YeRWu7W7Xh92PyFUZs2JFZhCqY+HGxbS42/dOGEcHpROg0vGSRSzvYbIozR0l8Vjw17na66DQijccZll11W1kwDA6YwkArGtCJEtNb3ENs0adKEFixYIMDqeyxAFtOL7r777rJjIR1uLWcIowPXk08+WTYtCdvgfRBd4z1Q154zZ05Eri/sa6Sk5zlni57R9msNRuOO9iUfhLVxB0NYexlgloRjSvZC+HETwn1MCA+RQLh7lEIYsoO4ovqwGVWIiLhuXW99GP2kUQuW1YettLTV1tI+fziC09LhhLDh2E8vljaXjor2jlhtWC0jVqvbViSMGq8FRvv3CN9BQBVze7HCEvpGWysj+R4L0StGSVuNObCQw/Lly0UrTGsbjL7GXGSsXYxjWsfH+wL4VurafuxIc6F5He1wbKfb3NdK21iiJILSCEbr2/etKjOEtZcBZtm/f6pmCNuj4UD14cWLyQwVjteHb7opcH1YNm2pvLS0fbQ0Q1gYNd71zjV0g+eqAKnoM+kN1/Mxl4qGUcNNTEwU04eaN28u4IiBVBg0hZQyImSkj5Gq7tGjB61Zs0bUjO2QxP9joBai3Pr164tOWmjsYZ+fjO2QxkYKGhEzBm/hPdDYA8snYgS1L7Qj2cmOJHrP9V8x99x+zeE6vNG8Hrc4NoXtwY8hrL0MMEvCMSXHNoQhGYjt9WFErhhgZUYC5t3ueH3YvHHRTz95oesLYkTD+H/fbloVpaUjKBoOF4SzirJoevFkqh+ggQJS1J+XDK32Rdery0gjo5ZrmNcVphahbvvLL7/Q3LlzRZS8fft2EZ0i+i0PkIiqMW0Jo50BZGwvGxAGEGNaFbb5888/xbrEeA8Mxirv+JHmI0WZNKF4bMDGMPU9NWhK8Vdh657FENZeBpgl4ZiSGcJQIBAXSerDZlRBtWodrw9//LF3/jBS0FaN2IKwFQ3b1x72HS1tj4YZwmXGvM1AvaIRkVznqUurnCsipk1lVRqABJQxZQk1X0DRHvWGyjgujg94V9V7VKe9gwEXUyPPZX7XHSzqwmFc0IEhrL0MMEvCMSUzhC3ZQRyoPgzYvvSStz4MEF9xxYn1YQvE+NfeW9o3Go7g2nB4IFxI+xx7qJn7frqYTvW7EV5Mp4mfYRts678/m105W1OVMB3pAkn3rBp0Oj1X+hgdcCT67VsVZghrLwPMknBMyQxhS3YIB6oPo6aLkdGoD59+OtHf/050ww3e9Yet6NdKTwPCvistBWppWdFIac0UDgjnm9Et1nkNtLKNd3m58I5SZceOkx0H6V3XG9K6MOYLNzUBvdsRH5b5wgxh7WWAWRKOKZkh7CsZiAPVh6dNI2rY0FsfPussoiee8PaXBoRhABj/+s4bDtTAQ9ZXOsYhjHmY3xZPD9hQHy0EJxd/Kep39n3Z7JM1xhmMLBkccGocepUvdy4NSymEIay9DDBLwjElM4TtCgTiomP1YWv9YQC1Z0+i2rVPnD+8YoU3Be1rO4R9pyuV10UrhiGcVnSYPi3pRXU8F/jdAK168Frn6ojrksWODGcXHaUfi78XSxjarz/vQ+A/aGLx+LA8BDKEtZcBZkk4pmSGsEx2EAeqDyPSffnl4/VhzB8eOdKbigZ4LaMmHAjCvnXhogApac0UDghj2tHrrueppsd/fVe0FHzQfadYsMG+H5sdCuPhDuWQaz11/K4/GIMFsdgDBg/a9w21GcLaywCzJBxTMkNYJjuEy6sPY2T0PfecWB/+9tvjo6JhABgDs6z5wkhHM4TL9W5HAjV13yBdVg6tKv9X+krYG+mzY8eo9SY44ulO9/XSwVm4Bt8sfTEs61czhLWXAWZJOKbkkEF43HgTwp9FCYQhGYh968MAJwCK5QpnziRq1MgLYas+jMUfLPhiahOiYIyOtgZmWTVhhrCfEYWsc66mfwaIQpCi7uvqJvr82vdls0PlAw6DXih9kmpIurVhdP7jpf+iRMd+v/1CbYaw9jLALAnHlFwG4f6hgnCXKIEwFAjERT71YTTdAFz79j2xPtyunXeqkgVfLG2IKBipaIAbUbR9ZSUclyEs6nFzi2eLZvn2mx+M5h1o4pEVpmYJ7Ng0Rt53cn1El3nO9bsGvSOkbwhLSYQhrL0MMEvCMSVbEP4UEB7OEPaXHcRWfbjINlALA7Bee+14fRjrD0+c6I2EAV9EwAAwomCkoq2uWfZVlWRzhTVTVUM4syiDxhWPois9F/vd/GDU6VZzkw52FRsjpEeXDJNehxgc2NhTLyzLGjKEtZcBZkk4pmSGcEWyQ9iqD1sDtSwQI6r980+i++7z1ofPOIPo0Ue9g7dQAwZ8EQEDwFYUjFS01bqSIVzm1KJU6uHqKF1ODk3173BfL+p1VX3zY8e20TZ1ZvGUgG1TG3ouoxVimlKu376hNENYexlgloRjSmYIq0gGYsDSF8RIKQOuc+YQXX890fnneyGMAVoAL2rA+DkiYADYioJlqWhrnnCMQhgDrt4ufY1qe87yu/Ghe9ZjpfeHpRbHjm3nFGXTz8VzAy5reJWnFn1fPLPK1xZmCGsvA8yScEzJDGFVlQdi84tSNlgLUe/Ysd6pS99/741+MQoa4IWRukYEbAG4oihYwy9fVUMYgH2y9EGxbJz9xocpS6+XtojJlZPY4TXKHYh0EfHar0MYaepxJSNF+cS+byjNENZeBpgl4ZiSGcLBSAXEqO8i6sVALES+AK5lDMICfJGCtgPYNwqOcQjvcSTQHe7rpOu5Xuo5h9q4WlJKUbLffmx2KI2lCjc5NwScK3yF5wIaWNJbNJax7xtKM4S1lwFmSTimZIZwMPKFsKxGDJgCqoAxAAsgA7a+xmv4GbYpD8AxCmEsqr7dsVV0xLLf9GBMT+pX0r3Kb3xsNsYc7HL8FfBaRMOOrq52Vd6wgyGsvQwwS8IxJYcQwqNNCPc3IdwheiEMlQdiKyoGWM0vTxmQfY3XYPw8AgEMVSWEsXDDGudKauS53O+mByMFOKZkOGVUcQqQzYaRlbnFc410EZFLPOfQR653qjwrwxDWXgaYJeGYkr0QfsyEcG8TwoNNCE9lCFeoQCCWwdgCsmXrNfwc2/kC2J6G1vSLV5UQzi3KocXOhXSN51K/mx6MBdWnF0+KyjnCWJv36NGjdPjwYfEv1uvFf1fFur0F5gNheno6paamirWB7T9XMc4pKyuLkpOTxXFwTPs2OvhkPiuWyrzPfQtdSH/3uxYxcPBd1+uUXHTQb79QmiGsvQwwS8IxJTOEKysZiGUwtoBs2XoNP68IwJp+8aoSwt7G+YEbdWCk6k/FP5rbeReuT0xMpD179oibrAUBLG5/4MAB8TogpiscfA2g4Vy/++476tmzJ82aNYuWLFlCn376Ke3atUt8Jvs+J2O818iRI6lHjx6VPj4eFH755Rdq1aoV9enTR0DOvk1ljL9Xdrb37xuKh4+T+az7HfvoP+6mdJFkTWtA+G3XK3SwqGrbpzKEtZcBZkk4pmSG8MnIF5Z2GNuB7GvrdV/4RgiAoaqEMKZ7zCqeFnAJw4ZmhLzUudiMmHMFgJ944gm65ZZb6Ouvv6bMTO+KNgDwK6+8QjfffDONGDFCANr+Pro5JyeHFi5cSHfffbf4/sA33XQTPf3007R3796QwMgyjrV792564IEHxO9u7ty5Anr27SpyRkYGff7553TllVfSv//9b9q//+SnjQHABw8epJ9++om2bNkisgD2bYLxyX7WRBPCj5beJ6bG2a9F9I/+P9dLDGGWAWZJOKZkhvDJyg5OC6h2INvtu10EARiqSggjzTy1+GuRdrbf9OBGnstolXOFqB0j0sWNtVatWiLSARRwDMDgwQcfpJo1a1Lv3r1FhIafWdExfp6SkiLAh5s0IqNDhw7Rvn37xM+xHYAuA58VZSclJdGRI0fEf2M/HAsAwWtIz+I9AE8ABa9Zx0J05/tehmFQWlqa2Obnn38W0dqkSZOoXbt29OGHH9K8efNEytd6f9n+1vHx/uV9Tt/Pgd/J4MGDxfvt2LFDbINjYV88tOABB+ePz4KIF/vDAJh1fOw3cOBA8ftv2rSp2B7nh+Ngf2s/39ewf6DzxPZ4vzFjxtCtt95K3bp1o+3bt4tzBYwr+3u3f1b8DQOdg/13helyT5T+i/7h8Z8uV8tzJv3X9QIlFVXtdDmGsPYywCwJx5TMEA6F7AC1bAet3fbtLWuuqoQw1mf9uni8WK/VftODsZj6Buc6KijKV4Jwr169aOfOneLnzz//PN1xxx308MMPC8itX79eAG7z5s3UoUMHuu+++0T0ie0mTJggbup2eAEmL7zwAr366qs0ceJEeu6550QUuGnTJvH+P/74I33wwQfitTvvvJP++9//iijdAsnGjRupffv2Ze/VvHlzAR0AYOXKlfTee+/RXXfdRVdffTU98sgjNHbsWAEUC2bYv23btnTvvfeKz479p0yZIo4PQAX6nPaIEr+jxx57TESIiMATEhLE58LnAVibNWtGt912G7377ru0YMECAUgA9LfffhPb4dwfeughsf2FF15YBmH4mWeeERmK5cuXC6jFxcWJ88Rr+IyAsew8sT0eQPC5zjzzTLriiivE73HQoEG0bdu2Sv/e7Z8VnwO/U9k52H9X5c1ZB4TfcD3PEGYZYJaEY0pmCIdadqAG4whRVUIYjQ++KB4t7dcLY2WlbY6tYg6nCoS7dOlCX331FV1zzTV00UUXCcDhJo0b8urVqwV8kLrGMWrXrk1169alGjVqUMOGDenLL78sS3FbxvY41jnnnCNAefnllwtY/fXXXyKiHT16NN1+++3CeB3HwvcB6VXUI1966SVxXnivRo0a0Y033ijqvngQKO888NkQ+b388svi53gd8MB/X3/99fTtt9/S9OnTpZ9zzZo1fgOS8DkaNGggzh91aEAO+5511lniNXw2HPviiy+mp556SsAV5w/wnn/++eLc6tWrJz7L6aefLiBsRcf169cXx7CieHw2bFunTh0ByxkzZkjPE/VlgPCSSy6h0047TWyPh5UBAwYIOFb2945o2vezAszff/+99BzsvyuRjnZzOppVrgwwS8IxJTOEq1p20EYgdO2qagiPL/68HAhfIeYRq0K4Y8eOIrLDf2O7/v370+LFi+n3338X0ef8+fMF8PBF+Oyzz0SkBxji5ozoyV7njI+PF0A59dRTBfz69esn9gFscPNG1Icb/7Jly8SN/tprrxVAwHYzZ84U0R3ABvAiilu7dq2ABOBU3nngfXFcC874vD/88IOILvHZ3n77bXFM2efE78Ue0VufA6DFILCtW7eK/0cEivdDanzYsGHifFDzxXGw3WWXXSZeAxixzZNPPknnnntuGYQBRXxGHBefCb8XfE4AFXDF7wTnLjtPwBR1YPzt8BnbtGkjzgvQxANAZX7vSENv2LDhhM+KDMe4ceOk52D/Xe137KUH3XfSRQFGR7/jeo2SGcKxLgPMknBMyQxhVtCqagh7I2F5OhqR8Fbn5hMgjJvp0KFDywZgIWJEVIPXu3fvLkCLCOmCCy4QEAG4kMJFdIdUMG7WiK4QsQEEuEFbrwEqvjdlC144VufOnU+oS2JfRFqo5T766KPiPRE1Il2LFDRu9jguIkWklVGbhLFfRecBWGMbfGEReeJzA3w4F2yDtCrgI/ucGB2sCmGcKwCHB5R169aJ6BHbIHodMmSIeC9ElThH1KatB5xAEEZdFlGsBWFEx4sWLQp4nomJifT444+L/TFKHK+dzO8d5Qi8v+9nxXXyxx9/BDwH398Vpijd475JLF1ovxZre86m913/x1OUWAaYJeGYkhnCrKBVtRDOpAnFY8upCdcRrQQBYdyIMZoYkSWiJtT5ADVEU7gGcXEjEkI0i1TnG2+8IW7G5513HjVu3FjcuBGVASxITQIgSD8jfY3XEAECTr5TnCwYIIKaNm1a2aApAOHXX3+lG264QdzsAZL333+frrrqKnF+SLNikBjOCe+F6BfHxQ0fN34LuIHOA7VUjPTGsZCSRQT62muviRopPheiZzxUyD4nIlb7iOBAEAZQp06dKuCJ1LIFVLyG2izOB1EmfgaYYXQ0fm7VhPE6zhe/HxwXnw0jkrENIIz6MgAf6DyRJsfvDvvjAcoO4WB/7wA5HiZ8Pyv2RcQb6Bx8f1e7HfF0c4BmHWih+rHrPW7WwTLALAnHlMwQZgWtqoRwRQOz0ElrnXMN5Rfli4FIgBCiGdT1EGUh9QlY4MK2apC4sQMOuBmPHz9eRKKACVKqs2fPFile3KAx4Ac1wZYtW4ooCpESojvf87PDCwOW8Dpu6sOHDy9L3yJVjPdGFIuUcqdOneiLL74QIAJI8N9IseK88J5WqjnQeQDMc+bMEZ/JSkdjG6RaV61aJX5u1WTtnxMRrH2alv1zWBC24AlQYUCbdU6IhDFoCueP/0fUiPd/6623xO/fgjB+1wAiAAiI4tzw2RGZYl9kJQL9PXCeeB2DrvAwgM+P8wK0rXR0sL93GYTxgIOIO9A5WL8rtK3c4dgesG0lltrs4epEh4tCMz86kBnC2ssAsyQcU3LIIDx23GgaZEK4M0M46lWVEMYUJXTECjRFCfOE/3AuEfOEAQrAAYOUEMkgrYhIEiDBhf3ss8+KtCmiTIyaxehavIaf4aaLfXEjfvHFF8VrSL0iGsJ/IwJEAworErNsh5cFA0RPeAjAcQEc1FXvueceARMLSIhmkSZHDRXniigeA4K6du0q0tPlnQfqooAX5g3jdUAGo5BbtGghBktNnjxZRMqyz4latO80J9nnsCDsGy36QhgPK0jrArYYvIWHAaTEcX6oI+N1ZCaQjXjnnXcE0LAfRlFjW+xz6aWXiuzDqFGjAp4n4IgUMvbF9hghjt8d0vGV+b3LIIxzBHgDnYP1u8KD3nrnWjEi334dwnU9F9LwkoGUXlS189AZwtrLALMkHFMyrr0nGMKsYFSVED5adJRmF38j1mq13/RgdMzCGq/omIVULqIkTCfCYB7caBENYY4pujgBbKgXAraABGANI1JDXRE3fKQzARcMbGrSpIm4EaPJB+aUAnr2bluI9nCTB4AQvVqpS5yLYRj08ccfi+Ncd911ImWM6UR4bwxywpxUpGYBTYDr7LPPFttiZC/qqxWdB851xYoVIvrE8VGbRWoYoEKEiUg10Oe014TtnwPA9f1/QA7vi+Ph94mUL84RI7CxHX7X+BkGvuE8ATJ8fmsaEwaVYfQ3PgvS5vhd4KED6Wg8MAQ6T+yPz4hoGA8aGD1uPaRU9veO8oTvvnigKe+asH5XeNDDAx8e/OzXIYxszaTiL+lIFbdQZQhrLwPMknBMyRaE+33am4YBwjMYwqwKVJUQFgupO8tbSL2m6KiVdWwhddwwkV5EFIZpNrhZo0MS4IxRs1ZTBoyexZQkRFT4bwDFAiy2Q3SE17E/4IMbtay9IbYFwJD69W3CAeN4GHmL6BqRJWrReB9sj4gax8O5IGWKmqUVjWMf7FvReeC9MIcV2yA9i8+CSB/Hx7kgjVre5yzvc+C49s/luw2iQ6spBn6/1vnh+Pg5QIjzxH4AJP4ffw+cJ8oG+H+V88T+eNgADFFawMOB1UTDfn6qv3f7virXBIwHvfnFPwS8FtFadV7xHLGd/fcbSjOEtZcBZkk4pmSGMCtoVSWEEX0scS4KuIADpi59WTxaDOCy74sbsww41s+s0cj2qFBl/2Bc3nEAO9RJEekhTYsR04jWVff33cbq/CR7vbzPebK2zq+i45e3jcp5lre/zCq/N/v25Z0DSiPTiicGLI0gTY0Vv9C9zb5vKM0Q1l4GmCXhmJIZwqygVZUQrqgOh/WEB5T0itj1hBFtYaAS5roifWqNRLZvx65+o9Y7vGQQ1fVc5HcdYrT0TZ5rKN6xSwzgsu8bSjOEtZcBZkk4pmSGMCtoVSWEcUOLM29sTTz1A0wLOZfauT6gQ0UpfvtGgpGq/fPPP8UAIAzUQhQsi8LY1W9cY+1crcQ1Z78O0bzjX+7bRTMP+36hNkNYexlgloRjSmYIs4JWVUIY9q7heqt0DVfRKrD0JTroqNouRVVlABcpaavTEwNYXxuORHqm9BH6B53udx3itWdLHxXb2PcLtRnC2ssAsyQcUzJDmBW0qhrCuLG1KG1GNaQ3v9OoeelD5jYnv2wemx3IyMgg1XyLp6E0I4NuWe+6XqdkR9V2y4IZwtrLALMkHFNyCCH8uQnhT00It2cIR7mqGsIpjmRq7XqHLvGc43fzu4BOobvcjWm3I8FvPzY7VM4ryqPVzhWiOYz9GoQxNqF/Sc+wjE1gCGsvA8yScEzJDGFW0KpqCKcVpdGgkr50hedCv5sfjEUcrK5Z9n3Z7FAY89W/L2e+Ol7/3jlTbGffN9RmCGsvA8yScEzJJ0L4M4Ywq2JVNYTR/GBK8YSAU0OuNm+As4tnheUGyI5Np5sPgoNL+kkfBJGeRivLzQ5vD3P7vqE2Q1h7GWCWhGNKZgizglZVQzinKIcWOn+mazyX+N0AYdwYPzMjZUTM9n3Z7FA4yXGA3nS9QLU8Z/pdfxgZfb/7VtrrOLGveFWZIay9DDBLwjElM4RZQauqIYzoYrtjCzX21CtnUMwblByhI6TZets7TW4n3eG+ji6gv/ldfzXpTHqt9FkBavu+VWGGsPYywCwJx5TMEGYFraqGMLzfsY+ald5PF9NpfjfBi+lUesR9b1jmaLJjz7lFObTY+WvAntFYPalPSdcqXz3JMkNYexlgloRjSmYIs4JWOCCMEdIfBRghjei4iRklb3FsCktNjh1bzizKoHHFI0WLVPu1B6OX9FznbMoO05gEhrD2MsAsCceUzBBmBa1wQDijKJ0+LxkmbRkI1/fUpBnFk8sWcmCzQ+WDjgP0jus1qu05y++6Q3r6Vs+1tNPxV5W3q7TMENZeBpgl4ZiSGcKsoBUOCGNw1q/OnwIu5IBWgh1drSO2fSVbT3vHI2ylW92NpPXgGnQGPV/6RFg6ZVlmCGsvA8yScEzJDGFW0AoHhBFl7DKjjVvd10pvhuic9VTpf0Tt2L4vm11ZI8X8g/M7sUyh/ZqDw10PhhnC2ssAsyQcUzJDmBW0wgFhOMlh0OuuFlRTMk0EdeEbPFfRBsdabtrBDplTiw5RV1d7usxznvSaa+S5jH51/iwyNfZ9q8oMYe1lgFkSjim58hDuaIPw2M9p4KBPqVNnhnC0K1wQRsOEISX9pQ0T4Cs9/6DxxaPEQBr7vmx2sLb6RWMOMOYC2683vPaA+bPdjviw1YNhhrD2MsAsCceULCD8xHEIT7dDuI8ChDdsXEdjGMIxo3BB2Gra0dCMPuw3RBgrKr3lejliV1Ri6+Xsomya55wTcBzCJZ6zqZXrLUoJw6INvmYIay8DzJJwTMkWhPv2601DhzGEWQoKF4StyOQ+9y3SyAS1YjRU2OHYHtbIhB2dxiC/Lq420lQ0jKlJs5zT6GiYR+QzhLWXAWZJOKZkhjAraIULwnBKUTK1cbWkSyXzheGrPDVpavFE0W/avi+brWqMisbDXFP3DXQhneJ3neG1e9w30S7HjrA/8DGEtZcBZkk4pmSGMCtohRPCmAc8s3hKwNVsMJfzbderYm6nfV82W9VZ5kPc9OJJ4qHOfo15r7Oz6X3Xm2FZP9huhrD2MsAsCceUzBBmBa1wQtiat3m76OPrH6GI5gnuRrTZsdHclkdJs4M3IttEx356o/R5qkXykfioE892Vs/KXQxh7WWAWRKOKZkhzApa4YQwjOijdYAWljDaC44qGSK6bNn3ZbMrcm5RLi11Lg64YAh6lT/svocSHHFhT0XDDGHtZYBZEo4pmSHMClrhhjBS0t8UTw3YQKEGnU7Plj5Kex27q+UmyY5spzpSqKers2jEYb+2YLyOn4ezQYevGcLaywCzJBxTcgghPMqEcD+GcAwo3BBGShq9ejFK+kLJKGlEL//01KH5zjlha6rPjg6j0ctG57qA5Q7RFMZdn1Y6l1NeUZ7f/uEwQ1h7GWCWhGNKPg7hXscgPKUyEF7rA+F2DOEoV7ghDKOTUa9yohWkqlu5/sdzhtlBGQ1hRpR8FnChEMxF/z/Xi3TAYfjtGy4zhLWXAWZJOKbkEyE8iCHMqljVAWFrjdfrPHWldTsM0LrF3ZDWOldVW8TCjiwjw/KXYys9UHqbdB46rjM0ivneObNaBmRZZghrLwPMknBMyQxhVtCqDgij1ovFGl4pfZpq0hl+N0wYUXI3VwczauaVldgVGwP5RhcPo3qef/hdS/A/6HRqXvoQ7XEkVOtYA4aw9jLALAnHlMwQZgWt6oAwjLmcaMyBAVqyaBgNFe5yN6bNjg28qAO7XCMK3ubYQveXyvtE4/rCmtVjSoabsK7e3uQMYe1lgFkSjimZIcwKWtUFYdw40bHo4dK7xbQR+40TxmIPfV3dqm0kKzsynFZ0WNSCMb3Nfg3BuL4eKb1XDAjEdWffP5xmCGsvA8yScEzJDGFW0KouCMPWQJpAN09Ew2g9uNGxnqNhttT5RXm0zrkmYItKRMH1PDVopHmd6TD3nCGsvQwwS8IxJTOEWUGrOiEMsG5xbBJ9fGU3ULiO5wLq6mpHKY5kv/3ZsW3UdtH8pburo7hO7NcOLJpzlN4teklXdxQMM4S1lwFmSTimZIYwK2hVJ4RhpBI/K+kbcFqJt5XltfSn8w/KK8r1258du8bymL85F9BN7gbiOrFfO1YtGNmWdA2iYJghrL0MMEvCMSUzhFlBq7ohjGh4k2MD3R0gnQhj1aXWrrfJcOyv1pGtbH2M6wBd1d4ofYFq0Vl+1wyMEdFPlT4kxh7oEAXDDGHtZYBZEo4pmSHMClrVDWHYioYD1YYR5VzvqUvfFc8I+/qvbD2N+u5XJWPFYgyy0fXeecGXarc0JkNYexlgloRjSq40hDtIIDxgYD/q2IkhHO3SAcKIUrY6NtO/S++giwKMlEZP6WdKH9YqqmFXj9HAZY1zFd3rvlk6JQmuSWfSa6UttOtBzhDWXgaYJeGYkgHhx30gPG16ZSE8hiEcK9IBwjAim/HFo+hqT62AkQ0aMQwq6SPaXup0Y2WHz1ajF6zEdannXL/rBEbm5Eb31bTQuUDUje3HqE4zhLWXAWZJOKZkC8J9+vaiIUMZwiwF6QJhRLdxjp30bGkzM+qVd9FCzfg29z/pd+dC7W6u7PAYD2sTS8bTtZ465oOZfDDWFZ4LqIurDSU7krR7WGMIay8DzJJwTMkMYVbQ0gXCMOq9s4u/oes9V0pHu8JYqP3l0qcp3rGL09IxZqwVvNy5hJq6bwyYhvY25rhHTH3TcW45Q1h7GWCWhGNKZgizgpZOEEbUghVuOrg+pMs85/ndYK1Ip76nBg0o6S3mDusW6bCrxlam5LXSZwOOhsa1ca3ncppcPIGOFGX6HUMHM4S1lwFmSTimZIYwK2jpBGHY2wFp9bEGHvJoB2npmz0NaW7x7GpdEYcdHuNBC8ta9ivpLh7AAo0ZwIMblsBEzVjXhzOGsPYywCwJx5TMEGYFLd0gDItBWiWjxNJzshsu/A86jZq57xNzjHVMO7JDY8AU18P04knUxFM/YJniYvN6eNh9D210rBMPcvbj6GKGsPYywCwJx5TMEGYFLR0hXFhUIKaWfOD6P9Gow37D9Y18WrrepN2OeK4PR6kxTuAX53zRGzpQHdg7j/xKmlU8Tas5wTIzhLWXAWZJOKbkEEO4L0M4BqQjhGHvXNCV5c4FBYixFGL/kl6U5DigbQqSXTljBPwK51J60H2XyHzY//7WNYCWp51dbcR4At2vAYaw9jLALAnHlOyFcDMBXS+EJ1cWwiOPQbgtQzjKpSuEYaz9OqnkS7rOUzdgGvICOkWkKb8uGU9pRWna34TZasZD2AbHOmrufkg03rD/3S3XprPo5dLm9JdjW0SUJRjC2ssAsyQcUzJDmBW0dIawd7R0InVztRctLQPVhxEp3+luTAuc87itZRQYMMWqR2+UPkeX0rnl/t3vd99KK53LxfQl+3F0NENYexlgloRjSmYIs4KWzhCGcUNGlPNi6VPlRkRIV/7H3VSstsSNPCLXqO3vg9wuygAAgABJREFUdiRQG1dLkWYOBGBkRpABmVk8hTI1nY4kM0NYexlgloRjSmYIs4KW7hCGAdVlzt/pbveNAactwYD0k+4Hab1jjUhn2o/D1ttW5qOvqxs18NSWdsSC8XoDzyU0sKS3ll2xyjNDWHsZYJaEY0pmCLOCViRAuMi8yWYWZdCs4ul0k6dBwCUPETVdQmfTC6VP0HbH1oioEbKPG2MAvij5vNwxANZALETKe8yIOdJGxTOEtZcBZkk4pmSGMCtoRQaEvVESFm74omR0uW0tcZOu47mAPnT9jxJ5/eGIMf5OWCHrPvctAbMd+NuiRoxacaQMxLKbIay9DDBLwjElM4RZQStSIAzjRo2pSINL+olGHuWBGKCe55xD2dxRKyKMgVXLnIupkfl3tf89rb8p2lU+7X6ENjjWRmy5gSGsvQwwS8IxJTOEWUErkiAMI/24z7GHurra01WemgEH7lzhuZCGlvSn9KI0v2Ow9TOgikF113mukP5Na9IZ9Jj7AVrl/DOiB94xhLWXAWZJOKZkhjAraEUahGGkIdHMv5XrLbFsneymjbWHx5WMFLVk+/5s/YwsB7qkPVP6CNWg00/4W+L//+O+i/5wLqHsomy/fSPJDGHtZYBZEo4pmSHMClqRCGEY/YG3OjbRK6VP06V0zgkgxsCtpu4mtMG5NiLrhrFqAHZB8Twx9xcLNVzuOZ+u9tSiR0vvo8XOX6NiDjhDWHsZYJaEY0pmCLOCVqRCGEYdcZ1jNbUobUbXeC4VvaSRhr7d/U+aUDyG0ovS/fZh62tEw1kmaDc7NtLE4nHUu6QLTS2eKAZhAdDRMMiOIay9DDBLwjElhwzCo00I9x/Ql8zXGcJRrkiGMAwQIzX9rXM6dS1pR0NKPhUdlLiFZeQa2QusB3y4KFUsyBBp05DKM0NYexlgloRjSgaEH3u8GfXu05MGDxlEU6cxhFkVKNIhDOMmjVQlpjBhIBYG+TCA2TqaIay9DDBLwjElM4RZQSsaIMxmR4oZwtrLALMkHFMyQ5gVtBjCbHb4zBDWXgaYJeGYkhnCrKCFG4LT6fS7WbDZ7NAb3zWGsNYywCwJx5TMEGYFLdwQiouL/W4WbDY79MZ3jSGstQwwS8IxJTOEWUELNwSXy+V3s2Cz2aE3vmsMYa1lgFkSjik5xBDuwxCOEbndbq4Ls9lVbHzH8F1jaS0DzJJwTMnHIdzDhPDAk4HwiGMQbsMQjgFxSprNrnpzKjoiZIBZEo4p2R/CkxjCLDVxNMxmV505Co4YGWCWhGNKZgizKi2rNswgZrNDa3ynuBYcMTLALAnHlMwQZp2UcJMoLS1lELPZITK+S/hOMYAjRgaYJeGYkhnCrJAINw3UrxjGbHbljO8OvkP4LrEiSgaYJeGYkhnCrJDJioqRRsPNBE0GcGNhs9ly4zuC7wq+Mxz9RqwMMEvCMSUzhFkhF24kbDY7OLMiVgaYJeGYkhnCLBaLxWJVXgaYJeGYkhnCLBaLxWJVXgaYJeGYkhnCLBaLxWJVXgaYJeGYkhnCLBaLxWJVXgaYJeGYkkMC4fUb1tLno0fQp/37UPsODGEWi8VixYwMMEvCMSULCD9mQrh3D/pssAnhqQxhFovFYrFUZYBZEo4pmSHMYrFYLFblZYBZEo4pmSHMYrFYLFblZYBZEo4pmSHMYrFYLFblZYBZEo4pmSHMYrFYLFblZYBZEo4pmSHMYrFYLFblZYBZEo4pOcQQ7s0QZrFYLFYsyQCzJBxT8nEIdzchPKCyEF5jQng4Q5jFYrFYsSYDzJJwTMn+EP6aIcxisVgslqIMMEvCMSUzhFksFovFqrwMMEvCMSUzhFksFovFqrwMMEvCMSUzhFksFovFqrwMMEvCMSUzhFksFovFqrwMMEvCMSUzhFksFovFqrwMMEvCMSUzhFksFovFqrwMMEvCMSUzhFksFovFqrwMMEvCMSUzhFksFovFqrwMMEvCMSUzhFksFovFqrwMMEvCMSWHDMKjPh9O/T7tTe3aM4RZLBaLFTMywCwJx5RsQbiXCeFBnw2gKQxhFovFYrGUZYBZEo4pmSHMYrFYLFblZYBZEo4pmSHMYrFYLFblZYBZEo4pmSHMYrFYLFblZYBZEo4pmSHMYrFYLFblZYBZEo4pmSHMYrFYLFblZYBZEo4puQog/DFDmMVisVixIgPMknBMyV4IP2pCuJsJ4f4nC+FeDGEWi8VixZIMMEvCMSUzhFksFovFqrwMMEvCMSUzhFksFovFqrwMMEvCMSUzhFksFovFqrwMMEvCMSUzhFksFovFqrwMMEvCMSUzhFksFovFqrwMMEvCMSUzhFksFovFqrwMMEvCMSUzhFkhl8fjYbPZQZoVsTLALAnHlMwQZoVMbrdb2OVykdPpJIfDwWazKzC+K/jOWN8fVsTJALMkHFMyQ5h10sJTfGlpKRUXF4ubSlFREZvNDtL47uA7hO8SR8YRJQPMknBMyQxh1kkJNws8xTN82ezQGN8lfKcYxBEjA8yScEzJIYPwyFHDqW+/XtS2HUM4loSndgYwmx1a4zuF7xYrImSAWRKOKRkQbmZCuGcvE8KD+tPkKQxhlqJQv2IAs9lVY3y3uEYcETLALAnHlMwQZlVKuDmgfmW/cbDZ7NAZ3zEGsfYywCwJx5TMEGZVShwFs9lVb46GI0IGmCXhmJIZwqygxYOx2OzwmAdpRYQMMEvCMSUzhFlBCzcEzG203zDYbHboje8aQ1hrGWCWhGNKZgizghZuCBwFs9nhMb5rDGGtZYBZEo4p+SQg3MYG4WHHIPwRQzjKxRBms8NnhrD2MsAsCceUfBzCXRnCLDUxhNns8JkhrL0MMEvCMSWfCOFPTQhPZAizyhdDmM0OnxnC2ssAsyQcUzJDmBW0GMJsdvjMENZeBpgl4ZiSGcKsoMUQZrPDZ4aw9jLALAnHlMwQZgUthjCbHT4zhLWXAWZJOKZkhjAraDGE2ezwmSGsvQwwS8IxJTOEWUGLIcxmh88MYe1lgFkSjimZIcwKWgxhNjt8ZghrLwPMknBMyQxhVtBiCLPZ4TNDWHsZYJaEY0pmCLOCFkOYzQ6fGcLaywCzJBxTMkOYFbQYwmx2+MwQ1l4GmCXhmJJDA+H1a2jEyGHmTr2oTVuGcLSLIcxmh88MYe1lgFkSjilZQLjZo9SjZ1caaEJ40mSGMKsCMYSr14UFBVSYl0eFublUcPQoFWQdofzMTNMZlJ+ebjqN8g4fNp1KeamHKO9QCuWnHRbbFhUW+h1PuNA8Xn6GedxU87ip3n/z0s3XMqmoAPvlms73349d5WYIay8DzJJwTMkMYVbQYgiHzwBuQXa2F7JpaZSbkkzZe3bTkS2bKXPdWjq88BdKmfM9Jc+cRgenTqIDX4whY+wo2j/sM9r3WX/a068n7enVjfaPGGJuu8CEcqoNxOZ/F2RT4ZHtlJ84mfITBlF+fH/z34GUv3cs5R+YSQUpv1BB+moT9nEmoJNNOB8+Bucc81gFfufMDq0ZwtrLALMkHFMyQ5gVtBjCVWgf6CKSzd6dQGmLfxOQTRw1jPb07UG7u3WmhE86UEKX9hTfsQ3Ft/+Y4tq1pri2H1Jcm1YU9/EHtOuj92lX65a068P3hOPM/8d+h+b9SAVHjhx/P0TAmVsEePO2f0R5296nvK3ve//d1sr72l9tTLenvB2dKG9XD8rbPcwL58PLqDAr3gTzISoyo2hvxIxoOUC0za6UGcLaywCzJBxTMkOYFbQYwqGzFekCjEgZI8pNW/o7HZwxlfYPH0K7+/Sg+E7tKB6QBVwB1VbvVs4mlPf260U5ifsF7MX756WZEe9oL3C3vqvg98xtPzgG53aUt7OziJoLEidRwaGF5ufYbkI5xYTyEW8Km4F80mYIay8DzJJwTMkMYVbQYgifnL3gPUp5gC4iXRO6KbNnkTF+tEgdJ3Rq64UuotmTga7ECZ90pKwtm0VNGWnpguxEE6RdvXD1A66iETVvb21Cua0ZLQPKg6jgwCwqSF9LhTkHvKlrBnKlzRDWXgaYJeGYkhnCrKDFEK6ETeAV5uVSfkaGCd7ddHjRQjK+GEO7zS9eAiLd9h+JVHKooWs3UtiZ69aIQV2o5xZm7xPg9APryVhA2YyUd3SgvPi+lG9MN4G8TtSTi/KzeIBXkGYIay8DzJJwTMkhhnBPE8KtGcJRLoZwED6Wbs47dIiObNxAB6dPoT0ixdw2LNC1O6FrJ8rausUbCZuRKSLVk46Ey3XLY0DuSHlIWx+cQ4VZu0QaXAzs4ui4QjOEtZcBZkk4pmQvhB8xIfzJyUJ4KEM4RsQQrsBI8+bkiOlC2fv2ioFViZ8Pp93dOokBVOEGr2Wkt/cPHUS5B5PKRkh7a8KjgqgJn4RFhPwx5e3qSvn7JlBB2kozOj54LDrmUdaBzBDWXgaYJeGYkk+EcD8Twl8xhFnliyEcwEg55+ZSXvJBSl/xByVN/PJ41Huyg6pOxq1bCvjv7d+HMtasEg8IZedckEuF6WspP673MRBXVUTsawzu+lCkq0X9OHmeGGVdlJchRmv7/V5j3Axh7WWAWRKOKZkhzApaDGF/F+bniwYZmevXiagXU4ji2nxYteA9NvUIU5PiO3zsna5kAj+hc3tK6NJBpJ53d+8i4Js0dRJlbdsqadhRKCLRwvR1lL9nJOXt7OId9by9jXewFUZCI6XsB9IQWUTHbcTUpwJjqpivLCJjTlOXmSGsvQwwS8IxJTOEWUGLIezjggIxp/fozh2UNGmCmIsrol47ME/SgC1GTAO0gCxS25gznGh+75KmfE2H5v4gmnGkLVtCGWtX05FNG+lo3C4xHUl0zMpENyzviGi/zyAaduSKTlkFWTupIG2FGZ3Op3xjsgnmEZSHKBmDtzBXGOlkETGHGszveWvH5nsVpC42QZzpPS+/c409M4S1lwFmSTimZIYwK2gxhIu8dV8zqszZu1cAEPNv49qGqN6LCNcEOUZMC+D26EL7hw2m5OlT6PCvP1PmmtWUHR8numdhbjEAW5CV5W1hmZ0tUuKirWVBfgDolmOMXMaAqYIsMbUINWPM+y08Gm/C+U8xsCp/33gTlv2OgbmtCc8PKXRQNo+zqzsVmu/lHbglOccYM0NYexlgloRjSmYIs4JWrEMYgEN0mfb7b7Rv0KciOhXdqewwDcao2yKt3KmtF7ojh1HK7G8pY9WfJuj3iHaTiLgBWgHZY802wmYMnAIUkbpGT2kTzCJqTl1E+YkTTSj38Y6AFpEyum7Z4RqEt30gInAxgtp+HjFohrD2MsAsCceUzBBmBa2YhbAZVeYfyaSs7dvowITxou57UvBFxGuCF9Hu3k97i3R22pLFZpQbL6CLLlqFGEQVbuCqWkTN2d6FH3IOUkHmJjNS/oHydw/xtrisNJDfE9OmxLxi+3vGoBnC2ssAsyQcUzJDmBW0Yg/CaLSRJ6b2pC6YLxZFADwrlXq2Us1mxLvX/L4kTfqK0lcspxwjkfIz0r3pZF2hW64LvSObESnnHhL9qAsOzqb8hM+ORcitvXD1A67MgHA3hvAxM4S1lwFmSTimZIYwK2jFFIQR/WZmilaPxrjRImqtVPQL+LZrLQZuGWNGUtrviyhn314xl1hEu8HWbrW2BeQjAqToloUVmsTiDxgJXVF0LNLRI4+no0W3sWzzAeUw5WeZx8tKoYIcM/ouiI3pTAxh7WWAWRKOKZkhzApaMQHhY20mc5LM6PenuWK+b6U6XJnAju/QhvaY3w0synBk8yaxxi8iXm3TzCE1gIyBYunewV3J80TnLDHSWgpj28As0d86lbLiF9Lh5QMpZUEbOvTbJ5S+fgLlHNxMBblYKCKaHmD8zRDWXgaYJeGYkhnCrKAV9RAW0W+GCcyNlDhmFMV3bhd09BsH+HZsS3sH9BPLB+bsThB9owNPE4oBY3AX0tU5SVRwaPGx2vGxqU9/dfDWkeM/pYLU38umKBXmZlLmtlmUPO89SvruJTow6znTz1PS969Syi9t6MjO+WZ0nOI9tv39osQMYe1lgFkSjimZIcwKWtEMYTTdyE0+SIfm/0h7encPPvoV8G1D+wb1F/VjpJzF+r0xEfWqGvOSs00Yp5i/mx0iXV2QsV406gCgxbrEYo4wBsIdMGHb1gvfb5490eZrB+e+TenrxlNe2m7zbxedKzUxhLWXAWZJOKZkhjAraEUlhEXLyRzKToinpK+/DL72+yHSzh+bkW8fkb7O2b9PzN1l+JZnpKoxwhorOiFDgNWVfCBqRrd5aQkmaN/1B3CZW9DB2a9T6pLelG2YMM/FsonRBWKGsPYywCwJx5TMEGYFraiDMOqOJjCRfkZTDHSmUo5+j00z2tO7B6XM/o6y9yRw5BsqA8KHK4KwF8RJ374o6sVZu36mgqOHoio9zRDWXgaYJeGYkhnCrKAVVRBG/TcjXSy4gB7LwbScRCtJ9GdG5Iy+zKLmy/ANoVGbLycdbbe5TbIJ7IyNk8y/RaL5IBQd6xYzhLWXAWZJOKbkkEB4nQnh4SOGUu8+JoTbMISjXVEDYROYGKmM2u3unl3V089m9IvU8/4hgyh9+R/iGN71eSXvwT4pI72cuXkaHfzxLRHx+oHXzy3o4A9vUtqfwyg3Ne5Yndj/uJFkhrD2MsAsCceUbEG4e49PaMBAE8KTGMKsChQNEEbEmpuURMmzZlDCJx2V08+IfrEyEfZDO0kx1SjKapBauRALZBygjPVfmlHu22oRMdLT379KqUv7Uu7BLSaI0YM6cv9GDGHtZYBZEo4pmSHMClqRDmGMgMbAqaTJEym+Uzs1ACP6bdea9g0ZSBmrVlBe2mGu+4bLJojRoCNrx4+UsuBjUf+tOCo2Qfzdy5S6uBvlHFgvmn1EKogZwtrLALMkHFNyiCHcw4TwhwzhKFckQxhp4+zdCWR8MVaklFUBjNHSqP0ejY/j6Lc6jMFzuZmUY6yj1CV9KGn26wogftYE9kt06LfOlJO4xvzbR+Y6xQxh7WWAWRKOKfk4hLucDIRXmxAewhCOEUUmhM2beE6OWPfX+HwExbX7SAnAIv3cq6uYN4z5w4ii/Y/NDo8LRY0Xc4LT138p5ggrpacxcvrXDpS9708qRIetCAMxQ1h7GWCWhGNKPhHCfRnCrIoViRAuyMmmI1s30/6hn3kXX2hVAYCPTT3aN3gAZaxeKUZQc/SriVEnzkqhIzvmUspPH5ogfsEfvHZ/+4IJ4nZ0dO+yiAMxQ1h7GWCWhGNKZgizglakQRgR8JGtWwRQ4z5u5Q9cu4+NfsaCDUd37eT0s45GejonnY7uWUYpCzt6W1pWlJ4GiH9pY0bEyyMqNc0Q1l4GmCXhmJIZwqygFUkQLszNpaztW2nf0EHKAE7o3I4OTp4oBm/x1COdjUU2signaaPomIUR0UogRmraQI0Yg7Xsx9TPDGHtZYBZEo4pmSHMClqRAmEA9OiuXbTfvDZFD2g7cO0GgLt2pJTvZom1g7nxRmQYdeLc1F10eMVnagO2vn2RDv3WRcDbO33J/5g6mSGsvQwwS8IxJTOEWUErEiAMgGbv3UvG2FHHasAS6Pq6dUva3eMTSl3wE+WlpkZV28OYcEGeGLCVtnI4Jc35b4UgRvo69fcelJu8Tft1iRnC2ssAsyQcUzJDmBW0tIdwYaGIZJMmTaD49grTkADgXt0obcliyk/nAVgR64J8ykvfR+lrxoiuWRWD+GVKXfapWCRC54cuhrD2MsAsCceUzBBmBS2tIYxe0GmHKWXO96K2GxSAMzMYwJFujJzOMChj7XgTxBVFxC1E+jptzWjKP5Kk7d+eIay9DDBLwjElM4RZQUtbCIvVkI4IoO7u3lkNwD27Utrvi8TiC7rehNlBWoA40YyIR1PSnDcqBDH6Umdu/YYKsg9reQ0whLWXAWZJOKZkhjAraOkK4cKcHMrcsJ729OtV8WIMHx4D8OLfGMDRaAHi/ZS2amTFg7Ww+tL8lnQ04Tct5xAzhLWXAWZJOKZkhjAraOkIYXSyQjtKrAdc4XKEZoS8u1tnOrxoITfhiGYX5lNe2h5K+3NIxdOXZj1Ph35tRzkH1mk3YpohrL0MMEvCMSUzhFlBSzsIYyBWcjIlTf6K4tt/5A9dG4DRB/rQj7NF7ZgBHOXGYK3UXd55xKKhhwTAxyxGTJvb5abGC4D7HauazBDWXgaYJeGYkhnCrKClFYQxECszg1J/nk8JXTqUXwcWnbDa0MGpkyjPhDYDODaMecQ5SZvo0G+dRLMOO3yPGwO1XqP0tWO99WHJsarDDGHtZYBZEo4pmSHMClo6QbgwN4eOrF9He3p3Lx/ApuPatqYD40dTzv793IgjxlyYd5Sy962glAUfVbDoQwtKnv8+5aZsp0JNomGGsPYywCwJx5TMEGYFLV0gDJACqIkjh1ZYB8bP9w/7jI7G7TIjI72bM7Crwug1nUFHdszzrr5UTn344A//R0f3LNWmNswQ1l4GmCXhmJJDB+HhQ6hX7x70MUM46qUFhMV84DRK+e4biu/Yxg+6J7h1S9pjPiAe2bBeLObgdyx2bBjXTFYKpa/7stypSwfnvElZ8Qu16S3NENZeBpgl4ZiSAeFHTQh3696F+g/oS18zhFkVSQcIA6ZYYhCtJstNQ2Mg1icdKPWXnyk/M5PrwLHuwgIxYjr1j/6iY5YdwALCP75N2ftXiVqy3/7VYIaw9jLALAnHlMwQZgWtaocw0tCJiZSIhRkqSEPHt/uIksyLOi8l+gZiFZqfJwcPIxkZlJ6eTpnmQ0ZBObVubJ+VlUWHDx+mlJQUOnTokNgvOztb/Ey2fV5entgG26empor9ZdvC+fn54hxUzqU6XViQSzkHN4tFHE5cArGFmMqEEdJ5mYY21wtDWHsZYJaEY0oOMYS7M4RjQNUN4fwjmXRo3o8U36mtH3R9HffR+7RvyEDKTogT84jtx4lkA3CA6MKFC2nUqFE0ZMgQ+vLLL8Vrdkha8N21axdNnz7d/FL3oY8//pjatGlDAwcOpHnz5tHevXspNze3bF/8C5CuXLmSBg8eTK1ataLOnTvT1KlTad++fQK4vu+B/4+Li6Nx48bR0KFDafLkyZSWluZ3LroYqeacA+spdWk/0ajj4Nx3KfmnVmIBiByxqIMeUTDMENZeBpgl4ZiSj0O48zEIT6gshAcfg3ArhnCUqzohjEFVR3dsp73mBVpuVyw05Oj5iUhZF2TrUdsLlQE8gHD48OF0/fXXiy/xRRddRI0bN6bt27efEIECgohMv/nmG/rPf/5Dl1xyCV144YV07rnn0nnnnSf2u+KKK+jFF1+kFStWiMga+x09epR+/PFHatq0qTg+tj///PPFtu+//76Ati+wESl369aN6tatS5dffjm99957dPDgQb9z18eFIt1ccPQQ5WXso7z0vSL6LchO025VJYaw9jLALAnHlMwQZgWtaoMw0qOHD1PS5IkU1661P3h9jPnAKbO/pfz0NG3SioEMiB05ckREsTBAGCiCxM+2bdsmIlnA7pRTTin73tSpU4c2b958AoSx/W+//Ua33HILnXHGGeJ7edpppwmgAqzYH68ByE899ZSIlrE/IP/ss8/S2WefTX/729/onHPOodNPP138N97nq6++EueM90AEvXTpUrruuuvo73//O9WvX5/mzp0r0tz289fS+F2L37f3d55fmE9H8o9SWm6m6QzKzMuivIJ8KrTvFyYzhLWXAWZJOKZkhjAraFUXhAvNm33m+nUVLs6ANPT+IYMoB9GapnVJXwNm33//PbVr106kfNevXy/A5ruNlR5etmyZgOPFF18sgOj7vZFBGHXcLl260AUXXCC2AUjvvvtu6tixI33wwQd09dVXC3Di+wqo4zxQY8b7XHnlleJ1APutt94S+2H/M888k1544QU6cOCAOC/DMETkC5DD+G+8FuhBQlcDsjkFuRSXuZ9+2P87jd75DY3cMZ1m7l5A29MTKCs/29wm/J+JIay9DDBLwjElM4RZQataIIwo2ATKgS/HUZx5jdnBW2aMhu7aidKX/xExaWhEv4AiUsWIIr/77juRDvbdBlHlzz//TPfcc4+IShHBAoaIaq3vmgzCSUlJ9PLLL9NZZ50ltqlVqxbNmjVLvB4fH08dOnQQkMXPAHakuJFGnjlzptgWx0aKecmSJdS/f3+Rvga0b7/9dpGSxnkh6sV543V89xEV2x8iIsGIdgHbkTtmUPdNo6nzhhHUacNw6rpxFA3ePplWHtpM2dUwd5ghrL0MMEvCMSUzhFlBqzogjCg4Y81q2t2tU/lRcNvW3tHQqYe0T0NbRj31o48+EulhgA8AxEAq320QnQKQl112mYBd7dq16ZlnnhE14VNPPVV8b2QQBuARYSNCxTbW8TFoCilnXwjjIQAPAMnJyTR27Fhxc0C0jffYunUrTZkyhWrWrCm+29dcc42A+J49e0RUDMij1vzJJ5+IzxNpUTCcnneEvo7/kT4xodth/bAT3MkE8oi/ptGeIwYVFIY3u8IQ1l4GmCXhmJIZwqygFXYIIwo2YWKMH11+FNy6Je3t15uO7vhL+9HQgJRlQKt169Z+ELZ+ju0B1p07d9Jrr70moNirVy/6448/6L777hPRML43MgjjODNmzBCpZnwnkU7GPpMmTaJBgwZRw4YNBdTh2267jXbs2CGAP2HCBKpRo4aAMGq9W7ZsoYkTJ5a91qhRIwFmHAcPBngQwP5//vmniLKRjsa/gL2uU5V8jTTzwexUGrD1K+poA7BlRMdz9y+hI3knZimq2gxh7WWAWRKOKZkhzApa4YawaMyxcgUldO1YbhSMKUupP82l/GMDhnQ0oIoUbkJCgoAqvHr1anrjjTfEICgrJQyY4mcYKJWYmChGRCPF+9dff9Gvv/4qAIco9N577y03EsZ/471eeuklURcGQAFiwNRKLcOoDY8cObJs3jBSzIiM8T3GcefPn09du3YVx8D7YdT0okWL6OGHHxYDvnC87t27iylQeKDAIK9XXnlFTIHCOWO+sf13oZNFbftoMvXb8qUffC13XD9cpKV3hzkaZghrLwPMknBMyQxhVtAKK4RFFJxCiWNGltuYQ8wJHjyAchL3i2YefsfRxIDpxo0b6Y477hC1VmtKD6JgABK1XnwpAT78DHBETReDoKz9rdHTSCejRlwehGFsj6j5wQcfFAD2/a7hewrYYp4xolfsC2/atElE3DgfpJoBe6vui4eF559/XqSekZ4GhAFlQBhRM1LfeA37IbLHtoiw7eelk72R8CHqb0bCdvj6RcOJS8MaDTOEtZcBZkk4pmSGMCtohRPCWCUpY82qCqPghM7t6PBvv1LB0RNrqboZEEXki5HHSCPDgKg10hnfG4APr+FnAN4jjzwiomH7sVQgDFhjhDRSydYUIrwH/sV74r/xAIBIfN26dWWAR124bdu2ZelnnAvOCwaMkQ6/4YYbxOuXXnop9e7dW5wLII9tEDEDwtgX9esRI0aINLf9M+hkTEcas3OWGJBlh6/lTsei4T1ZB8IWDTOEtZcBZkk4pmSGMCtohQ3CJgzyMS/4qy8ors2HfuD1jYKxQlLOAbQaDM+NsbIGIJGebdGiBd1///3CiCIBMgu+1157rQAafoboFQOrUDe2H0sFwqgJo8aM76QFUnzpUb+tV6+eGGENUGJQFQZ6IQLGgwKMmi+mJgG6iHgBUzQEQVq6ZcuWYh+Atnnz5vT111+L98f3Hil1bPPYY4+J4yMqxjaItO2fQScfzc+h35JWUc9NY/zg6+se5s9/OfCnmLJkP0ZVmCGsvQwwS8IxJTOEWUErXBAuzMujrK1bKlykIaFLe0r7fREVZIcvRXgyRm0XQAJEYYATsMPUI3whx4wZI2rB+Nn+/fsFgO1tImEVCON9kA62olKknhHFYrsFCxZQs2bNBCjxfcV7I8WMyBn7oo6L/TE9CW0ov/32WxHFo16M7zjeFyDHwC9E2tbIaUAbA7TQ7hJ1Z4D/5ptvFjVs+2fQyQXmQ1/i0YM07K8pYmqSHb5l0bAZKWP+cFL2obDMG2YIay8DzJJwTMkMYVbQCheE8zMyKHnmtHK7Y6FOjPWEcw8mRcyUJLtVpijJXBGErfozphMBwIAtol2rKxbmIqObFkCK7yuOg4YcOK71HkhN46EBDUVwTngoQNtK1H1xvu+++66o944ePVrcTADcJk2aiPaZ06ZNKwNzgwYNxJQm+2fQzVn5R2l+4jJR+7XD19e9No+jFckbRXMP+zFCbYaw9jLALAnHlMwQZgWtcEAYU4yy4+PEOsDlRsGd21HaksUR05hD5qqCsO8oZ/wckTagaXW6slLjSE1bNWKkwnfv3u33XtbxsNiDb2MORMlYlQnpaKt+jGPgPL744ouyucaoRwc6rk7OLyyghCOJNGjb12I0tB2+lrtsGEkT4mbTof9n7zzAoyi3N77+7/Uq9nIVxX4VGyBg76KIvSBFEUVRkZbeCOmFEjqEHnrvvfdeQye0UDKhV+koInr+3/tNJsbZSTK7md3MJud9nveBJNvL/Oac73znnD3u8WiYIWx7KWCWAcdMmSHMclnegPBFAaHDkyfQzvAgJ/DmRsEBTWlvuzY5a8GePRB60kj/Ig2MiBQAmzBhglPHLCMXBmGkkzGUAUMXtGIsFFNhMAOiUvSgxgQmrPXi7yiqwpYjoyIwQBvpZAx60BpzoB0mCrgA52nTpsl1bdwO9g0jdY21bDQCwVp0tWrVZBStv107+sT5X2jc3rkUva67E3w1Yy9x0oY+tPzQBnH5Ux4t0mII214KmGXAMVNmCLNclschjBTowQNyyxGKrvTw1QxAY6QhgO10Gz5kVCSvWLFCNr5AChcRo9EasN6FQRjgRGvJGjVqSMDiOwkgYkvU888/L7+niF61IQ6IwjHmEJGt/r6Qjsa6MK6rNeZANTUeJ+4P6WcMiQDocV+IfHF7uG2krrF32Ki4zI7GAIeME5nUZmO/fBt3wKiUTtk8gGYoS2nPL9lqb2kPnAwyhG0vBcwy4JgpWwbhzoBwQiwFBjGES7o8DWE5qGHNKtoVFe4E3lz7N6HdiXEyZW337liFGQdugBigg80AGC4MwrA2khCABAw14ObdogQwI2XdoEED2SBEv58XP2MdGVEyAIt13vbt28tuWNplEM1jmxKiYNyHdvu4bVRUY+6xNibRF3z83EkatmsaRaU7t7DUgxjV0h23DKFZ2cvp0JmjlkfFDGHbSwGzDDhmyhLCH7xP0TGR1LqNM4TjGcIsvTwNYVmQNWIo7SyoIEv87cDwIXTh+HGn65cWo3K5Tp069Oijj8rGHi+//LIsksobjeH/mL40b9488vPzk0VTgDWgi/QxUuDvvPOO3Me7Y8cOw85WADlS5BjagPtCNyx98w38H+lqNOzAfQDGSIMjDY0uWujE5Yko0VNGwdXyQ+spYUMvJ/AaGTBO3NCbRu2eIdtfotJaf5vumiFseylglgHHTJkhzHJZHoUwokJlH+1pnSh7Qevhq7qJHORwav06uY3J6TZKiRExA8RoS4k1XqSejaYXaZE20sG43OrVq2Xry/nz58ue0Iio0UhDHwHnvT7+DsjivnCfRrDG9RERI5rGJKVVq1bJ62h9sPWXt7PPXTxP6UcyJFjzwhbFWlgrRvQLY8KSlrLGv6ianrxvoVxXtmr+MEPY9lLALAOOmbLFEI5hCJcCeRLClwQsji9dTLsiwwzgmxMFBzanrK6dZDtLXy7IKi5rrS8B7PzAWxQDuIA07sfX4Kv59IUzcq0371YlVESjanrsntk0/8Aqmrt/JY3YPZ1ab+wnImG1yxYg3XbTANpyPJPOXzK3rFCYGcK2lwJmGXDMlFUIvycg3EJAOKkoEG6fA+HmDOESLk9C+MLJE3Rg6CA5klAPX82yIGuq7xdkse3rI+dOUO/tY3JbWOLf1IyRct4wqqExVxgdto6dO0lrjmyh9gLOSEnjsjEiUkZ1tVX9pRnCtpcCZhlwzJQZwiyX5TEIoyr6wH7aIz6I+aai/ZtQZmwk/bJ1i88XZLHtaewV3n5izz8mKiEtvfrwZjpz8Z/FZdgjfPL8LzQre5mImtV2l4Bx5y1D6ehZa+oVGMK2lwJmGXDMlBnCLJflKQjLqui1qwusipYdsnp0pfM5rRXZbKuNoqwVhzfmFmVpIwwPnj1q2JgD0N5xcg8lbeybC22kqPefPmxJOp4hbHspYJYBx0yZIcxyWZ6C8MVTp+jQuNG0MyzQCb6ad0aE0JGZ0+miiWYWbLY7PiMgvOjgWopfr0IY672pGSPklCX9ZWGAFsAFeDUII4rOOn2QIVw6pIBZBhwzZYYwy2V5CsLnjxymfV075t+gI6Ap7W6dSGcyM+mSBwqK2GxY3Z604R+RcMqmgZR9+lA+kbDa3AMdtPJCeN8vByzZqsQQtr0UMMuAY6bMEGa5LE9AGOu7WOfNjG2Zb69o7Bs+OGq4LN7SX5/NtspyTfjkP9eEERUvPLCGTl04/Q8Q4/8ozpq4bwHFrFMrqbFVKWXTALlf2AjarpohbHspYJYBx0yZIcxyWZ6AsKyKHj64wIlJO1uE0LGFvj2sgW1/Y3+vWh09Nrc6GsVWHTcPplWHN4m/HZfTlgDkQ2eP0oIDqyWwtYEP6LI1dNdUWUWtv213zBC2vRQwy4BjpswQZrks6yF8ic4fPUJKn560I9jPCb6aZYOOjet9skEH9uMWdU8u1hfR+AJDE9AUo6i3x87fWBdefDBdppi1ZhxYG07e2JcG7JwoIt/5NH7vXOq9bYysnNYAjH/Rc3r90W2y4Yf+dt0xQ9j2UsAsA46ZMkOY5bKshjBS0ae3b6PdrRLy3ZqEdeJ9HVPkYAdfadCBZhjoUoUuU5jru379etlBCr8z2x86r9E+cubMmbL9JAYtAMT6y7CtMdLIh0XEOzxzumzYkbcrFpp2YC8wjEg575AH/G7C3nl0XETBVqSiYYaw7aWAWQYcM2WGMMtlWQ5hObBhZcFbk0SEvL9/X5/oFa1FrBgj2KxZMzk84bHHHqPHH3+c3njjDYqIiKADBw64XDmL1pHdu3enhx9+WPZ79pXRgL5qrA2juGrwrslyTbig+cKakZbOPJVl6RAHhrDtpYBZBhwzZYYwy2VZD+GzdGLFUtoVGeoEX807I4LpyIxpPrE1CfN10Zv5lVdekaMCAWBA8+2335YjBIOCgmRKGRDG1CT8H0BF72fAGb/D32DcVnZ2toygMTQhJSVFjgh89dVX5eVxf4iqDx8+LHtA43K4PIY2GEG+sPvULmflbeK2cP39+/fL3+H/uF20zjS6PTsZIEaB1ZSshXIfcGEgbrOpn2UFWZoZwraXAmYZcMyUGcIsl2U1hGVR1rDBBbaq3NUyjE6uXSOjZv317easrCyqVauWHGiPyUaTJ0+WIAN4MEAB/6K3MqJljBls3ry5hDQu+/3339PAgQNlqhnp5zlz5tCXX35JVatWlXOBMTXp9ttvz4UwbgfjC8PDw+nNN9+Ul6tbty7169cvF/R5H1th94nLW32beD3wHL755hsaMGCAfA64HNLz7qTlvW1sMzp69gRNz1ryj17SRsaaceZJjoRLmRQwy4BjpswQZrksqyF8/tBB2pOckO/WJDk1KbYlnd65w/atKlEshfXf//3vf3TnnXdSx44dJbgURZFRIgCM/2O9GOnlHj16yBGB8AsvvCAjZ3x/pk6dSps2bZLgBczxe4wdxCxfzPTVIIzbq1+/voyO77nnHjnSEJd94oknKC0tTUaveR9fQfc5bdo0CX6rb3PLli0yFX/TTTfJrMD9998vL7N161afKS4DVPecyqY2G/v/Yw1YbxRprTuaYVlRFswQtr0UMMuAY6bMEGa5LEshLA7CZ/fuocyYSAP45hhFWZ3bC1jbf2oSUqwAD+b1wtOnT5dzeuvVqyejPxhRIVLLuCz+hssvWrSIxo0bR0899ZQEWHJysowkMZcXX9K2bdvK2/r000/p5ptvlhDevn27vC4gicu0b99eRs4A6B133EEfffSR07oxotz87rNDhw4yjWz1baanp8sTiGuvvZYqVqxIrVq1kreJCFr/+tnZR8+doJ7bRuduWzIy1o4XHVjr1GO6KGYI214KmGXAMVNmCLNclpUQlpXRGVtpV3SEM3xzjKKs7P596MIJ+xdlAaxYDwaAEUmOGDFCzuwFNAHUMmXKSCCtXLlSrrmOHTuW/P39xZfwAxlFIupFujksLEzCCiArX768TA/j8lgTRjSM29u8eTP16tUrd90Zlzl27Bj17t0793eINrX0Mf7F3/O7z4SEBBkFW32ba9eulc/5tttuo8jISJ9ZD9YbgxpG7Z4lZwjr4as5dl0PuX78ywXr9rIzhG0vBcwy4JgpWwPhNSupk4hU4gWEAwIZwiVdlkJYDm1YQ7ta5l8ZjV7SB8eMpAun/pkGtaORXsVaJ9LRABEqoZE2XrZsmUzZAmRIxy5evFhGtpUrV5Yp348//lhWUj/66KMyjR0aGkqJiYny8ogqETkfP35cVkfj8oAw0rx9+vSRl0G6F3BEqrh///7yd6iiRkpbS/lqJwj53Wd8fLwEpNW3uWbNGglhnJQMGzbM5yJgzRhdOCd7BcXlTEsycpQA9LDMaRLY+uu7a4aw7aWAWQYcM2VA+H0B4ajoFtSqdRINGMgQZhUiKyGM7lfH5s+V3bD08M2FcDgqo6fSxdPWHdg8aRQiffbZZzJtjLVPFGYBmKNGjZIgAoTnzp0r14vxBQTYJk6cKIubEGki7Qt4I/pERA24DRkyhFatWkU//vijjCgBYaSAkdZF6hiXQdETLtO0aVMZhSIiRUGY9riwdtulS5d87xPARDra6tvUIIzbGz16tFx31r9mvmCs86Yf2SrXffXw1YxUNRp4oJWl/vrumiFseylglgHHTJkhzHJZlkIYk5PGjKKdoflPTkKUfGr9Op/plIVID7DB+ieiYQANMEZEe/3118soccmSJRJYWsSMtdbXX39dppoRQcbGxsp9xoDtDTfcQA888IDcb/zggw/KlLZWmAV/9dVX8osMuFeqVEn+H5dDQ4+jR4/mPi5sd5oyZUq+9wlgoprZ6tssKRBGcRYqn1EBrYevZmxh6rhliFw/1l/fXTOEbS8FzDLgmCm7DeGw8OArzhCOZgiXAlkJ4QvHj5HSq7ucE6yHby6EYyLlcAe7V0Zr1tZJx48fT59//rmsKkaUCBABaA0bNpRRLAqcsGf4mWeeoQoVKsiiq5CQEAnYzp07y4h6+PDhEmq4Ln6PCPnZZ5+VW6C0KmusuTZq1EjeDmCIv8fFxclOXXmrj/G4cJ2C7hMpb6tvE2vieA44iUDxFsCtf818wegpffDMEWqzqb8TfPMae4UPnsHsYefbcMcMYdtLAbMMOGbKf0M4QkA4UUA47R8QTkiIiXYYyTkSbpcD4WYM4RIuKyGM8YUYT5hfu0psW9qdGEtn9yu2r4zOa8AJER8AtW3bNpnSxVox9gmjaQUqirFHFtuXsN6LdVZAGcVXiEQRbeLvaG6RmZkptz0BgPg70sG4XW2PLW4LaWSAXbscIlqjPbgAaEH3qQHWytvEujH+j8etbwria0aE23nLMDnQQQ9fzckb02jvL9mWjDGEGcK2lwJmGXDMlAuDcL6RMEO49MpSCAMqSXH57xEWv8+Mj6JzB/b7FITzWusald+eWPw9v7/l/Xth8Crsdty5rNnLuXpZX/Xxcyep7/ZxFJnezQm+mpM29KWME7vlnGH99d0xQ9j2UsAsA46ZMkOY5bIshbCIrvamtMo/Eha/3yP+johZf10229tG1TOqn1EFrYevZqsbdjCEbS8FzDLgmCkzhFkuy2oI70lJzhfCO0L8af+g/nThhHWFLmy2uz51/jSN3TuHotd1d4KvZjTsWHZoPZ29aE2LVYaw7aWAWQYcM2WGMMtlWQvhw7RbfNjyS0fLRh39evvE9CR2yTeacEzOWkgx6/LvIY19xAsOrKYzF6zpmsUQtr0UMMuAY6bMEGa5LEshfOigXPPVwzdvJHxg6EA55EF/XTbb20bDjlnZyyi2gIYdgPCc/SvkZfXXd8cMYdtLAbMMOGbKDGGWy7IMwpcuyYIrDGfQw1czRhgenTPTJ0YYsku+Ed0uPLBGgLaXE3w1Y9LSTAHq0xa1rmQI214KmGXAMVNmCLNclpUQPputCAjnP7wBnbSOL5gnO2s5Xb8UGlXWhw4dkluCsN8WP2NvL7YPYVuR/vJsa4113qWH1sl1Xz18cyG8rgdNzVpkWf9ohrDtpYBZBhwzZYYwy2VZBWFsaTmrMIRdMeCLvtJ+fn5y7zH28nbr1k020sBUJaN9vGzrDAivOLyREgqAcMy67jRp33wBYWuyNwxh20sBsww4ZsoMYZbLsgrCaiScXXA6miH8D6NxB75f6KCFkYEYsFCtWjXZjQo9qn21G5WvGBBeWSiEe9DkfQsYwqVHCphlwDFTZgizXJaVED7H6WiXjI5befswo7UlZvYiEsZoQ3Srwu8w+UhrnoEhC/hdtjjhQfcq/IuuXehehf9jchLgjXQ2Ol3hZ60rl693uLLagPDig+kFp6PX96DpyhJOR5ceKWCWAcdMmSHMcllWQvhs1j7KjCkAwhEhdGzubAFha6IKX7cewkhBY2jCW2+9RUOHDqWvv/5azvQdOHCgBDEAnJaWJn/3008/UXp6On355Zf0zTffyAlJderUoXfeeYdWr14t+0Wj5/Mbb7whI2v0vcb0JrSeZBCrRmHWvP0rCxxniMrp2dnLuTq69EgBsww4ZsoMYZbLsgrCl0SUdnbv7oIhHBZIh8aOogsiItNfvzRaD2FEv+XLl5fTjjD6EMMhMP6wbt26MvpFZFyzZk35u8DAQLmOjMvfdNNNctwgrvf888/L8YX16tWTt4uBEy+99JL8PyZBYUoSp7lVm5kpjL/N533CpUkKmGXAMVO2FMJx8dHkH8AQLumyCsK56ei4AtaEw4Po8OQJdNFHB8FbbT2EMTBB+3nw4ME0aNAguu+++yRoly1bRosWLZKjEwHbCRMmSGjj8tdee60EbKtWreRko7Fjx8pRhXfddZcs9MKYxU8++USOJMSEJFRk6x9LafSZi2dlI474AiCMVPXSg+u4Y1bpkQJmGXDMlCWE33+PWkapEO4/wA0IrxYQ7tiJIVxaZBmEf83pHd2hLe3Ip20l9gkfmTGVLp5mCMMFQXjUqFFybOBrr70mf05OTpbzfPF/pJwxCUm7/m233UaRkZFy/RfrwD179pQHg+uuu06mojGGEJcDlOvXry/XkPWPpTT6/KULtPn4Lmq1sR9FGAAYxhQlXAaX1V/fHTOEbS8FzDLgmCnnhXByK4Ywy4SshDAi3CNTJ8kCLD2A0U8aLS1PbVhHl85bE1X4uguCMH5GMVVsbKxMP2OdGHN8y5UrJ4GMGcfa9cuWLUvDhg2jX8Trj3Xj1NRUuvPOO2WaGvOAv/32W7lu/N1338nCL6wL6x9LaTRmBB87d5KGZU6XW5H0AI5K70Z9d4ynw2ePi8tas47OELa9FDDLgGOmzBBmuSwrIfwr1oWVLMrq3oV2hgXRjqDmqoP9aXdiDB2bP5cunDrps2MMrXZhEEbjjgULFsj1XkD19ttvp8cff5yWLl0qq5/118fMYxip6gceeCA3HY21YxRxrVixQhZ/cSOQv33h0kXa/YtC/XZMoMQNfSSMMdAhfkMvSs0YQZuO76DzFk1QghnCtpcCZhlwzJQtgvCKHAhHMYRLgSyFsPClc+fo9NYtdGDoYMpK7Sy9X3wQT6xeSRdOMoDzWg9RPYQR2aIYq1atWnTDDTfQjTfeKAuuECEbXR8ARuUzUtUo4MIBAQD/4osvqHbt2lSjRg0aP368vF39YynNxqzgA2eO0NKD62ni3vk0fu9cmrd/Fe05lS3XghEx66/jrhnCtpcCZhlwzJT/hnC4gHCCgHBfhjCrYFkN4V9/vUSXRKSFIQ3njx0TPipHFwLODOB/es+ePTLFjHVbFFRt27btHz+jihlbk/r27UuVK1emKlWqyGIt7Pc1ur5W9Yz9w4iWf/zxR6pQoYIs7HrqqafEweF9mjdvnvy7/rGUdsuObwK4py6cliMOUQ19UUTJ+ssV1Qxh20sBsww4ZsoMYZbLsh7CbLNGWhggRTMNgPWcOFHJ+3PeBh3oroXfa407jK6v/R7/4rbQBhPpZ+wb3rBhg7ysFi3rHwvbO2YI214KmGXAMVNmCLNcFkO4ZBvARQ9qwFz/N7b3zRC2vRQwy4BjpswQZrkshjCb7T0zhG0vBcwy4JgpM4RZLoshzGZ7zwxh20sBsww4ZsoMYZbLYgiz2d4zQ9j2UsAsA46ZMkOY5bIYwmy298wQtr0UMMuAY6bMEGa5LIYwm+09M4RtLwXMMuCYKTOEWS6LIcxme88MYdtLAbMMOGbKDGGWy2IIs9neM0PY9lLALAOOmTJDmOWyGMJstvfMELa9FDDLgGOmzBBmuSyGMJvtPTOEbS8FzDLgmCkzhFkuiyHMZnvPDGHbSwGzDDhmygxhlstiCLPZ3jND2PZSwCwDjpmypRCOjRMQ9mcIl3QxhNls75khbHspYJYBx0xZg3BkyxwI93cTwh06qhD2YwiXeDGE2WzvmSFseylglgHHTPkfEE5OoH4MYVZhYgiz2d4zQ9j2UsAsA46ZMkOY5bIYwmy298wQtr0UMMuAY6bsAQg3ZQiXcDGE2WzvmSFseylglgHHTFmFcI0CIBxtFsIpAsItGcKlQAxhNtt7ZgjbXgqYZcAxU/4bwmECwvECwn0YwqyCxRBms71nhrDtpYBZBhwzZYYwy2UxhNls75khbHspYJYBx0yZIcxyWQxhNtt7ZgjbXgqYZcAxU2YIs1wWQ5jN9p4ZwraXAmYZcMyUGcIsl8UQZrO9Z4aw7aWAWQYcM2WGMMtlMYTZbO+ZIWx7KWCWAcdMmSHMclkMYTbbe2YI214KmGXAMVNmCLNcFkOYzfaeGcK2lwJmGXDMlBnCLJfFEGazvWeGsO2lgFkGHDNlhjDLZTGE2WzvmSFseylglgHHTJkhzHJZDGE223tmCNteCphlwDFTZgizXBZDmM32nhnCtpcCZhlwzJQZwiyXxRBms71nhrDtpYBZBhwzZfchHO4M4ZhYhnBpEEOYzfaeGcK2lwJmGXDMlAHh9wSEW0SGSfA6QTjeBIRXrV5B7TuoEG7uxxAu6WIIs9neM0PY9lLALAOOmbIThPsxhFmFiCHMZnvPDGHbSwGzDDhmygxhlstiCLPZ3jND2PZSwCwDjpmyByDchCFcwsUQZrO9Z4aw7aWAWQYcM2WLILxcQLitgHAkQ7gUCAeEy5cvOx0s2Gy29cZ3jSFsaylglgHHTPlvCIcK8MYJCPdmCLMKFg4Iv//+u9PBgs1mW2981xjCtpYCZhlwzJQZwiyXhQPCH3/84XSwYLPZ1hvfNYawraWAWQYcM2WGMMst/fnnn7wuzGZ72PiO4bvGsrUUMMuAY6bMEGa5JU5Js9meN6eifUIKmGXAMVNmCLPcFkfDbLbnzFGwz0gBsww4ZsoMYZbb0taGGcRstrXGd4rXgn1GCphlwDFTZgiziiQcJK5evcogZrMtMr5L+E4xgH1GCphlwDFTZgizLBEOGli/Yhiz2e4Z3x18h/BdYvmUFDDLgGOmzBBmWSYtKkYaDQcTNBnAgYXNZhsb3xF8V/Cd4ejXZ6WAWQYcM2WGMMty4UDCZrNdM8tnpYBZBhwzZYYwi8VisVjuSwGzDDhmygxhFovFYrHclwJmGXDMlBnCLBaLxWK5LwXMMuCYKbsN4TADCEfHMIRZLBaLVaqkgFkGHDNlCeH3alBEi1BKTCoChNu1VyHcrDlDmMVisVilRgqYZcAxU9ZDOI0hzGKxWCyWaSlglgHHTJkhzGKxWCyW+1LALAOOmbIHINyYIcxisVis0iIFzDLgmCmrEH7XCgi3ERBuwRBmsVgsVmmSAmYZcMyU/4ZwiIBwLEOYxWKxWCwXpIBZBhwzZYYwi8VisVjuSwGzDDhmygxhFovFYrHclwJmGXDMlBnCLFZpEYYEaGaxWFZJAbMMOGbKDGEWqyQIYP3jD6LffiM6f57ol1+Ijh8nOnyYaP9+cZhQiLKyVOP/8MGDREeOqJfD5XE9XJ/n2bJYrkgBsww4ZsoMYRbLVwXw/v67Cs9jx4g2byaaPJmoWzeiiAiib78l8e0meuEFoooViSpU+NuVKhG99BLRRx8Rff89UcuWRD17Es2YQbRzJ9GJE0QXLhBducKRM4tVsBQwy4BjpswQZrF8TYh4AUhEsYsWEaWmEjVuTPTmm0TlyxM9+CDRvfcS3XUX0R13EN16K9HNNzsbv8ff776bqFw5ooceInriCaJ33yUKCCDq25do1So1Ur50iejPP/WPhMViMYRZrFIgLd185gxRRgbRwIFETZuqUS7gWbYs0e23E91yizNsXTGuDzDfcw/R//6ngj04mGjUKKJ9+9Som9PVLFZeKWCWAcdMmSHMYtldgN7Zs0QbNhB17UpUu7Ya8QK8t93mDFKrDCAD7Iiqn3ySqEEDon791HQ1InFOU7NYkAJmGXDMlBnCLJZdBcghDbx7N1GvXip8H32UxLe26BGvq8b9IW39+ONE331HNHQo0aFDRJcvM4xZpV0KmGXAMVNmCLNYdhSiXxRHodAK672AX3HAV28NxijuCg0lmj9frazm9WJW6ZUCZhlwzJQZwiyWnYSoEtuEMjOJOnQgeuMNtWiquOGrN4q6HnhAra7u00fdCsWV1KzSKQXMMuCYKTOEWSy7CAA7d45oyRKiwEB13RdFUnYDsGY8LkTn4vtOsbFEmzap6XMGMat0SQGzDDhmypZCOCqaIcxiuSWA6/RpoilTiL7+Wq14zm9rkd2Mx4lKalRrY8sUKqgZxKzSIwXMMuCYKWsQDo8QEE4sCoTb5UC4GUOYxXJJANapU0QjRxJ9/LE908+FGY8X+5O/+YZo5ky1mptBzCodUsAsA46Zcl4IJwgI901jCLNY3hNAhcKm4cOJatRQtx35GoA143Hfdx9R3bpq5y2k1hnErJIvBcwy4JgpM4RZrOISAIXmG2PHEr3/vm8DWLMG4nr1iObNI7p4kUHMKulSwCwDjpkyQ5jFKg4BTAAUUrc1a6odqnwdwJrxPFA5/cMPRKtXq3uJWaySKwXMMuCYKVsI4dYCwhEMYRbLjLCdJz1dBdX995ccAGvG83n4YaKwMKK9e7nVJaskSwGzDDhmys4Q7sUQZrE8KjS2wL5aTC565JGSB2DNqJpGk5FOndTGI5yWZpVMKWCWAcdMmSHMYnlT2laktDR1f62vbENy19jnjIYjEyao/aZZrJInBcwy4JgpM4RZLG8K66NoxvHpp2qjCz20SpoR5WMABNLu27apk6BYrJIlBcwy4JgpM4RZLG8JUfDRo0RRUWozjpKahtYbz/Oxx4i6dFG3Y3FamlWypIBZBhwzZYYwi+Ut/for0aRJRM8/79kRhHb0nXcSffghiQMG0e+/618ZFsuXpYBZBhwzZYYwi+UNIfpDMVZAgNoRSw+pkm6tWjo5mejkSY6GWSVJCphlwDFTZgizWN6QFgVXrlzyi7HyM4q03n2XaPlyjoZZJUkKmGXAMVNmCLNYnhaivuPHiSIiSmcUrFmLhjGiEZ3CWKySIQXMMuCYKTOEWSxPC1Ef1kKxVef2253hZJUBOVRco/sWYI+qZKzFFlQAhseT9/J33eXZSB2Pr04dol27uIEHq6RIAbMMOGbKDGEWy9PCIINu3dQosCAgumvcJuBZsSLRF18QBQcTRUYShYYSffCB+jf9dWAA+Nlnifz91cYhiNS//ZboxRfV/s+egDEe6xNPEI0erc4eZrF8XwqYZcAxU2YIs1ielFaQ1bAh0d13O0OpqAbUEMV+9RXRggVEBw+qqe8jR8ShQVHHI2LWr/56MK6HtpLbt6uXP3ZM3UK1ebO6jap8ec+AGPcL6GN8I4vl+1LALAOOmTJDmMXypJCKXrqU6LnnPAM0RLkYHQhwYiAE2kNu2UI0axbRqFFEP/6oppv114NRKPXWW0T9+qmjB1etIjp0SI1Q9+8nSkz0zH5mpMg/+YRo9261hSeL5dtSwCwDjpkyQ5jF8qTQqhGQQ49oPYyKasARKeg5c1QAA2otWhBVrao2x0AEXNB4RPweQESaHJevUIHo66+JFi9Wbw/rtoAlLqO/blGM+33ySaLp04l++03/irFYviYFzDLgmClbC+GoCGrKEGax/hY6RGF91hNV0YiC69dX0924n9hYokcfdT/iBhwRNWO0IoCOCmasZT/4oPNli2rcJm4b6+Uslm9LAbMMOGbKgHANQDi8iBBOERBuyRBmsf4prLEiXeyJPtEYgYjmFxgIgXGBL7/sPoA1A8SYfISBC4DwvHnq2rD+ckU1YB8UxOvCrJIgBcwy4JgpaxAOExCOT4ilPn0ZwiyWNcJ65549RC+9VHQ4GhnRZGqqGgWvWaOmePWXccdalAq4r12rVjPrL1NU46SkVi31JIXF8m0pYJYBx0yZIcxieUrYB7txozqyUA8hK4xIuE0bouxsdX0V67r6y7hjbE+Ki1Nv11ORME5KXnlFreDmFpYs35YCZhlwzJQ9AOGfGcIsFnTlCtGKFZ6JJGGtuhkdqLA2jCIs/WXcMfYPA5Dt2hF99511t6s3CsF27uQKaZavSwGzDDhmyn9DOFhAOIYhzGJZJmxPwt5dT0SSMNZvsfcYldco/AKUAdCiGrej3S66aHkilQ4/9RTR1q3cOYvl61LALAOOmbIzhHsyhFksS3T5srpf16o0cV4DjNiChFaY77zjGb/9NtGrr6ppb0+AGGvYSNczhFm+LQXMMuCYKTOEWSxPCXtgrVyrzWsUT3XsqG4lQoMNTzkjg+jnnz2TkgaE168n+uMP/SvHYvmSFDDLgGOmzBBmsTwlQHjaNM9AGJ2sevZUC5vQbtJTxpqtn1/+XbeKYoYwq2RIAbMMOGbKDGGd/vrzT/rz6lW6euUKuxT5TwGCv5AWtbJS15ORMNZuUdiEbT7ocuUJ16tH9NlnatrbU+noDRsshfBf4v3D+4j3U/8es0uu8X7juI3jdzFIAbMMOGbKpR7CeNN+v3iRLp44QadFVHF82zY6tG4dZa9YQcqyZexS4Ozly+ng2rV0dMsWOp2VRRdEBHj5woWif6GxJjx7tmcgDAOM2G+LzlmecmGjEItiQHjTpiKvCePg+9u5c3T+yBE6tWcPHRG3eWDNGvm+6t9rdgm0eJ/3r1xJh9avp+M7dtDZAwfo0qlTdOXXX+VJmRekgFkGHDPlUgthvDm/iwMtvrQbhw6lyT//TD2qVqUODz9M7R94gNrddx+7FLn9/fdTh4ceotSKFWmMiADX9OlDJ8QX+rezZ92HMaqjFy3ybHU0QGl1FbM2lxgRMKqurbpdvVEdjTVnN19fwPfSL7/Q4Y0baVmHDjSiZk3qKsDe/sEHqZ14P/XvMbsEW7zfOG53FN+FPq+8QtMDAyljwgQ6s3+/N2CsgFkGHDPlUglhpC/w5qwbMIAGVq9OKeIAlnjTTRT7r39RtLh/dul1zP/9HyWUKUNt7r6b+oov8/KOHeWJ2h+Ial39IovPmZxM5Kl9wgAlBiwMH67OBAaI9Zdxx4h+MYcYYxDDw9XmHfrLWGEMn8jMdPl1xQH1yqVLdEwAfF5MDPWoXJlai8ccf/318v3Tv6fsUmTBndh//5uSxOcLUB7xxRcSxsiS4KTNQ1LALAOOmXLpgjC+vOKsCKnHsd9+K8+g4v7zH/nGOb2Z7NJtfJmvvZbali1LI2vXpr0LF6opaleAgS89Rgxi7VYPICssDjLUvr06wAGTlKyKuLElKSlJvd0lS9Re0vrLFNW33Ub0+utqVy4XXlO8/r+ePk3bxIEVJ9CtBHz55Jlt5BjxHcYJNaLjGUFBMlV9FdkpFz5vJqWAWQYcM+XSA2Gkny9epN2zZ8svL86U8Cbp3zg2O6/lF/nGG6nPyy/T9smT6fK5c+ZBjMvt26fCBtDRg6ioztvjed06Nb2rv4w7xu326OH53tFffulS72i87pdOnqR1/ftTN3FiE3/ddXwCzS7UyI4gUzKyTh3av3q1mtWyVgqYZcAxUy41EP7jt99o36JFMsWItBV/edmuGBmTns8+SzumTpWpUNPCNp9vvlHXbvUgKqqRJo6PVwc4YKsSGncUFfbarF9srTp71nPNRpA6R6obj92MBIB/O3OG0vv1oy4iMkfKUf8esdn5GSfTCLyGfvKJLNxDNbWFUsAsA46ZcqmAMF7wo5s305APP6SEG25weoPYbDNG5NW/WjU6mJ5Of2K914wQTWLOryfWVRFNYovSgQPq2EE070A0jO1L+suaMQqwkOJGv+j9+9XHnpKipqf1ly2qtX3O58/rXzFD4SQaWazulSszgNnuWTApWXzGJzRsKHdBuF1w6SwFzDLgmCmXeAgjhXXh6FGaHhBArcTBiSNgttvG2bT4EqOS/vzhw+bS0hcvEg0dSvToo84gKqoRtSJVPH480blzaoerLl3UdpOY3IS1XMA/v+pmrboakS6i3xdfJAoOVrcN/fqrup6N9pXoJa2/blGM+8XjmztX3cZViHCwRHHc0I8/pvgyZZzfFzbbpBERoxB3Wfv29CtOXK2RAmYZcMyUSzyEkf/PnDWLOomDIFdOsotqfIk7Pvww7Zg8WUZnhQoRM2b9ogdzUVPFRkYl8/vvEy1froIYKWRExgDp4sVEERHqNiP99WCtuhqpZ6wpY/365En1xAFVy+LEVULc6n3CuN/atU0XZV0W0fKqHj1kkRyfRLOLamRSej73nNxXbFFaWgGzDDhmypZDuElTe0EYUfC4Bg04Dc22zPgsja1fn86bKSoCZHC5pk09039Zm6RUo4a6pQggPXJErWzOyiIaMULd76u/Hgw4h4URbd+uXh7XQxoae5t/+EFNGVsNYBhgT0xU092FCNmGX8Rz6vfmmxR37bVO7wWb7Y6RFcX2NlTaWyAFzDLgmClLCNcoIoRXrlpObVNaU2RLe0EYZzlYv+tcvjxHwWzLjM8SPlPY6mbqTBrrnn36qClpT0ANt4mUMW4fEfcXX6jzhVF9jBRzfulkROZIZ2uXr1uXqHp1NVWMEwZPPVasW0+erKa8CxGyDdsnTaJ24oSBo2C2VUY0jB0Pv2Bt2EQ2phApYJYBx0xZg3BoWDDFxQsI9ylBEEYaa3XPntRaPEn9m8BmF8XY8rAyNVV+xgoVUtLiZFBGq/kB0SoDrEhRY60Xad/CUuB5W1/iXxR1eQK+mnE/qBZHKtpEYQzaD84ICaEk8Zj07wGb7bYFn9Bla8+8eere4aJJAbMMOGbKbkM4pV2r3zp0bENr1qygtekracDANEpN7SyvaBcIox/0hB9+oMQbb3R+E9jsIhhNAEbXqyeXOwoVzrSx1hoXp1Yf68FUWgy4I1rHHmQTJy9aKhoRC1dEs622SyfSBUsBsww4ZsqAcK1aNalzlw7Uu08PGjd+tDhH3Uv9+/emlHbJ1K5d65YOI02fMfHKxo2raefOzZSRsYE2bFhFa9cuowULZlHFihVtAeFzhw/ToPfeUzf1O5zfBDbbXSMl3U2cbGLgh6mtDijiwjAHARS3txD5uhFpYyoTxhea2OKFospdM2bIznacimZbbWxXmhcba8W6sAJmGXDMlAHhoGB/yc/161dJnoKrmzen0+rVS2nQoLQYh5F8AcKYpoEqOG5rx/aEUa27acQIc807EA2jcUfLluq+W0+mfO1oLQru1EktyDKxDoeDI4pncLDUv/ZsdlGdKD6X0/z85JJHEaWAWQYcM+USDeEz2dlyaxKfRbM9YQz9mPTzz3Tx+HH9R89YiIbR4/mttzy/Nmw3Yy24Th11frCJKBiQxpCVAdWrq/3dDV5/NrsoxjLl+O+/l8uWRZQCZhlwzJRLNIQxHxijCfUvPptthWP+9S85+hBziE1NaEH0hy9869bqtqHSEg2j+AvNQNLS1H3MJqLgq5cv025xwoJJOHwSzfaEsdVw3Lff0gWzJ9H5SwGzDDhmygxhNrsIRuX96h49zBd3IApEY4yvv/bMvmG7GScaSL+j8Qf6W5tZPye1qBIzYdHvV/+as9lWmCFcsDvrn6U7YgizPW0U/aEnOZY+TO03xGXQ2QqNNbCHt6QXaaEYS7w+Mg1vYl8whKzC4Q0bZJYB2Qb9a85mW2Gfh7DzFqW+lJrayVZblBjCbE8bbSxRvbt17Fg5q9qUtCKtNm3UGcD59Xb2deN5CZDKRiWYlmTmJEXot7NnaUlKCrW64w6n19vTjvGg9ffFLl7bCcLqFqX21LtPdxo3fpS5LUr/bNaxjNqmtKLIluHUpGkjhjC7VBlf5jFff01nDx40Fw1D6LS1YwdRYKDn2kMWpwFgDIZAe0q0xDSZhsZ2rxPidUl7/XWvtakEIGOF43Ic7wFrt437YSDbw3aCcI0a1Sk0LIji4qPNN+tgCLPZqhENt3/wQcoYP958NAyhWnrZMnV0YEnatoTnIb53FBSk9qU209ozR5hss7R9e2p9111eKcgCEAHHROHWwm2F2wm3t9gpDvX2kxwqlBnExW+GcMHurH+W7oghzPaW0UFrRK1adEZ85kxHw7jchQtqEw/0bfbExCJvG48fkX3jxur0KDOTpnKEPtyYbNPz+ee91iELkSnACFD2FR4sPEJ4pIXG7Q0V7i/cVbiVo3SAGCenaGqDPg127N1vFwjfJU44LYVws+aNGcLsUme5NlyuHK3r3998pTQEEGPbDsYJYh+tL4NYA3CjRmqEjyYmLpyQoCJ6TmQkJd92m9Pr6wkDgoAhol8Acq14DzOF9wlnWew9wluFp4j76eJQwY8TAP1j8nmL5xh33XXUSkR37R95hDo//RR1qVSJOj7xBLUVn+1E8RmxS7GdnSD83vs13IfwkqULac3alQzhIlo7a8S/+r+xfcNYw0x77TU6smmTuelKmjQQz5ihDjd48EHfAzHWgLH3uXlzohUr1JnEZgFMaovKPXPnUtcnn/RahztAOEG4k/A44dPiu/eHB/2r8DbhNIeamkYavCRFwzh+Jd1+O6W9+y4tSE2lLYsW0jbxWdi2cgVliJOy9EmTaEJAAHV47DFbNGCxE4TfzwPhvmm9ciAcVwiEw4Iu4gILF81jCLvra9SzRqx/tRcHsE7ibBFnj/hZfkivKZlAxplwwo03UvKdd1Cbe+6htiKChFuXLUvJ4kscX6aMYfoKv8MXJ/kO3fXuEde7Q1zvBuPrec3i/cKc0llhYXLWsOm0NITLIoJevJioWTO1xaMvVE3jZAHdvzASUUSxtHGjuhXJhef+19WrdDIzk0bUrCnT+k6vq4cMACY61BTxVOGL4v0jDxogRpQ92KFG31pKuiRUT8eI54Xv5agff6BN8+fR3u3bSNm3l7Kz9uU6a89u2rV+HS1JS6NuVatSrJcK7/KzXSGc1q+3hHB8QnTBEA4NDTyHCyxYOJch7IbxoUVqpu/bb9PiPr1p6+JF4qxxufx3ca9e1Ov11ynhpptKVGQMQCbecjN1EtHOcBHxze3YgdaMH0eb582jjbNn0apRo2hmchINqvk5tXvoQRXG4vnL10q8Fh0EmIbX+4rmtkuhNePG0qa5c2jjnNm0esxomt2mNQ2pU1uexADwxfW64Tl2FCdUm0eOpN+x3uuKAC6kcLdsIfHNI6pUSW33aNeoGI9LnAyRiP5lT+isLCKMhXMFwDlp6AUJCdRGPFdvvm8ahFOFZwhfMgCnlQaEkZoeJu6rg3Byzv3DCQ7frp4G0AbX+kJGv4qAbV74/sMCzLu3bqHFvXuJ7/hDxXrSbDcIh4WrEO7Xv88/IBwTExXqMJIewikCwi2j/obwv0S04zC4Q5PurH+W7siuENbOGofWqUMbZs2kvTu2yw+n9iHFWeS6KZNpwEcfUZKIhrx5YPKUUWiT8sD9NKbxz5Q+eTLtXJcun2fW7kx5xqzs3UNZmbtoT8ZW2rF6Fa0YOoQGi8gI0THWkkZ+950A7zjamb6W9m7LUK8nrpN7PfG7HWvXSJAPq1eP2ojrFdfaE7IY2GJzcM0aumqmT3JeAWC4zpEjRP37E33+ubrOWthcYG8a8EWTEaSfxUGMxo5V23Gaad2p05WLF2n7pEnU+fHHvf5+aRDuLjzT4Qzhv4T/NDB+D5u5nB7CijCKtbo51LVh/ItIHCnxNg4Vxr62VgyQtn/kYfHdGym/i07g1Vt83/FdHdWwoQw09LfnLdsFwnfffXcuhOMTYsxDOCQHwvPmz6b0datzIezn34QhXIDxgW1991006vvvacvCBRImTh9SYXyYER0OqVtHAtuXQQwAd3rqKZonIl98+fJ7znm/pPt27aStS5fIyHh+l860fdVKU9fD64aMwvSYGPVM28sHdmnxXqHd4nhx4nBq715zow71wnUwbWjJEjXNW7WqGnUWd1SMkwEUj73xhtoDG2MJkUZ3IfrVhGHqB8SJyoC335bLMk6vo4ddEIQB0MvCWCc+IXwsx/g/fvdbzmWuCp8X/kX4ZB6fEUZ6GzDWbhOXzRYeK+5roPAE4Wk5Hi/c2/E3iH0pGo4vcz0N/OxT2rFm9d/BRCHG93vFkMFyKUl/e96yXSBcVgQMH3z4fi6E+w/oKyEcFx9VMISDggNO4AJz5s6kdevXUEq71hLC/gFNGcL5GABuc++9NN7fTxYqFJi2EQZ0tixcKM8YW4uzpeJM3bhrQBAp4oWp3Shz00andaKCjCgXkbHR+lJBxvUQMc9AilO83sXxuuGkqY14z+ZFR9P5w4fdAzHAdvmyGhWPGaNu+8EgBPSc9vZ6MeBbrhxRlSpEISFqERkOXoja3QAwWlMe376dRtWtK5caiqP+oSAIA5hHhReL308SHpPjycL43UFhRLaAcYb4/8qc3y/M+Xet8F7hK7rb3C+M28PtAOgANQyILxRGZOxrldOJ4rM4OTyMdm/Z7PRdzNfi+7x1yWLqiAxIMXw/YTtB+MM8EB44qJ+EcHRMCwnhyOgIP4eRAoP8DuICM2dNpQ0b03MhHBDYTEL43yL6cRjcoUl31j9Ld2QnCANG7R58kKa2bCmiulUSFE4fTAMD1BnLl8mqQhQhFdcH1i2Lg0rynXfSlMgWsiDDFZAW1bgvvM6jf/xRzg11emxeMN6rDuI9X9WjB108edK1Qq28wvVQbZydTTR8OFGTJkTPPKNGpOL19Vh0jNtF72dUa7/0kgrfSZPUkwLs/3Xz+eCEBN/Nqc2by9aUxZXlKQzCiFpRNd3ToaaL4V4ONWrNdKiABYS3i/+vEV4uvDTn3/XCWQ4V1HoIowhsju7+fhdeJ4xoGPuIsT6sf7x2NYopkbHCCbP+e1iQkd2SBVpe2hOut10gfM8999DHn3yYC+HBQwYICB+iyJZhEsLhkaE/O4zkH9hsHy4wbfpk2rR5Qy6Eg4L9qEKFCnTttdc63ZkL7qx/lu7ILhDGh6zDY4/S7NatZYRmFsCacfntq1fRtOgomWL11haOohproz1fe5U2L1zg8nO2wsgkYP25szgpLJa0tDDeqy5PPEEbBg+WQ+rdBjGEaBowRhvIqVOJYmOJPvqISEQTEsgAZlEjZES8KAZDBy9E3bVqqT2u580jOnrU5cpnvQDgswcO0Py4OGorDj7FeVJZEIQBz73Cw8XvOzrUIipEqPg/mm/scKgQRkoaAAWMsQUJxv+Rytb+rofwdHHd+br7w21svMY3ty+hbmVqZKTLkXDG0iWySLO4PgN2gfC9995Ln3zyUS6Ehw4bJCPhiBYhgPBfYWGB3zuM5BfQdAsgPGXqBNq8ZSOaTEsIB4f4Swj/RxyAHQZ3aNIlBsIAETasL+jahTI3bnA7GpQp1nXpsgq442OPFdvZoytOEgf06eJgu2frFqfn4y3v2rCexjZuXGzRMIz3qpv4TqBiusgghnB9RKKnThFt20Y0ahSReJ1l1y2ki7G9CdEr0sdIXQOqiJhRTKUZP+P3WGcGwFH8hWESmOyEYius94oTGNqzh+jMGTUtXsTHDQCf2b+f5ouTBwy9KK6Dr2ZXIAwA5wdh/AvoAr6a8TNuIz8IL9DdHyC8Sbifw/cgHC9gNrRuHRlg6L9/+Rm1G6tGj5LLRfrb85btAuFy4nv62WefSAgnJMbQ8OFD6PCRg/JnQDgguHkth5GaNm+8FBCeOGkcbc3YTO3at8mNhCtVqkTXXXed0525YN+HsPhCxV9/PXV7tiotSesrzxLdBbBmXB8gX5DajTpXeNoWG94LMtLn6ZMnyf2B+ufiLe/buYOW9ktTexEbPEZvGY08UsX3YuPQoXRJwNOtNWIjoSIZ25pQxHXokNoqcvx4otRUopgYoqZNierVI/r4Y6Lq1YmqVSN6912iTz8lql9fba6RkEDUq5cK3Q0b1HQzwIuo16LHib3Ap7OzaW7LlrKzWHEDGC4Iwlo6GqlnpKDFETY3HY2Cqt0OFcKALVLTSD+vdqhrw0hNbxbe7zBOR5c0CMtteY8/LptxFFo8CYvjGE6OURtTnCfHdoAwtvLeJ05Ia9b8NBfCI0cNkxBGQAsI+/k1qeEwUtNmP48DhMeOHUk7dmRQ+w5tBYQjJIQrV6lM1wsAOQzu1KR9G8LihcUe116vvkIrhg+T22fMVg0WZoAYQF/arx+lPvtssVSVmjHW+dCABCkn/XPwpvF6bZ4/T25z0j9GbxsRMTpCre3TR23mYRHgcqVtbwI8UbEMMJ88qY5NBFiRxgao8S9+xu/xd1wOl0d0jU5fRYx49cI2LTTjmBkaSinFVChn5MIgrC/MGp3zf/zugOPvwqyt4v8rhBc5VLji7wUVZpU0CMOA6aiG38udCQUuPe3bJ7dkrhg2VC3KKqZlItguEL7//vvpi1qf50A4lsYIph4+ckAWOQPCjRs3ruQwUvPmjZMB4REjh1Lm7h3UQUA4KjpC0vtZEf3dIJ6gw+BOTdqnISzXQl95hdaMHfvPPcBWWdwewI4Psh06zxgZB1p0AMOX0unxe9kZy5bKorjiqMDVG2vEHVEtnpQkP58utbf0MSHtfkVE6YfS02nsN9/IbIRdAAwXBGGkkbG+i21JB65Ro2IY/wecte1HAPEp4SPCh3J8OOd653IuUxogLLdeli0rq6RRSCr3C+uOe1oAsXr0aOr9xhsyU6i/HW/aLhB+UByb6tT5gsIjgikxKY4mTBwrzpX3y6Ks5n6N/6xbt+5/HEYKCQmIx4WGDh1Ie/ftpg4dU2RJNSD8/PPP04033uh0hy7YZyGMDyMiwOWDB6kANoCCJQaIM7bSop49KAXra9cUP2DyWkJYRH12gXCKTSAM47VBUdLkn3+mI5s3y/GHRV4ntpkQ5V/65RfaOX06DXjnHblv2nafUUf+EIYBUMDRaL0XvweAtZR03svk/XtpWBPWLEF89900rN5XsnEHqp+RdsbWRNSzoC/CrFbJ1K1KFZkpLO7vo10g/LBg1Jdf1smF8JQpEyk7e5+EcEBgsz8d+SkyMkxCeODANFKUvdSxUzuKiYkUEA6gF198kW4WXzqHwZ2atM9CGB1gRv/4g/zQ6c8ELfc+dRvO4C9qqh9qg8dTXMYBtwPS0QKATo/bi5bp6AXzbZGOzmu8Psm33kqD3nuPdkyZom5hsjo9XRwSJxNowoHv3spu3eQ6eDyWTIr5gGvkgiAMeOLnww51qxFSy7uF9+QYP2vWfqf9fZ9DXQ9GhAzwlhYIw/hcA24pDzwgW/Ki093YJo1pSO1a1FV8FlrdeadtikrtAuH/ieNkva+/FBAOoeTkeJo+Ywrt3ZspIRwSGpA/hOPioiSE+6b1pAMHFerUuT3FxEbiSvTqq6/QreIA4zC4U5P2WQgj5YZCIBQE6YHgCSMtja1P2KunfyzFbUTo66dPK7QpiSeNzjzL0ZlHnKHrH1+xW3wBAaiuTzxBi1q1kuumvhwV4yQC1d/7Fi+msfXry/VfuxxwjVwQhBEFA6IbHereXzThmK8zQKr/HYy1YRRnlaY1Yc2AMOpUsDMCJ77o996x/GPUThyH8R1EX3e7fCbsAuHHHnuMvm3wtdySlNwqgWbPmUE7d22TEA4LD8ofwklJsXG4UPfuXeSeps5dOlBsXEsJ4TfefJ3uuOMOpzt0wT4LYVQEY6hAgcUJFlq2fxs6xJaQwYkB0k+ubuK30kiFodEJhmXoH59djHViDC8Y8tFHtG3CBDp/5IiMJq0ukPKUcNLw+8WLdHL3blreqRN1r1yZEotxiIZZFwRhRMJoR4modpvwFuFNJoyqaBRq7RI+IlxaImG819iqlHL//dTvvfdoSkS4HEyDfu9rJ4yX9SvzOnSQkXHXZ56RrXiLG8Z2gfDjjz9O3zf8llq0CKVWrRNp/oK5tGXrRglhAeYCIRyDC6EqGt09evToSiI6ptCwQHrnnWr03//+1+kOXbDvQlh8CL1ZEYwtAWvFgRuj/fSPpbiNM+K0d6vLHtBF3Z7ljhGBo/92cXblMWt5ELv+elm0hU5SytKlcrrQn262hfSGZOGViNzxPVs/aJBMraNVp680kykIwlo0bLTmW5C1y5amNWG83yjKGly7lsw6YS0YBVh7d+6Qxyd4X+Yu2rttG+1av542z5tL02KiJYwBwuI6WbMLhJ988kn6qVFDahEZSq3bJNHSZYvkUKQcCP/hyE+x8dERuFBScryEMGYgYgwTIFzjvXflZAiHwZ2atG9D2IvroLIr1KSJxbrpPV+LDxjS8zOTEmVE6vE18jwG9NE8YGJgoEyNOT02mxrFLShiwlammWFhtH/lSrpw7Jgcem+XNDX2/F4+f57OZGfT1jFjaPjnn1NKuXK2XfvNzwVBGPAERFEFffYadSCDWePyiKJRXV3SIax2A3yMZiYkyCJMZOYK+54jS7h78yZaO348Dfj442KbFGcHCP+f+L6juVWTpo1km8o2bZNp9ZoVtGTpQi0d/asjP0VEhjbDHiY06EA6etDg/pSQECP3On300QeyFZfD4E5NuvRAWHxgsX4sKwgFNNCMAz+bjRxtDWGH+iVFY5FlA/pbul+6QOdshcD0peKeWequ8ZhRuIWWl1OaNKFdM2bIdo+Xz50rlm1NOAH447ffZKORYyKiWdW9Ow358EPZ+QoRfHEcRIvqgiBsZk04P2NNGI079jhK9pqw3G5Xvjwt6J5Ku9zoBohtTJtEVIxJcXK5yMufITtAGDMWAGE//6ay2VXblFa0fsNauS4MCAeH+B935Cd//2Y1AWGsAaO7B7p8YKMxIPzZ55/KLiAItR0Gd2zCpQLC2rSfpQJQqCAc+OknNPqnH2lp/36yutrMurLdIQxj33T3556jFcOGyYlIHgUxALx1i+xS1ll8uO2ehi7MgDGmDLV/8EEaKqIGrLkeTE+Xk5l+O3vWo2vHKLTCPl+A9/S+fbRz2jTZcKNH1apyDRuRry/CV3NhEMZkI6zxohHHYocKV8C4IOMygHa6Q62SLqkQxvuOJbBZycluAVgzjl8bZs6gvu94f5ylHSCMzpIVK1aUTa7Q7Artn7ds3USTp0yQEPbzbyI+gvnIz8/vTmwkFqZDh/fTxInj5B6nsPBgql3nC3pIRCAM4fyNDy1m647385PRWuLNN8mIAgdc/DwxKFD+vbAPty9AGMYXrPuLL8giMo+BOAfAi/v2oS6VKtmyiYm7lmvG4jXEFo/Ojz1GI774gpakpNDeBQvodFaWTFmjMhkFUuhQ5WrqGqMFkfJGmhnQPXfokIx4N48aRdP8/an3Sy/JqDdJRCy+suZbmAuCMKylo5FaRorZrNGk48I16hpxSU1HA2BDv6xL21auKPQYVZiR+Vs2cIBsqOPNrJUdIIymVlWrVpH9NaKiW8gaq12ZO2jU6GESwk2b/9zDUZDEFa/igtjTNGPmVLnHCRuOsecJe58YwvkbIJrftQulPHC/0wcPP2Of3fzOnVVgGVxfs69AOPqaHBA//7wEseWpaZmC3iIrMruIM8uSBGC98fnACVur22+nduLz1qNKFTmXd05UFG0YMoSyliyRlcoYlgCYokUmirywFxn/XhA/43eowj578KCE+JGNGylzzhyZZgZ0B9aoQZ3Ll6e2ZcvKNWqZUbjGd6NeIxcG4fyadZgxrlNSC7Pw+UOgsHLECFlw5fRddNXiu7tz7VoaKYCILUz6+/OULYZwNwOOFWr003hRBCeAMJpdoemVkr1XzhSWhVkRIfGOghQeESIhvDVjEy1YMFeWV0e0CKXvvv+GHn+8fFEg3MPVM3kj2RnCO9LXUv8PP8y3dRuabwz67LNCJ5P4DIRzLEH83HO0fPBgy0CstcNb1KuXmoIuwQA2MiLTBPF5wRoyqpMRsaLKOvWZZ6jfm2/SiJo1aeJPP8m15UmNGtHI2rVpuPjdsE8+oT6vvCJhi3Q39vW2FpE2+gBjCcGXU81mXBCEAWBEtFjXxZYjrA1vcKiDGgoyLoOtSpiyhEYfAHFJgzCOWVg6w3hVK76/sIyG+/fz6lZLqyAsWKUIZvUy4Fihvl2cSL/++msUEhJAMbEtqXOX9rJvdM9eqRLC8Umx4qNQgCJahPyOC6Kaa/mKJdSmTZIss/658Q/01FNPFQXCA/+0oHuQnSGMSsKCZmki8kitWlWW++uvm9e+BmEYIMbwieWDBhUZxLkA7tlTzg0ubQAuyPhsYXqTXOYQEQaWOmCc4OF3cEmMcM26MAjr14T167/5WVsTRqetkgjhJAGOGQkJlu7/x/d4y+JF1FEEb/kdE622xRAeaMCxQo2tvNWrvy37a8TGRUn4YrdR+w5tJISxFdhRkIJDAk7igqjkWr8hXVZ2oczaz78JPS0OiNeKA4DD4I5NeMIfFlSA2hnCW9HP+IEHnK6vGdNFuoioDmsu+uvmtS9CGAaIuwkQLxs0UP0yuwHivwHcgzqLkz4GMNsVaxBOdThDGGlkpJWPi98fcqhTk9CKMrsQ4zK4LBp1YH1YP8ABAyDyg/BG4TTH3xDWP167GNEqlpTkdiSD76W7RsDR/YUXvFZMaRWEr1y5kg1mGXCsUGMX0YcfvS+39sbHR8tdRoAwUtNga2RkRICjIDVr3ngGLjhu/Gg5zlCdKZwzzrByZSojzrgdBndswgt/R9VnEWVrCC9dIi+rv75mQBip1W0rSiaEYaQ8u1Wtom5fchHEAHDm5k20qEd3BjDbLWsQ7iYMMOrXhAFigBNGROuKcZ28ANYgjClLM8R9zRFG8Zb2N6whrxHuJX6fLBxr8HjtYnQF3DBrpqndG654x5rV1KfaW16bk24VhC9fvpwNZhlwrEAjU/yACMS+qPVZnjGGo+Ruo4DAZnKCUvPmP7/qKEjh4cGydSXorQ1xiM4Z4vDSSy/SLbfc4nTHJp3xK2aiFlEMYftbgrhKZbktyyyINQAvSO0mU/oMYLY7BoQThDs71DnBqILOC02rre09nutQoX/wGjXaxjam08KIxrs41BMDW0P4vvvkUJSiVkXrjd0gadWre22rklUQvnTp0n7BrG0GHCvQgPCjjz5KX9f/Sg5vQOOradMnU1bWHhkFBwY1v+ooTOgfjS1KqegfLejdtWun3P7R1aq9SXfeeafTHZv02fMYMl5ElRoIT7Rn20qzBoi7Vq4sB1/s3lowiCWANwkAd+vKAGYXyYBwvHB74RHCiFLz9nr2hNFFa624r4kONQW+Qfy8RRjp6d4ONRWNx2TX9WAY6WgUVlqajhbfaxw3sY0x9lrfSkefO3fuAJhlwLECDQijZeUPP34nC5qTWyXSwkXzaMsWtW90eERw4RCOi4sKx4UTEmNkHrv/gL65rSs//PD9InXNys7O1j9Xl1UsEMZZ4vx5hZ4lWgbhzF20csRw2btVfxu+ZAniZ56RTTaw19cIxCqAN9L8Ll2o0xNPeG3tiF1yjbVXgA8ARKMNRKRIJyNqRTraagPyx65Ro+HhwgOE+zrUlHgbhxqZ2zkKhjGoAaMJkZLeuW6dnBlcVGM9eGGP7mpG7xrvFApaBeF9+/Yd0fPLjLVuWQhkW0SiZWUSrU1fJUEMroaGBV1wFCa/IL83xYX/FGGzLKseO24UJaJrVlgQ1a5dkx588EFJe4fBAyjMM2fO1D9Xl1UcEG713//KQqG9O7Y7QSSvrYIwgDUjIZ6Sbved/sj5OVaAGE020GxDD+JcAHfuRB0ff5wBzLbEWkq6nTCKorBWu0ccs05co25RQoraSqNYCynpzGvUAi2knwHfJIcaAQPAdo6C4Rjx2LGNLfX552TDjlHff0+jGjZ02yO/a0D9P/xAFqp6sxGMVRCeMmWKy1EwjEYdVapUyemWFS5rqrbvyKDxE8ZICDfza7LYYUbiBuRe4T17dtGs2TMoKTlB5rcbNKgv5yS6C+GUlBT9c3VZxQFhbPvA/t9NIhpGqlgPzVwIL1ksIJz/oHmU6WPLDbYy6a+rGRvl0fKt1+uve62YwdNGehnNNlBwhX2IqH5Gs3e8DnPbt5O9ahnAbCsN8CUKpzjU7UqDhEcJjxMeLzzBIuO2RgsPc6jAx1o0irASHPbekmRocVzH9xAgQ4ONhJtuct/i+rL/uJe2Jmm2CsJt2rS5oueXGd9222306muv5DTqiJQ1VfsPZNGAgX0lhFu0CBUfCxMSwL2CK6xZs5JWrFwqQ2rsFcZUCGxT+pc4s3EYPIDC/NVXX9HVq1f1z9clFQeEcZaIqT3Dvv6a0idPou0rV8iqvx1r1uQacFk1amSB67i4nfaPPEJrJ05wuj5+xtalNePG0qCan8uzUm+lcLxhfLlxVozRaJPDw2hSaIhsDtC23L1ePVNmlw4DfgBxgkOFYluHuk7cMcedLDJuq4NDjbqRAk90+CB8S5CtgDAYVa9ePSd+mTEmDWLioLZHuFev7nT06CHq0KGtuT3CmgICm+/EFSZPGU8Z27aIkLq1DK2RokaojZDbYfAACjOqxi5duqR/zi6pOCAMA6A4u2sn7hv73vq8/Tb1rV49132qVaNOTz0lGynor5vXqBJEevaf13+H+rz1FqU+95wEFdZncH/66/q6ZWvGMmXkmDNMWIkv45uTeti+Y8AQUERaGE7woHE/WuqZIVw8tgLCYBQyvnp+FWZkiLFcW6vW57KGCnVVo0YNk9uT8LNg6l/h4SH1HWYUHh6cCAgjhN5/QMmzTcmf3njjddmWy2HwIAozHuTu3bv1z9klFReENQMaiOqQKgZQc42WgGYiugKuX5o7HbHZnrQGRk9bf79s79oKCO/Zs8etJVdcB62d0eIZy7eYuzBr9nTas3dX7vakhIRq/3aYUXxSbBSuhGHEqJDum9ZLVkgjxP744w+pXLlyTg/ArHv27Kl/zi6puCHMZrPZbHvaCgj36tXLiVtmjG6S6hzhJrLLJPi5evUKuaSrbk8K+d1hVgEhAW+hswc6fBw8tJ8mThpHSclxcpoSNiEXZZpSzZo10RJM/7xNiyHMZrPZbCMXFcJorQxG6bllxmhkhYZWQcHqCMMOHVIoM3MHjR03MmeOcNPFDlcUFh70B664afN6Wrp0EbVuoxZnNW32c5GKs/BAT548qX/upsUQZrPZbLaRiwrhU6dO0a233urELTMuW7Ysvf9BjdyiLNnw6uhB8W9nCeG4uKhYhysKCvY7gCtOnTaJtm3bIgcTR0WrPaQxKxEzEx0GD8SMhw0bpn/upsUQZrPZbLaRiwrh4cOHO/HKjJEZfuSRR+irr+pQWHgwJSbF0ugxI2RRFjLIKMqKaBnWyOGKIiJDkgDhXr1T6dDhA5Sa2lnSHZT/4IP3JPUdBg/GjD/77DO3U9IMYTabzWYbuSgQBpM+//xzJ16ZMTLDFSo8LTPFaFfZurXarnLb9i0yCkbvjbp16/7H4YqiosKbyJJqQfHDAsJjxowUdI+TkyHqF3Fd+LrrrqOsrCz9a2BKDGE2m81mG7koEFYEW66//nonXpkxlllffuVlmSlGxhiZYwAYwxsA4eCQALTBdE0opQ4JCZDrwlszNtGSpQupTZuk3NnClSpVov/85z9OD8as4+PjMThZ/zoUKoYwm81ms43sLoTBori4OCdOmTV2DH3yyUdyPzB2EvXo0VW2fe7Rs2vODOGwJIc7Cgpqvgs3gNnCu/fspI4dU3L3CxdxopJ80KdPn9a/FoWKIcxms9lsI7sL4TNnztB9993nxCkzRkb4iSeeoIY/NMgdXzhp8ng6eChbshIZ5RYtw75xuKOYuKhoTINIadcqZ6JSGqELCGj/5Ze16WEBQ3dT0rA7e4bPCAh3+t//nF58NpvNZpduA8Ljv/uOLroIYbBIzyezvummm+j555+jwCB1aENKu9a0Zu0qWrV6uTY56YrDXQUH+z3r59/kKtLPGOYwb/7s3K1KgPMzzxQtJY02lmfPntW/HgXq7IED1L1KFXPdqdhsNptdapwogDi1WTO65MI22HPnzrnVplIzsroff/JhztakltS1Wyc6cFChgYP6qUVZQc0nO4oiQfGTuKEpUyfQrl3bqWOnFIqJjaSQkACq/u47dNdddzk9KFecmprq0trwucOHaWD16iVmwhCbzWazrXHyrbfSnKgo+tXkUifY0717dycumTWqop966ilq9PMPuanoCRPH0qHD+3O3JsXEtAh0FEXR0S3iAGFMUsLG48FDBsgq6fDwYPq2wddUvnx5+r//+z+nB2fWyMOfOHFC/9rkK6QZxn3zjUw76N8ANpvNZpdet7rjDlreuTNdFtGtGYE97q4Fw5ij8Oprr1Kw7JIVIecHr9+wllasXCKjYBEdXzHdLzo/BQYGVgwIbHZVq5JevmIJtW2bTJEt1alKL7zwgizPdhg8QLMOCwszPeIQL+7yjh3li61/A9hsNptdet2uXDnaNWMG/XH5sh4dTgJzwsPDnXhk1qiHwlbdL7+qLeuk4uNjqHefHnJLb89eqerWpNCAMQ4rFBQcsB43OGToQDmguFuexh1f1Pq8yAVa2JuVnp6uf40MdfXKFVKWLZMV0jwGj81ms9kw5pL3qFqVTu3ebWqJc926dW7vC4ZvvPFGqiruzz+gqayTatU6iebOm0X79mXK32H+QouosJoOKxQdGxmA3DZov39/Fk2fMYWSWyVQRIsQWaBVpUplt2cMa3755ZfNzRoWL+65Q4doRM2aFC9eQP0bwWaz2ezS56RbbqHpgYF06dQpPTWcBNaAOXoOmbU2O/izzz6W25BQJ9W5cwfal7Wbxk8YnZOKDvzFYZXEY75GRL2XcMPoALJ7985/zBj+5NOP5AMqSjQMJyUl0Z9//ql/vZx05ddfaeuYMdRe3CdHw2w2m126jSi4W4UKMkt69fff9cj4h8CY5ORkJ/64YgSdlSs/o40ozLM3eL/cptSseWOKiops6bBSkVFhrXCHcfFRspf0+Alj5B3jATRt1oieeeYZKlOmjNODdcVoZ7l06VL9a+YkpBrOHTwo94Ml3nwzRTOI2Ww2u1QagVjr//6X5kVHq1uTCklFLxOgBmv0/DFrBJsPPPAAffTxBzIIRTDaoWMK7di5TaajcwqyLjdo0OBGh5Xy9/+xnLjD33EHCxbOpe07tso71qJh7JOyIhrG3uFDhw7pXzcn4Wwne/lySnvtNYoTL6j+jWGz2Wx2CbfgTeKNN9Lwzz+n49u305+FFPgePnxYMkbPHVeMKPgZEQVjWAO2ISUmxdPYcaNkQVZiYqwaHYcH9nZ4QqFhwf1xB0nJcbIvJu5Yi4bx+8qVK8vuIQ6DB+6K33//ffr111/1r98/Jc52fr94kbZNmkTdRRQed+21zm8Qm81ms0umBYDjy5ShtNdfJ2Xp0kIrosGUDz74wIk3rhhB5kMPPSSXYPNGwdu3b6VFi+drE5OuNPJv9IjDE2revPljuAMtGt4pwm/0k46JbSkf0Oc1Py3SdKW89vf3L3TcIdLSv505Q5uGD6dezz5LCSjU4tQ0m81ml2gjBY2lyAFvv02Zs2fT7yjqLSANDZYEBAQ4ccZVYztu1WeryoJkbS14/PgxahScpEbBoWFBgx2eVFhY8EDcUXxCtOwKgsXoVjmV0ijLfuGF5+UGZofBE3DVKSkphe4fliA+e5Z2z5lDg0UEjbWB2H//2+lNY7PZbLaPW8AXWc+Ue++lMfXq0YHVq+lKIQAGQ9q1a+fEF1eNplRob1mnzhc5FdEtqVOn9rQrc7ts6axFwQhWHZ6UuIMHtLXhGTOn0t59mdSla0e5bzg0NJC+rv+VnCjxbwFCh8ETccV40r169Sq8Ylq8AX/89hsd27aNFiYlUY8qVWQzj/jrruPqaTabzfZxxwgWYEtqm7vuknVAq1JT6Zd9+0xVQvfu3btIXR01o0Xzq6++QgGBzXL2BSfK7boHDmbLLUrqWnBwX4c3JO6oM+4wokUoKdn7aN682dRGdtEKk120qr39lmxqbUVa+lpx1tOvX7/CQSyERflff/mFDq1bR4tbt6YhH35InR59lNrdd588c2pbtiybzWazfcQ4bre7/37qIgK7EbVq0cpu3WQBFjon/lUIE8AMsAMM0XPFVaOaukKFp+n7hg1yumNFU/ceXQX/9tLESePUKDjE77dGjRqVdXhDjRs3vkFEw+dwx8NHDKaD4kygb1pvSkiMpbDwYGrc5CdZpHXzzTc7PRl3jKi6R48ehaamNf35xx8yRY2mHscyMihryRLZyixj/HjaOm4cm81ms21uHK93zZol9/6e2LmTzh85QpfPn6e/THAArMBwIAxY0PPEVSOYRFfIDz96H+lm2SO6bUorWr58Ce3es1N2jhQs/CsiIiTW4U21aBH+E9pyYR1485YNtGFDOrXv0DZ3y1KdurXo8ccftyQtDSOdEB0dTb8Xkn7QC2dLaHWJyjk0+WCz2Wy2bxjHbRy/C4t68wqMiImJsSQFDf/3v/+lF198gTDSF8VY2JI0dOgguUOod5/uao/oEL8D4q6vcXhbYeFBq/AAcFaABh6TJ0+QefIWkUhL+9Hbb1eTm5qtSEtrrl+/vpz/yGKxWCxWXoEN33zzjRM33DX2BFesWIEa5qShUfvUuUsHWYyFYUaokvb3b3o1OjryY0dxqGXLsBe0LUtTp02k7Ox9cooE0tI5sxTp+eefozvuuMPpyRXFzz77LO3atUv/+rNYLBarlApMeO6555x44a6RxUU1NLbeIrurpaEXLponWYefwbgWLUInO4pTYWEBnZAPR648I2Mzbdq0Xm5eltXS4szh+4bfyjOJog540PvOO++kESNGmF4nZrFYLFbJExgwcuRIyQQ9J9y11pqyWrW3ZLExio4xtGjEiKFyT3D//n1ytiQ1P//jjz+WcxS3QsICt+ABtWqdQAcPZdPsOTPkGUNUdAt5BlG7dk25bek///mP05MtivFCNWjQgI4dO6Z/X1gsFotVwoVj/3fffWfpkiduq2zZsnIdGIMYkNVFdrdHz25yS67WGcs/oOnVli0j6jrsoIiI4Ge1vcPDhg+S68MjRg6V68ORLcNlRdkHH74nu2lZVaiV1/fee6+Miv/44w/9e8RisVisEiYc6xH94tiv50FRjWZTVapUoZ8aNaSw8CCKi4+WUwM3bEynnTsz5O+wFhwRGTrBYSeFhAT5+/k3+RMPDmcKWVl7qG9aL9nWC4Va2OCM0B59N62qWtP7nXfeofT0dFMDnVksFovlW8Kxfd26dVS9enWn478VxrbaihUB6MUkAAAQwklEQVQrUoPv6svlVHTFate+Dc1fMEc25WjdJlFLQyvNmze/yWE3RUaGTgKEsW9q85aNsql1t9TOMpRHW0uUeL/22qt0//33ewzEiLS//PJLysjIYBizWCxWCRCO5Timf/XVVx7JpsI33ngjPf30U/RVvbo5hVgtZBMqNOPAdqT+A9R1YGR94+JavuCwo+rWrVtGAHgrHijOIPbu2y3OWtZQJxHKo8MIwniMf3rllZfpvvvu8xiIYXRJqYUOKytXmuq2xWKxWCx7CcduHMNr165tSeer/AwAP/nkk7IvNJZPsYyK5dThI4bIOqcpUydKAPv5N70aGhrc0GFnhYUFPB0Y1Fx200pp14oOHFBo6bLFspGHWjEdRE2aNqKXX37ZoxGxZiyyv/TSS5SWlkZnzpzRv8csFovFspnOnj0rj9kvvviipUVXRsb4XQC4dm0NwGol9ICBaXIr0uLFC2QWF7uAQsMCBzp8QYmJMa9qhVqp3TvLQq0FC+bK3DoiZIAYEfGrr70i14itaC1mxnix69SpQ2PHjmUgs1gslo2EYzKOzThGWzGX3oxvvfVWevrpp6nul7UkgFG/hDqmtLTeMpO7Zu1KuUUJy6wto8NnOHxJLaLCaooHLxt59E3rKXPqc+fOkiCOjWuZW2H21ltvyKppT6YajIyG3G+99RYlJyeLE4QFdP78ef1ngsVisVgeEo65CxculMdgHItxTNYfpz1lRNdoIlWpUiX6uv6XuREwANynb0/as3cXrd+wVhZnydnBLUJWBgR8eJ3D1xQU5BcYENjsD4C4/4C+EsTzRUSM1HRcfJQc9oDe0++9967sM211Qw9XjMV+7GXGWRj6jg4YMIDmz59PmzdvpoMHD8p2aJcvX+ZiLxaLxSpAOEbiWIljJo6dOIbiWIpjKo6tOMZaNe7WHWMJFFubnn22Kn33/TeyCKtlVLhMQaf16yMAnEkbN62XgaIsxAoNyGjevOE9Dl9VYLB/nJ9/k6tqRNxLpqaXLF0k913FJ8TIcYjoM13zi89kWgB7tDy9BsBms9ns0mdkXLEEipqknxv/SCGhgRQd3YJat06kQYP7076sPbRu/ZpcAIsIeZ+f308POXxdgYHNE9BdBE+qR4+ucr/V2vRV1KVrR0pMipNpAKQDsDcLfaFROe2tdWI2m81ml3xjnRkZ1xo1qstCK9QmxcRGUtu2yTRy1HDaf0ChlSuXaaMJsRd4V/PmzR9zlBQFBTUPCwxqLlPT7dq3ls08MrZtod69e8g0QMuoCAoOCZCziLFOXL58eVk27jB4MdlsNpvNNmOkn++55x6qXPkZOWIXhVZoRRkXFyVrlKZNnywztPPnz5ZNpbAGLFi05aeSEAHrFRERWjc4xP8yQIw14Yxtm2UF2tBhg6hN2yQ5ixhnJ3ghvvjiM7lojhePo2I2m81mu2oEcpiEhCZRjX5uKKJbf1kBjQZSnTu3p6XLFtHhIwdp7LhREr5wixahi3766ac7HCVVcXFxrwUF+10AiFF5hhfh0OH9NGPGVFmwhXXiFpGh8sX6qdH39MYbr8mo+JZbbuG1YjabzWYXahR9lStXjp55ppIM6AICmskAD12wWrVKlBXQyMRiH3D3Hl1l+lkA+K+W0RET6tat+y9HSVd4eHhFERFnamceo0YPkyDGgjgmVSS3ipcvlhYV161bS1ayYUG9TJkyTi84m81ms9lIPWOk4ZNPPkFvv12Nfm78gwzoUACMQQwp7VrThIljKXt/Fm3avEFmZAFgLJWGhAR0cJQmNW7c+NbIqIjJOPvQumvt2JlBWcoemRrAi4UXDVExSshxmY8//oAqVaooC7e8uaeMzWaz2fY1sqS33XYblS//mGyL/G2Dr+XaL6qcEdCh7ggR76rVK2T6GevA+LvcghTsfzEqKuIjR2mVeAFihGV3LVSlzZ49nY6IFwmdSnr2SpX9O1HBhoV0VFDjzKbGe+9ShQoVZLqBYcxms9ml0xp8H330UXrhxRfoy69q0/+3d61BUZ5XmGYy1j/+89Jpxhn9FU0cpBNHk3pN0qgxGlMripcm3l2WvX273y57AXZR8IamMYmKiCZGCIzgBUTwRhGNUhWhUBFcQKLSJGPb6TQdk8YYT9/nLJ+DS9pOJzgx5pyZ5w98LDP7vXOe9zlXizWRuQRdN8FggIuviooLlcBro5aWJtr05gYj/ExOp/2C1WV9KubHboFAYJTDkdSKLwVfzsZN61gVo2S87HAJ9xSjlQk3Ggz4QF8xdj2CjEeMeJpnUGPQh+SMBQKB4NEHinURdkbR1WhFvhg7icFP6LBB9BRh5ozMdMrZsY0Hb0D9gkuM9iOEnxUBv0NEP4kRi5jVav2py+XYbrQxIVSAsDR6iluuNFFBYR63NqGqzedzc74Yz6xYuYSmTZtKcXEjaciQITzsQ6qpBQKB4NEDaoIw7erJYU/SuHFjad68OffIF3lfjERG9BSh5+pqFP1ep4t157n7xlC/SvB1pKb6xseIfbupL+c5TbNcNlQxQtEnKo9yiLqhoY4+2PMe54uZjP1ujvkjTI3n0QOGUvThw4dx3hgV1Q96S5NAIBAIHhyQchwwYADvGIDYmjJ1Mi1e8jpZbWZWtt3JF/vrjx2r4CjqlXAzbc/ZamxAAk/cdur2zcFg8PEYsf9tbrfD43BYbuHLA3CTOXP2FH3y6Q2qr6/lPY+I9SNM7Q94yO3W+DZkUy8GoerpM16hMWNGK0IeToMHD2aFjJcpIWuBQCB4eIFIJqZbDRo0iHO9sbGx9PwLkyghIZ4JFaLL5bJzzhfFuxkZIdq8+U06eqycW45Q3Jv/4W5+DtyBv3Hpjirdr8fGiP1/Zjabf+ZyO3aqL5ND1MD6DZl0tua0IuNOHvaBhDtyxqtWhzgPgGXMUMeoqEZ7Ewj5tddm0IQJ43j4B3qOkUNGPgF5ZAldCwQCwfcDiKI+ffrwSkEMZkJKEcJp1KhRNGXKSzRv/lwyJ63k1GNE9WosukKhVFqzdjX3+1adPEHXb3TwFEakLY28b2TyleVjj88zK0bsu5mWrD2texxF6kV8010Z/77qOMf829qv8C1oy9a3+cVAHSOMjckoKOQCIRs7ITGf+tVXp9OEieO59xgvHMl9qGXcvKCYMWUFB0NC2QKBQPDdgeEZffv25RRh//79ubNl6NChvE1pxIgR9OyzY3ib3pw5v6FlyxezgIKSdTptTLwYawzVi5Dzhqy1VFCQx3MlUHDV3HKJpy4araxdYydverwuc4xY75rb747T9fvJGLciNF+DiI1Q9YEDxZwbyFyzigk5JdXHq6oQssZLxctFPgEJfRR2zVe3rZlKLb80+UXOKWOJBFqgQNAY+I3DApJGQcDAgQNZRaMsvl+/fkzYOFwgbRw0KGsJeQsEgkcRECbwcdhGhPQeookIHYNcIWBAsFC0qMnBcCWEk4cNG8a+FGHl0aNH06TnJ9K0V6bS7Phf06JFC5k00VYEoYSUIiKZqHDGGGNMUESP7/r1a3jLUVXVCWq/GmZfj4goCrDgxw3yVSr4ps+n24LB4GMxYg/OXC7rUy6Xbae6+dw2yBgvYvPbm1gdIzSB3cX1f6zlsnQk55E/xi0KYQyQMoq68KLxwrHOylDLuIHhsxACwaxRNH1jYtfMmdPp5Zen0Iu/eoEmTpxAvxz7HPel/UKp6diRsfdI2wAOHm55IHGEwKG2UVgAQgcQdhEIBIKHBYZvgp8CecJnwXfBhxlEagBrZ5Hei4uLo2dGPUNjlJIdP34cT6mCop0+fRrNmjWTEubF06LFC8lkWsZ+Ff4VfhZCCISL0cURpatz9BKkm74qTQmo1bxl78OCPVR9qopF1qefddKlpgYOOUN8Gb4fOV/1WWGv12OK5gqxB2wYsu33e5IViX5iVMABINQtWzfTseMV1NHRpl7enzlZX/OHj6i09ADt3JVDWVnrWCnjlhUKpfBGDdy8EPZITnbxwehO0AAODg6QQdYGcLiSLCDuFbTStJQHiixZ+gbf8rA0+reKyBcsTGDFjeKCuQmzOewCxHcB1X7btr1Du3Zld2F7F7IpLc1/7zmBQCDobbA/mjub/RPafhYsSGABgvTdG8qHwT+hvgaRQ1NihPjg9wxiNciVCdae1EWyFs7PgmgxbAlVzKjZwbyHQIo3QrjpaSyO0PECVQuCRTcM6n0gpFD7U1d/gX+eviqVfazh5+0Oyx3NZS1ye7Wp0dwg9j2YIs4pSh3vUC/8y+4vCoclIzNEefnv00dnqrl6DqSMWdVNTY28PxJqOS9/N21VJIh8A/LKGepg4EYGgsZhQdEXyuBB1DhEuLl51YECYUNRg7R1t4LuYPIG0MscgY3D4DiQ3wbcCPE/qk4epZqa6h7Y/UEuPyMQCAS9iWhfZAD+iv3WPR8W8WlAhFA1JlX4PhAr/CGii1CoIFhEG5HDDYYCnBKE2MnMTGey/d1bG1kIIY0Iwr148Ty1t4dZ6aIVFWq37PBBFlL4X4YvBxTJ37VrlqZAIFl/pDcd/dAtOVmfrwh5izpEn3dXyEbeAGSavf1d2rd/L7c9tbUhn9zJ5IzbV2trC4ey8Tuo6ZKS/VRYmE/vvZ9L2dnv8iFavz6TDxQIG4oa01lwo0OVNg4cE3g6kBqBInMA/c0ASLc7shT5nzlTRbW1Z3tgb1F+j+cFAoGgN2H4JsDwV/f8l/Jl8GnwbfBzAHwefB984DrlC9GlggU8ubnZlJe3m0m2vPwQnTxZSecv1LDouXbtKpMtfO2NzmvU0FjHRbVoOc3auJaM4qrucDgsd22OpHMpKV6fxWIZGu3vxR5ys1qtI1NTfX6rPbFE3aq+MpL40cDLx/YmVFijxwwDvk+druJDglA2CgFwcAyAtK9f7+AbXHPzJWpsrOfJLDhsKBjA36KIADc9NI8fOXqYyisOseo+VHaQSkr3M7kbOFxeSvX159Tn1PbA6dOVtP9AkUAgEPQKDhwspoMl++7zQUjVYaUsfFHFkTL2W8dPHKHKymN0srqSI4mY6V9be443EF1SpBoON3PKD10qBrlG0KlINjLtED4RYqZ4XyErYIwlhnKOFkiGSFJK/K7yxzc8Huc6j0dfimmK0X5d7Ads6ib1c7/fq3n9eshiMZ116fbbRlP3f0Ok4duubox+2pC1hm98O3K3cWk88hU42GWKXEG2KA7DgT13voaJGUSOHAfmYV8JN1G4tZkLDQyg2u/qVZB5g3oGz92PcPgSfXytXSAQCHoNEBft3fxQa1uL8k+XueWn6XIjNf6pniOCtRfPcT0Ndr+DlCEmICKKigo4jYeqZfTrIkIIhQyCRW442odGo8unKsK13rTazdlpaf5UTddmRPtssR+BTZo06XGr1Tw5Jc2fnJLmDVpspreUYm52uuxfKPV81xiLGX2IehOBgIfD0XV1NT2wJ29Xj+cFAoHgYQaijphspXzoHbvD8lezeUW57nGE0tNTUvVk58rF5sWDo32xmNh/NJPp9SdsWtIcny/ZmaYOkUIwJcUbcuq2kNm8PMuUuHyvQpUi63p1+MI2e2KnIu+/ODTL3zWn9XOFW06X7QtF7P+C+u4OdUi/DqYH7pQeKr575GhpD+Ts2PKN2619LRAIBL0FXSHaF7l0x1cu3fal5rTd0jTrP5VK/Yci0L/Z7EmfWW2JHUq9NimCrUk0L6swmZfnKMGyyuvVQ0rFBtPhE9P8PpdHM5ksprHx8fF9ov2oWE/7N6118ldN/7CcAAAAAElFTkSuQmCC;" vertex="1" parent="1">
          <mxGeometry x="260" y="200" width="164.29" height="332" as="geometry" />
        </mxCell>
        <mxCell id="J1AjbqbmoUilZYHO_Ug5-3" value="" style="endArrow=classic;html=1;rounded=0;strokeColor=#FF8000;" edge="1" parent="1">
          <mxGeometry width="50" height="50" relative="1" as="geometry">
            <mxPoint x="250" y="230" as="sourcePoint" />
            <mxPoint x="180" y="340" as="targetPoint" />
          </mxGeometry>
        </mxCell>
        <mxCell id="J1AjbqbmoUilZYHO_Ug5-4" value="" style="endArrow=classic;html=1;rounded=0;strokeColor=#FF8000;" edge="1" parent="1">
          <mxGeometry width="50" height="50" relative="1" as="geometry">
            <mxPoint x="250" y="510" as="sourcePoint" />
            <mxPoint x="180" y="390" as="targetPoint" />
          </mxGeometry>
        </mxCell>
        <mxCell id="J1AjbqbmoUilZYHO_Ug5-5" value="&lt;font style=&quot;font-size: 13px;&quot; color=&quot;#ff8000&quot;&gt;&lt;b&gt;Header &amp;amp;&lt;/b&gt;&lt;/font&gt;&lt;div style=&quot;font-size: 13px;&quot;&gt;&lt;font style=&quot;font-size: 13px;&quot; color=&quot;#ff8000&quot;&gt;&lt;b&gt;Footer&lt;/b&gt;&lt;/font&gt;&lt;/div&gt;" style="text;html=1;align=center;verticalAlign=middle;whiteSpace=wrap;rounded=0;" vertex="1" parent="1">
          <mxGeometry x="140" y="350" width="60" height="30" as="geometry" />
        </mxCell>
      </root>
    </mxGraphModel>
  </diagram>
</mxfile>
